<?xml version="1.0" encoding="UTF-8"?>
<svg width="24px" height="25px" viewBox="0 0 24 25" version="1.1" xmlns="http://www.w3.org/2000/svg" xmlns:xlink="http://www.w3.org/1999/xlink">
    <!-- Generator: Sketch 61 (89581) - https://sketch.com -->
    <title>形状结合</title>
    <desc>Created with Sketch.</desc>
    <g id="页面-1" stroke="none" stroke-width="1" fill="none" fill-rule="evenodd">
        <g id="组队记录" transform="translate(-79.000000, -265.000000)" fill="#2975FF" fill-rule="nonzero">
            <g id="编组-2" transform="translate(35.000000, 149.000000)">
                <path d="M60.1082733,120 L60.1082733,120.002994 C60.4759867,120.002994 60.8436999,120.047898 61.2009922,120.13621 C61.5523296,120.220031 61.8947347,120.338279 62.2237414,120.49245 C62.5244624,120.630156 62.8088075,120.800792 63.0737993,121.001365 C63.2911521,121.166014 63.4846854,121.356108 63.6514218,121.571649 C63.9789397,122.002729 64.2230894,122.489192 64.3779161,123.007088 C64.520833,123.498041 64.6280207,123.997975 64.6979904,124.503896 C64.7664715,125.050231 64.800712,125.601057 64.7992233,126.150385 C64.8885463,126.223729 64.9600048,126.313537 65.0106212,126.41532 C65.064215,126.533568 65.1029217,126.65481 65.1267412,126.782038 C65.1609817,126.963152 65.1654478,127.148756 65.1416284,127.331367 C65.1229807,127.566109 65.0677188,127.796439 64.9778694,128.013912 C64.9080008,128.161354 64.8133145,128.295546 64.6979904,128.410566 C64.5974125,128.512469 64.4745571,128.589351 64.3392094,128.635087 C64.2796607,128.852124 64.2171346,129.069161 64.151631,129.286199 C64.0830869,129.461172 64.010116,129.634359 63.9327895,129.805591 C63.862524,129.953176 63.7673229,130.087385 63.6514218,130.202245 C63.4505093,130.371405 63.2529669,130.54457 63.0589121,130.721638 C62.8833705,130.923902 62.7764739,131.177129 62.7537249,131.444596 C62.7173531,131.649499 62.7043668,131.857907 62.7150183,132.065772 C62.7556192,132.536171 62.9702365,132.974148 63.3164603,133.293154 C63.5620987,133.511688 63.8449551,133.685318 64.1501423,133.802069 C64.48957,133.94726 64.8349525,134.069998 65.1892673,134.168787 C65.5599581,134.276557 65.924694,134.402289 66.2819862,134.545983 C66.6199252,134.677702 66.9370221,134.855822 67.2273221,135.075853 C67.5057123,135.295884 67.7111554,135.596742 67.8123882,135.939511 C67.8823579,136.20295 67.9299969,136.472375 67.9523276,136.743297 C67.9835907,137.062118 68,137.385428 68,137.711732 C68.0010202,138.018529 67.9771211,138.324899 67.9285082,138.627779 C67.9061774,138.855294 67.8391851,139.076822 67.7349749,139.278891 C67.5824335,139.423377 67.3926181,139.521912 67.1871267,139.563284 C66.8253683,139.675545 66.4576549,139.76685 66.0869642,139.838697 C65.6418376,139.927009 65.1580043,140.004843 64.6131335,140.073696 C64.072729,140.142549 63.5308357,140.200925 62.9889424,140.247326 C62.463425,140.29223 61.9379076,140.331147 61.4109015,140.359586 C60.912181,140.386529 60.4744979,140.4 60.1082733,140.4 C59.7420487,140.4 59.3118093,140.386529 58.8205324,140.359586 C58.3292555,140.332644 57.8290463,140.295223 57.3065063,140.247326 C56.7877255,140.19998 56.2696044,140.145591 55.7522849,140.084173 C55.2833388,140.028792 54.8143927,139.964429 54.348424,139.891085 C53.9271168,139.823729 53.5742907,139.756372 53.2780359,139.687519 C53.0836583,139.658328 52.8975315,139.58847 52.7316764,139.482457 C52.5381431,139.187585 52.4339328,138.840326 52.4354216,138.485582 C52.367933,137.765475 52.3969746,137.039516 52.5217672,136.327185 C52.554519,135.884129 52.7554959,135.472507 53.0830138,135.176139 C53.4061834,134.905481 53.7733098,134.692819 54.1682891,134.54748 C54.591085,134.388818 55.0198357,134.248118 55.4560301,134.131367 C55.8758485,134.019106 56.2733362,133.840986 56.6350946,133.601497 C56.8613797,133.460797 57.0668228,133.290161 57.2439802,133.092582 C57.3720099,132.947392 57.4762202,132.782743 57.5476786,132.603126 C57.6166008,132.44247 57.6515802,132.269171 57.6504002,132.094211 C57.649421,131.89691 57.6414761,131.699706 57.6265807,131.502972 C57.6179881,131.225985 57.5095206,130.961589 57.3213935,130.759058 C57.1311486,130.564839 56.9334974,130.378097 56.7288838,130.199252 C56.6161474,130.08528 56.5261927,129.950631 56.463892,129.802597 C56.392155,129.629992 56.3216871,129.456857 56.2524941,129.283205 C56.1869905,129.066168 56.1244644,128.849131 56.0649157,128.630597 C55.9688778,128.599418 55.8791417,128.551265 55.7999239,128.4884 C55.7056067,128.403936 55.6216455,128.308464 55.5498193,128.204006 C55.4450137,128.041583 55.3684909,127.862397 55.3235342,127.674136 C55.2487213,127.473631 55.21972,127.258776 55.2386772,127.045477 C55.250587,126.879331 55.2848275,126.716179 55.3399101,126.557517 C55.3963047,126.400533 55.4810999,126.255395 55.5900147,126.12943 C55.5767678,125.612303 55.6026468,125.094912 55.667428,124.58173 C55.7225106,124.107242 55.8148111,123.638741 55.9398634,123.176227 C56.063427,122.697249 56.2673813,122.243716 56.5413054,121.832093 C56.7601469,121.480343 57.0325823,121.16751 57.3541453,120.905569 C57.6325355,120.679551 57.9392114,120.490953 58.2667293,120.345763 C58.5662554,120.213722 58.8814966,120.121151 59.2046216,120.07035 C59.5023652,120.023949 59.8060636,120 60.1082733,120 Z M51.8752046,116 L51.8752046,116.003002 C52.2523976,116.003002 52.6265488,116.048035 52.9915743,116.1366 C53.352037,116.220662 53.7018531,116.340751 54.0364598,116.493863 C54.3436896,116.633466 54.63571,116.804592 54.9064373,117.004238 C55.1269735,117.16936 55.3262166,117.361501 55.4965619,117.57766 C55.8296476,118.008477 56.0806027,118.496336 56.2372595,119.015717 C56.2980971,119.219868 56.3513299,119.424018 56.4,119.63117 C55.8022707,119.868344 55.6547396,119.991435 55.2501696,120.278146 C54.912521,120.585872 54.6965476,120.781015 54.4212575,121.20883 C54.2128888,121.464018 53.9254312,122.100486 53.8067979,122.55532 C53.753565,122.756468 53.5634476,123.522031 53.528466,123.964857 C53.50261,124.182517 53.4220002,124.725916 53.4478562,125.516998 C53.3447726,125.648957 53.2589255,125.793195 53.1923383,125.946313 C53.1401689,126.105297 53.1054945,126.269363 53.0889144,126.435673 C53.0676213,126.67585 53.099561,126.773422 53.1771289,127.066137 C53.2775109,127.366358 53.2623015,127.331832 53.4083117,127.597528 C53.6197224,127.906755 53.7915885,127.965298 53.9345568,128.025342 C53.9969153,128.247506 54.1261952,128.678322 54.1261952,128.678322 L54.3406477,129.199205 C54.4805742,129.493422 54.6128959,129.598499 54.6128959,129.598499 C54.6128959,129.598499 54.9322933,129.883709 55.2182299,130.159912 C55.3018816,130.258985 55.519376,130.499161 55.5300225,130.90596 C55.5604413,131.225695 55.5528366,131.171656 55.5528366,131.497395 C55.5543576,131.754084 55.5285016,131.785607 55.4494127,132.00777 C55.3703239,132.172892 55.3140491,132.307991 55.139141,132.498631 C54.9916099,132.663753 54.8075762,132.828874 54.5155558,133.009007 C54.1482665,133.253062 53.7413746,133.433293 53.3124925,133.541898 C52.8622944,133.655982 52.5307296,133.773068 51.9968797,133.960706 C51.3763364,134.2234 51.3276663,134.27894 50.9748083,134.520618 C50.3299299,135.027991 50.3101577,135.792053 50.3147205,135.744018 C50.3177624,135.695982 50.2462782,136.204857 50.224985,136.4 C49.290212,136.336347 48.3571052,136.25076 47.4264561,136.143311 C46.9458392,136.08777 46.4682641,136.023223 45.9906891,135.948168 C45.5602632,135.882119 45.1998005,135.813068 44.8971335,135.744018 C44.6986646,135.715201 44.5085168,135.645656 44.3389486,135.539868 C44.1412265,135.24415 44.0347607,134.894393 44.0362816,134.540132 C43.9671954,133.817463 43.996866,133.088906 44.1244961,132.37404 C44.1579568,131.931214 44.3632837,131.518411 44.6978904,131.221192 C45.0285137,130.949609 45.4041123,130.736329 45.8081763,130.590728 C46.2386023,130.43011 46.6781538,130.290508 47.1222682,130.171921 C47.5511732,130.060839 47.957264,129.882207 48.3268524,129.64053 C48.5580352,129.500927 48.7679249,129.3283 48.9489167,129.130155 C49.0797175,128.986049 49.1861833,128.819426 49.2591884,128.639294 C49.3296023,128.478177 49.3653387,128.30438 49.3641332,128.128918 C49.3631328,127.931051 49.355016,127.733281 49.3397982,127.535982 C49.3306543,127.258723 49.2198645,126.994162 49.0280056,126.791435 C48.8336721,126.596149 48.6317425,126.40837 48.4226716,126.228521 C48.3074951,126.114222 48.2155934,125.979187 48.1519443,125.830728 C48.0786546,125.657628 48.0066615,125.483996 47.9359709,125.309845 C47.8690496,125.093687 47.8051701,124.874525 47.7443325,124.656865 C47.646216,124.625597 47.5545376,124.577306 47.4736052,124.51426 C47.3772466,124.429555 47.2914682,124.333809 47.2180874,124.229051 C47.1108555,124.065702 47.032671,123.885482 46.9869046,123.696159 C46.9104725,123.495079 46.8808434,123.279607 46.900211,123.065695 C46.9123785,122.900574 46.9473601,122.735453 47.0036349,122.576336 C47.0612501,122.418901 47.1478807,122.273346 47.2591527,122.14702 C47.2456963,121.628909 47.2721353,121.110538 47.3382416,120.59638 C47.3945164,120.12053 47.4888146,119.649183 47.6180945,119.186843 C47.7428116,118.70649 47.9511803,118.250155 48.2310332,117.838852 C48.4546113,117.486093 48.7344642,117.172362 49.0614662,116.908168 C49.3458819,116.683002 49.6591955,116.493863 49.9938022,116.346755 C50.299883,116.21485 50.621945,116.122519 50.9519942,116.072053 C51.2561821,116.025519 51.5664538,116.001501 51.8752046,116 Z" id="形状结合"></path>
            </g>
        </g>
    </g>
</svg>