<?xml version="1.0" encoding="UTF-8"?>
<svg width="35px" height="32px" viewBox="0 0 35 32" version="1.1" xmlns="http://www.w3.org/2000/svg" xmlns:xlink="http://www.w3.org/1999/xlink">
    <!-- Generator: Sketch 61 (89581) - https://sketch.com -->
    <title>排行榜</title>
    <desc>Created with Sketch.</desc>
    <g id="页面-1" stroke="none" stroke-width="1" fill="none" fill-rule="evenodd">
        <g id="基础体能详情" transform="translate(-29.000000, -763.000000)" fill-rule="nonzero">
            <g id="排行榜" transform="translate(24.000000, 757.000000)">
                <rect id="矩形" fill="#000000" opacity="0" x="0" y="0" width="44" height="44"></rect>
                <polygon id="路径" fill="#FF8E2B" points="20 29 25 29 25 36 20 36"></polygon>
                <path d="M17.5000583,33 L27.4999417,33 C29.1666472,33 30,33.8320811 30,35.4962432 L30,35.5037568 C30,37.1679189 29.1666472,38 27.4999417,38 L17.5000583,38 C15.8333528,38 15,37.1679189 15,35.5037568 L15,35.4962432 C15,33.8320811 15.8333528,33 17.5000583,33 Z" id="路径" fill="#FF8E2B"></path>
                <path d="M32.500025,11 L37.49995,11 C38.8807,11 40,12.0728693 40,13.3963433 L40,18.2073135 C40,20.8542613 37.7614,23 35.000075,23 L32.500025,23 L32.500025,11 Z M7.50005,11 L12.499975,11 L12.499975,23 L9.999925,23 C7.238425,23 5,20.8542613 5,18.2073135 L5,13.396511 C5,12.0730371 6.1193,11 7.50005,11 Z" id="形状" fill="#FFC695"></path>
                <path d="M14.8000672,6 L29.1999328,6 C31.8509569,6 34,8.14575369 34,10.7925523 L34,18.0183677 C34,24.6357835 28.6273922,30 22,30 C15.3726078,30 10,24.6356158 10,18.0183677 L10,10.7925523 C10,8.14558594 12.1490431,6 14.8000672,6 Z" id="路径" fill="#FF8E2B"></path>
                <path d="M23.5024023,11.3716472 L23.50444,11.3737762 C23.9771186,11.8685072 23.9771186,12.6697194 23.50444,13.1644503 L20.0717187,16.7564436 C19.8443872,16.994383 19.5358224,17.1280908 19.2140477,17.1280908 C18.8922731,17.1280908 18.5837083,16.994383 18.3563768,16.7564436 L18.354509,16.7543146 C17.8818303,16.2595836 17.8818303,15.4583714 18.354509,14.9636405 L21.7868907,11.3716472 C22.0142221,11.1337078 22.3227869,11 22.6445616,11 C22.9663363,11 23.2749011,11.1337078 23.5022325,11.3716472 L23.5024023,11.3716472 Z M27.6433686,16.4486243 L27.6454062,16.4505759 C28.1181979,16.9453273 28.1181979,17.7466761 27.6454062,18.2414274 L22.4976827,23.6283528 C22.2703513,23.8662922 21.9617865,24 21.6400118,24 C21.3182371,24 21.0096723,23.8662922 20.7823409,23.6283528 L20.7803032,23.6262238 C20.3075116,23.1314724 20.3075116,22.3301236 20.7803032,21.8353723 L25.9281966,16.4486243 C26.1555212,16.2107392 26.4640496,16.077066 26.7857826,16.077066 C27.1075156,16.077066 27.416044,16.2107392 27.6433686,16.4486243 Z" id="形状" fill="#FFFFFF" opacity="0.5"></path>
            </g>
        </g>
    </g>
</svg>