<?xml version="1.0" encoding="UTF-8"?>
<svg width="33px" height="33px" viewBox="0 0 33 33" version="1.1" xmlns="http://www.w3.org/2000/svg" xmlns:xlink="http://www.w3.org/1999/xlink">
    <!-- Generator: Sketch 61 (89581) - https://sketch.com -->
    <title>客服</title>
    <desc>Created with Sketch.</desc>
    <g id="页面-1" stroke="none" stroke-width="1" fill="none" fill-rule="evenodd">
        <g id="基础体能详情" transform="translate(-590.000000, -763.000000)" fill-rule="nonzero">
            <g id="客服" transform="translate(586.000000, 759.000000)">
                <rect id="矩形" fill="#000000" opacity="0" x="0" y="0" width="40" height="40"></rect>
                <path d="M34.8382604,18.1685384 C34.7421728,10.3280742 28.3638677,4 20.4998266,4 C12.6357855,4 6.25751899,10.3280742 6.16123876,18.1685384 C4.84502371,19.2208736 4,20.8365554 4,22.6519629 C4,25.8209892 6.56966882,28.3913395 9.73905673,28.3913395 C11.1221555,28.3913395 12.3904424,27.9010408 13.3812156,27.08692 L10.6773555,16.9957281 C10.3711004,16.9458738 10.0591817,16.9127018 9.73909526,16.9127018 C9.52819571,16.9127018 9.32087922,16.9257625 9.11560469,16.9483781 C9.80732746,11.2713771 14.6353629,6.86959202 20.5000193,6.86959202 C26.3638666,6.86959202 31.192634,11.2713386 31.8841641,16.9483781 C31.6797372,16.9259166 31.4717272,16.9127018 31.2607892,16.9127018 C30.9408183,16.9127018 30.628129,16.9459508 30.3216813,16.9957281 L27.6186303,27.0822196 C28.3832856,27.7100224 29.3131083,28.1439941 30.3332395,28.3100083 C28.9794602,29.7644533 27.2577817,30.8724991 25.3101009,31.4718686 L25.0726173,31.7090428 C24.4650386,30.5921358 23.2956519,29.825365 21.9348605,29.825365 C19.9535066,29.825365 18.347873,31.4309526 18.347873,33.4129522 C18.347873,35.3944509 19.9534296,37 21.9348605,37 C23.5611449,37 24.9176212,35.9108326 25.3581061,34.427993 C29.316884,33.4575283 32.6332158,30.8515402 34.5381311,27.3589229 C36.0251001,26.3218829 37,24.6018306 37,22.6518473 C37,20.8369022 36.1541287,19.220681 34.8385301,18.1683842 L34.8382604,18.1685384 Z" id="路径" fill="#FFFFFF"></path>
            </g>
        </g>
    </g>
</svg>