<?xml version="1.0" encoding="UTF-8"?>
<svg width="33px" height="32px" viewBox="0 0 33 32" version="1.1" xmlns="http://www.w3.org/2000/svg" xmlns:xlink="http://www.w3.org/1999/xlink">
    <!-- Generator: Sketch 61 (89581) - https://sketch.com -->
    <title>形状结合</title>
    <desc>Created with Sketch.</desc>
    <g id="页面-1" stroke="none" stroke-width="1" fill="none" fill-rule="evenodd">
        <g id="积分排行榜" transform="translate(-49.000000, -160.000000)" fill="#1A051D" fill-rule="nonzero">
            <path d="M76.2695091,184.880656 L76.2751249,184.886273 L80.7929484,189.428581 C81.3818166,190.020641 81.381756,190.977198 80.7928128,191.569183 L80.7906625,191.571344 C80.2045405,192.160494 79.2517949,192.162948 78.6626456,191.576826 C78.6607687,191.574958 78.6588968,191.573086 78.6570298,191.571209 L74.1392063,187.0289 C73.550338,186.436841 73.5503986,185.480284 74.1393419,184.888299 L74.1414922,184.886138 C74.7276142,184.296988 75.6803598,184.294534 76.2695091,184.880656 Z M62.5,160 C69.9558441,160 76,166.044156 76,173.5 C76,180.955844 69.9558441,187 62.5,187 C55.0441559,187 49,180.955844 49,173.5 C49,166.044156 55.0441559,160 62.5,160 Z M62.5,163.103993 C56.7584439,163.103993 52.103993,167.758444 52.103993,173.5 C52.103993,179.241556 56.7584439,183.896007 62.5,183.896007 C68.2415561,183.896007 72.896007,179.241556 72.896007,173.5 C72.896007,167.758444 68.2415561,163.103993 62.5,163.103993 Z" id="形状结合"></path>
        </g>
    </g>
</svg>