<?xml version="1.0" encoding="UTF-8"?>
<svg width="80px" height="75px" viewBox="0 0 80 75" version="1.1" xmlns="http://www.w3.org/2000/svg" xmlns:xlink="http://www.w3.org/1999/xlink">
    <!-- Generator: Sketch 61 (89581) - https://sketch.com -->
    <title>编组 3备份</title>
    <desc>Created with Sketch.</desc>
    <defs>
        <linearGradient x1="50%" y1="0%" x2="50%" y2="100%" id="linearGradient-1">
            <stop stop-color="#C1AAFF" offset="0%"></stop>
            <stop stop-color="#F9E4FF" offset="100%"></stop>
        </linearGradient>
        <linearGradient x1="50%" y1="0%" x2="50%" y2="100%" id="linearGradient-2">
            <stop stop-color="#BB96FF" offset="0%"></stop>
            <stop stop-color="#D7A9FF" offset="100%"></stop>
        </linearGradient>
    </defs>
    <g id="页面-1" stroke="none" stroke-width="1" fill="none" fill-rule="evenodd">
        <g id="体能检测" transform="translate(-104.000000, -1374.000000)" fill-rule="nonzero">
            <g id="编组-4" transform="translate(35.000000, 1346.000000)">
                <g id="编组-3备份" transform="translate(69.000000, 28.000000)">
                    <path d="M56.8698248,3.54889193e-13 C63.151672,3.54889193e-13 68.2440287,5.09235669 68.2440287,11.3738057 L68.2440287,28.522293 C68.2440287,42.2793967 58.4748488,53.7542759 45.4955297,56.3886927 L45.4948057,62.653 L51.1827229,62.6532643 C54.9741242,62.6532643 56.8698248,64.548965 56.8698248,68.3403662 L56.8698248,68.3574841 C56.8698248,72.1488854 54.9741242,74.044586 51.1827229,74.044586 L28.4351115,74.044586 C24.6437102,74.044586 22.7480096,72.1488854 22.7480096,68.3574841 L22.7480096,68.3403662 C22.7480096,64.548965 24.6437102,62.6532643 28.4351115,62.6532643 L34.1218057,62.653 L34.1223047,56.3886766 C21.1429856,53.7541894 11.3738057,42.279048 11.3738057,28.522293 L11.3738057,11.3738057 C11.3738057,5.0919586 16.4661624,3.54889193e-13 22.7480096,3.54889193e-13 L56.8698248,3.54889193e-13 Z" id="形状结合" fill="url(#linearGradient-1)"></path>
                    <path d="M11.373,11.3911111 L11.3738057,28.522293 C11.3738057,32.5565773 12.2139601,36.3946417 13.7288475,39.8710648 L11.3738057,39.8702229 C5.0919586,39.8702229 -1.6443558e-14,34.7778662 -1.6443558e-14,28.4960191 L-1.6443558e-14,17.0788217 C-1.6443558e-14,13.9378981 2.54617834,11.3913217 5.68710191,11.3913217 L11.373,11.3911111 Z M73.9307325,11.3913217 C77.0716561,11.3913217 79.6178344,13.9375 79.6178344,17.0784236 L79.6178344,28.4960191 C79.6178344,34.7778662 74.5254777,39.8702229 68.2440287,39.8702229 L65.8892812,39.8705588 C67.4039831,36.3942966 68.2440287,32.5564183 68.2440287,28.522293 L68.2440287,28.522293 L68.244,11.3911111 L73.9307325,11.3913217 Z" id="形状结合" fill="url(#linearGradient-2)"></path>
                    <path d="M42.5095541,13.4052548 L42.5143312,13.4100318 C43.6224927,14.520109 43.6224927,16.3178687 42.5143312,17.4279459 L34.4665605,25.4876592 C33.9335981,26.0215477 33.2101899,26.3215611 32.4558121,26.3215611 C31.7014343,26.3215611 30.9780261,26.0215477 30.4450637,25.4876592 L30.4406847,25.4828822 C29.3325232,24.372805 29.3325232,22.5750453 30.4406847,21.4649682 L38.4876592,13.4052548 C39.0206216,12.8713663 39.7440298,12.5713529 40.4984076,12.5713529 C41.2527854,12.5713529 41.9761936,12.8713663 42.5091561,13.4052548 L42.5095541,13.4052548 Z M52.2177548,24.7969745 L52.2225318,24.8013535 C53.3309583,25.9114764 53.3309583,27.7095427 52.2225318,28.8196656 L40.1540605,40.9068471 C39.6210981,41.4407356 38.8976899,41.740749 38.1433121,41.740749 C37.3889343,41.740749 36.6655261,41.4407356 36.1325637,40.9068471 L36.1277866,40.9020701 C35.0193602,39.7919471 35.0193602,37.9938809 36.1277866,36.883758 L48.1966561,24.7969745 C48.7296024,24.263208 49.4529252,23.963272 50.2072054,23.963272 C50.9614856,23.963272 51.6848084,24.263208 52.2177548,24.7969745 Z" id="形状" fill="#FFFFFF"></path>
                </g>
            </g>
        </g>
    </g>
</svg>