<?xml version="1.0" encoding="UTF-8"?>
<svg width="54px" height="64px" viewBox="0 0 54 64" version="1.1" xmlns="http://www.w3.org/2000/svg" xmlns:xlink="http://www.w3.org/1999/xlink">
    <!-- Generator: Sketch 61 (89581) - https://sketch.com -->
    <title>yinshi</title>
    <desc>Created with Sketch.</desc>
    <g id="页面-1" stroke="none" stroke-width="1" fill="none" fill-rule="evenodd">
        <g id="体能检测" transform="translate(-170.000000, -1043.000000)" fill-rule="nonzero">
            <g id="yinshi" transform="translate(170.000000, 1043.000000)">
                <path d="M45.0155718,0.116228541 C45.7925261,0.319596187 46.3992927,0.926362765 46.6026603,1.70331706 C46.806028,2.48027135 46.574348,3.30650118 45.9966667,3.86444444 L31.4469868,18.4142412 C31.4625074,18.4463478 31.4778927,18.4785316 31.493142,18.5107917 C32.8803582,16.5967311 35.1339768,15.3507344 37.6788889,15.3477778 L39.3188889,15.3477778 C39.4089829,15.3478824 39.4987119,15.349545 39.5880502,15.3527399 L49.2644444,5.67666667 C49.8223877,5.09898537 50.6486175,4.86730534 51.4255718,5.07067299 C52.2025261,5.27404063 52.8092927,5.88080721 53.0126603,6.6577615 C53.216028,7.4347158 52.984348,8.26094562 52.4066667,8.81888889 L44.1505603,17.0746388 C45.8613331,18.4751692 46.9538983,20.6026712 46.9566667,22.9855556 L46.9557778,24.0527489 L49.6155556,24.0533333 C51.6856081,24.0557824 53.3631065,25.7332808 53.3655556,27.8033333 L53.3655556,33.7711111 C53.3655556,43.2142298 47.7536917,51.3714692 39.6903203,55.0829061 C39.1062965,60.5370948 34.5673538,63.75 27.2988889,63.75 L26.1155556,63.75 C18.8470907,63.75 14.308148,60.5370948 13.7232841,55.0840967 C5.66008222,51.3721096 0.0477777778,43.2146004 0.0477777778,33.7711111 L0.0477777778,27.8033333 C0.0502268221,25.7332808 1.72772524,24.0557824 3.79777778,24.0533333 L4.41677778,24.0527489 L4.41777778,23.76 C4.41777778,16.9644444 9.94666667,11.4355556 16.7422222,11.4355556 L20.3433333,11.4355556 C23.6073677,11.4355556 26.5791741,12.7111052 28.7864444,14.7898966 L42.8544444,0.722222222 C43.4123877,0.144540923 44.2386175,-0.0871391049 45.0155718,0.116228541 Z M34.4899588,56.7700715 L34.456635,56.7763089 C32.9888231,57.0652107 31.4723111,57.2166667 29.9211111,57.2166667 L23.4933333,57.2166667 C21.930697,57.2166667 20.4032723,57.0629956 18.9253778,56.7699722 C20.0907344,58.4551335 22.4955903,59.3055556 26.1155556,59.3055556 L27.2988889,59.3055556 C30.9188542,59.3055556 33.3237101,58.4551335 34.4899588,56.7700715 Z M48.9222222,28.4977778 L4.49222222,28.4977778 L4.49222222,33.7711111 C4.49222222,44.2477778 13.0155556,52.7722222 23.4933333,52.7722222 L29.9211111,52.7722222 C40.3988889,52.7722222 48.9222222,44.2477778 48.9222222,33.7711111 L48.9222222,28.4977778 Z M20.3433333,15.88 L16.7422222,15.88 C12.3966667,15.88 8.86222222,19.4155556 8.86222222,23.76 L8.86222222,23.9044444 L28.2233333,23.9044444 L28.2233333,23.76 C28.2184347,19.4100269 24.6933065,15.8848986 20.3433333,15.88 Z M39.3188889,19.7911111 L37.6788889,19.7911111 C35.9160212,19.7929484 34.4873928,21.2215767 34.4855556,22.9844444 L34.4855556,23.2833333 L42.5122222,23.2833333 L42.5122222,22.9844444 C42.5097741,21.2218302 41.0815032,19.7935592 39.3188889,19.7911111 Z" id="形状结合" fill="#333333"></path>
                <path d="M26.6033333,46.0466667 L26.3522222,46.0444444 C23.2444444,45.98 20.32,44.7455556 18.3288889,42.6533333 C16.6666667,40.9088889 15.7877778,38.6988889 15.8533333,36.4311111 C15.8877778,35.2044444 16.9244444,34.2588889 18.1377778,34.2744444 C18.7270327,34.2912934 19.285448,34.5415823 19.69013,34.9702286 C20.0948121,35.3988749 20.312597,35.9707506 20.2955556,36.56 C20.2566667,37.9355556 20.9544444,38.9666667 21.5477778,39.59 C22.7277778,40.8288889 24.5111111,41.5611111 26.4422222,41.6011111 C29.9077778,41.6788889 32.8311111,39.46 32.9077778,36.7766667 C32.9482754,35.5521877 33.9685662,34.5894339 35.1933333,34.62 C35.7824918,34.6368459 36.3407969,34.8871714 36.7453025,35.3158516 C37.1498082,35.7445317 37.3673419,36.3164115 37.35,36.9055556 C37.2044444,41.99 32.4077778,46.0466667 26.6033333,46.0466667 L26.6033333,46.0466667 Z" id="路径" fill="#0068FF"></path>
            </g>
        </g>
    </g>
</svg>