<?xml version="1.0" encoding="UTF-8"?>
<svg width="28px" height="29px" viewBox="0 0 28 29" version="1.1" xmlns="http://www.w3.org/2000/svg" xmlns:xlink="http://www.w3.org/1999/xlink">
    <!-- Generator: Sketch 61 (89581) - https://sketch.com -->
    <title>形状</title>
    <desc>Created with Sketch.</desc>
    <g id="页面-1" stroke="none" stroke-width="1" fill="none" fill-rule="evenodd">
        <g id="体能检测" transform="translate(-66.000000, -235.000000)" fill="#FFFFFF" fill-rule="nonzero">
            <path d="M78.505374,260.280199 L71.5134033,264 L72.8492289,256.121005 L67.1918943,250.541303 L75.0093887,249.391656 L78.505374,242.222914 L82.0013594,249.391656 L89.8188538,250.541303 L84.1615192,256.121005 L85.4973448,264 L78.505374,260.280199 Z M88.3426654,244.028643 L84.8478695,245.888543 L85.513998,241.949647 L82.6865202,239.159195 L86.5952674,238.583769 L88.3438549,235 L90.0912528,238.583769 L94,239.159195 L91.1713327,241.949647 L91.8386507,245.888543 L88.3438549,244.028643 L88.3426654,244.028643 Z M69.7529207,243.396638 L67.4321764,244.630552 L67.8758656,242.018265 L66,240.165587 L68.5931433,239.783977 L69.7517311,237.407638 L70.9115085,239.785181 L73.5046519,240.166791 L71.6287863,242.017061 L72.0712859,244.630552 L69.7517311,243.396638 L69.7529207,243.396638 Z" id="形状"></path>
        </g>
    </g>
</svg>