<?xml version="1.0" encoding="UTF-8"?>
<svg width="32px" height="32px" viewBox="0 0 32 32" version="1.1" xmlns="http://www.w3.org/2000/svg" xmlns:xlink="http://www.w3.org/1999/xlink">
    <!-- Generator: Sketch 61 (89581) - https://sketch.com -->
    <title>评分</title>
    <desc>Created with Sketch.</desc>
    <g id="页面-1" stroke="none" stroke-width="1" fill="none" fill-rule="evenodd">
        <g id="我的" transform="translate(-236.000000, -271.000000)" fill-rule="nonzero">
            <g id="评分" transform="translate(236.000000, 271.000000)">
                <path d="M6.43372263,0.0558820295 L25.566669,0.0558820295 C27.3227176,-0.193007053 29.0935856,0.398367006 30.3477092,1.65249065 C31.6018329,2.9066143 32.1932069,4.67748231 31.9443178,6.43353084 L31.9443178,25.5664772 C32.1932069,27.3225257 31.6018329,29.0933938 30.3477092,30.3475174 C29.0935856,31.6016411 27.3227176,32.1930151 25.566669,31.944126 L6.43372263,31.944126 C4.67767409,32.1930151 2.90680608,31.6016411 1.65268244,30.3475174 C0.398558803,29.0933938 -0.192815247,27.3225257 0.0560738438,25.5664772 L0.0560738438,6.43353084 C-0.192815247,4.67748231 0.398558803,2.9066143 1.65268244,1.65249065 C2.90680608,0.398367006 4.67767409,-0.193007053 6.43372263,0.0558820295 Z" id="路径" fill="#FC4916"></path>
                <path d="M25.566669,0.0558820295 L16.6943784,0.0558820295 C8.95933103,1.94013744 2.70007271,7.60512149 0.0560738438,15.114492 L0.0560738438,25.5664772 C0.0560738438,27.2579348 0.728002756,28.8801148 1.92404391,30.0761559 C3.12008507,31.2721971 4.742265,31.944126 6.43372263,31.944126 L25.566669,31.944126 C27.2581267,31.944126 28.8803066,31.2721971 30.0763477,30.0761559 C31.2723889,28.8801148 31.9443178,27.2579348 31.9443178,25.5664772 L31.9443178,6.43353084 C31.9443178,4.74207321 31.2723889,3.11989328 30.0763477,1.92385212 C28.8803066,0.727810958 27.2581267,0.0558820295 25.566669,0.0558820295 Z" id="路径" fill="#FC4916"></path>
                <path d="M25.6255396,0.0558820295 L25.5077984,0.0558820295 C23.3580788,0.536654767 21.284714,1.31086504 19.3460085,2.3567415 C15.2618487,4.5616382 11.9392651,7.94920282 9.8138765,12.0752971 C6.59982447,18.2386247 6.25190901,25.5018083 8.86213506,31.944126 L25.6255396,31.944126 C27.3091962,31.9363374 28.9207984,31.2600284 30.1058031,30.0639833 C31.2908078,28.8679382 31.9521427,27.2501336 31.9443865,25.5664772 L31.9443865,6.43353084 C31.9521427,4.74987448 31.2908078,3.13206983 30.1058031,1.93602473 C28.9207984,0.739979626 27.3091962,0.0636706863 25.6255396,0.0558820295 Z" id="路径" fill="#FE6A3F"></path>
                <path d="M14.9895783,22.5248293 C14.9873185,25.7740096 15.6815612,28.9859276 17.0255255,31.944126 L25.3655278,31.944126 C27.0854467,31.9729866 28.7463303,31.3171407 29.9825159,30.1209805 C31.2187015,28.9248203 31.9288387,27.2864145 31.9565825,25.5664772 L31.9565825,6.46541909 C31.9448661,4.34331853 30.867467,2.36916222 29.0890935,1.21121765 C20.5913251,4.90642277 15.066062,13.2587212 14.9895783,22.5248293 Z" id="路径" fill="#FF6E44"></path>
                <path d="M16.4319136,4.55948328 L19.4441262,10.9052438 L26.1970751,11.9256676 C26.3670942,11.9634577 26.5043311,12.088558 26.5576575,12.2543618 C26.6137132,12.422994 26.5784427,12.608628 26.4644458,12.7449502 L21.5585621,17.7195162 L22.7114447,24.7005887 C22.7440717,24.8869951 22.6703291,25.0760787 22.5201153,25.1911771 C22.3780878,25.2979387 22.187536,25.3141356 22.0295269,25.2328771 L16.0051017,21.9704645 L9.99048831,25.2181595 C9.83247916,25.299418 9.64192738,25.2832211 9.49989994,25.1764595 C9.34968611,25.061361 9.27594353,24.8722775 9.30857047,24.6858711 L10.4467355,17.7047986 L5.56783416,12.7621208 C5.45383719,12.6257986 5.41856674,12.4401646 5.47462238,12.2715324 C5.52794876,12.1057286 5.66518567,11.9806283 5.83520484,11.9428382 L12.5734361,10.9224144 L15.5856487,4.57665387 C15.6539516,4.40193131 15.8194355,4.28440747 16.0069064,4.27748383 C16.1943772,4.27056019 16.3680792,4.37555727 16.4490842,4.54476562 L16.4319136,4.55948328 Z" id="路径" fill="#FFF5CC"></path>
                <path d="M21.1194855,13.2379915 C21.4432866,12.6005137 21.7187897,11.9396341 21.9436739,11.2609204 L19.8341439,10.9567556 L16.6306019,4.56438915 C16.5521715,4.38651555 16.3761109,4.27173055 16.1817135,4.27173055 C15.9873161,4.27173055 15.8112555,4.38651555 15.7328252,4.56438915 L12.5685302,10.9739262 L5.45499884,12.0041618 C5.27418246,12.0320118 5.12388432,12.1581598 5.06510361,12.3314083 C5.00632289,12.5046567 5.04882624,12.6962195 5.17536347,12.8283502 L10.3265413,17.8544281 L9.83595297,20.6556877 C14.67827,20.4563136 19.0165279,17.6043806 21.1194855,13.2379915 Z" id="路径" fill="#FFFFFF"></path>
            </g>
        </g>
    </g>
</svg>