<?xml version="1.0" encoding="UTF-8"?>
<svg width="51px" height="50px" viewBox="0 0 51 50" version="1.1" xmlns="http://www.w3.org/2000/svg" xmlns:xlink="http://www.w3.org/1999/xlink">
    <!-- Generator: Sketch 61 (89581) - https://sketch.com -->
    <title>yifahuo_1</title>
    <desc>Created with Sketch.</desc>
    <g id="页面-1" stroke="none" stroke-width="1" fill="none" fill-rule="evenodd">
        <g id="我的" transform="translate(-473.000000, -1465.000000)" fill-rule="nonzero">
            <g id="yifahuo_1" transform="translate(473.000000, 1465.000000)">
                <path d="M48.3194053,11.861072 L43.9933402,3.43664617 C43.0825756,1.38746585 40.5780396,0.0213456284 38.0735037,0.0213456284 L11.6618105,0.0213456284 C9.38497908,0.0213456284 6.88038977,1.61517034 5.74197404,3.43664617 L1.64361339,11.6333675 C0.732848788,13.2271922 0.0497886783,16.1870838 0.0497886783,18.008613 L0.0497886783,45.3310173 C0.0497886783,47.8355533 2.09896901,49.8847336 4.60355832,49.8847336 L45.5871649,49.8847336 C48.0917008,49.8847336 50.1408811,47.8355533 50.1408811,45.3310173 L50.1408811,18.4639686 C50.1408811,16.4147883 49.2301165,13.6825478 48.3194053,11.861072 Z M3.2374381,14.5933124 C3.46508922,13.9102523 3.92049821,13.2271922 3.92049821,12.9994877 L8.24650999,4.80276639 C8.9295701,3.66435067 10.5233948,2.52588157 11.6618105,2.52588157 L38.3011548,2.52588157 C39.667275,2.52588157 41.0333952,3.43664617 41.7164553,4.80276639 L46.0425205,13.2271922 C46.270225,13.4548433 46.270225,14.1379034 46.7255806,14.8209635 L46.9532851,15.048668 L3.2374381,15.048668 L3.2374381,14.5933124 Z M47.4086407,45.5586685 C47.4086407,46.4694331 46.4978761,47.3801977 45.5871649,47.3801977 L4.60355832,47.3801977 C3.69279372,47.3801977 2.78202912,46.4694331 2.78202912,45.5586685 L2.78202912,17.553204 L47.6363452,17.553204 L47.6363452,45.5586685 L47.4086407,45.5586685 Z M20.0862363,29.1652258 L10.5233948,29.1652258 C9.8403347,29.1652258 9.15727459,29.8482859 9.15727459,30.5313461 C9.15727459,31.2144062 9.8403347,31.8974663 10.5233948,31.8974663 L20.3139408,31.8974663 C20.9970009,31.8974663 21.680061,31.2144062 21.680061,30.5313461 C21.4523566,29.6206348 20.9970009,29.1652258 20.0862363,29.1652258 L20.0862363,29.1652258 Z M15.3048156,35.9958269 L10.2956903,35.9958269 C9.61263021,35.9958269 8.9295701,36.678887 8.9295701,37.3619471 C8.9295701,38.0450073 9.61263021,38.7280674 10.2956903,38.7280674 L15.0771111,38.7280674 C15.7601712,38.7280674 16.4432313,38.0450073 16.4432313,37.3619471 C16.4432313,36.678887 15.9878757,35.9958269 15.3048156,35.9958269 Z" id="形状" fill="#333333"></path>
                <path d="M38.7565638,26.6606899 L30.5598425,35.5404713 L30.332138,35.3127668 L26.9168374,32.1251708 C26.4614818,31.6698151 26.2337773,31.6698151 25.7784217,31.6698151 C25.3230661,31.6698151 25.0953616,31.8974663 24.8676571,32.1251708 C24.6399526,32.5805264 24.6399526,32.8082309 24.6399526,33.2635865 C24.6399526,33.491291 24.8676571,33.9466466 24.8676571,34.1743511 L29.4213734,38.5004162 C29.8767824,38.9557719 30.332138,38.9557719 31.0151981,38.9557719 C31.2429026,38.9557719 31.4705537,38.7280674 31.4705537,38.5004162 L40.5780396,28.4821657 C40.8057441,28.2545146 40.8057441,28.0268101 40.8057441,27.5714545 C40.8057441,27.34375 40.5780396,26.8883944 40.3503351,26.6606899 C40.122684,26.2053343 39.4396239,26.2053343 38.7565638,26.6606899 L38.7565638,26.6606899 Z" id="路径" fill="#7371FF"></path>
            </g>
        </g>
    </g>
</svg>