<?xml version="1.0" encoding="UTF-8"?>
<svg width="60px" height="42px" viewBox="0 0 60 42" version="1.1" xmlns="http://www.w3.org/2000/svg" xmlns:xlink="http://www.w3.org/1999/xlink">
    <!-- Generator: Sketch 61 (89581) - https://sketch.com -->
    <title>daifukuan</title>
    <desc>Created with Sketch.</desc>
    <g id="页面-1" stroke="none" stroke-width="1" fill="none" fill-rule="evenodd">
        <g id="我的" transform="translate(-87.000000, -1469.000000)" fill-rule="nonzero">
            <g id="daifukuan" transform="translate(87.000000, 1469.000000)">
                <path d="M52.98375,0.01734375 C56.85375,0.01734375 60,3.42609375 60,7.61859375 L60,33.7523438 C60,37.9410938 56.85375,41.3535938 52.98375,41.3535938 L7.02,41.3535938 C3.15,41.3535938 0,37.9410938 0,33.7485938 L0,7.61859375 C0,3.42609375 3.15,0.01734375 7.02,0.01734375 L52.98375,0.01734375 Z M4.00125,17.9648447 L4.00125,33.7485938 C4.00125,35.7023438 5.385,37.3523438 7.02,37.3523438 L52.98375,37.3523438 C54.6225,37.3523438 56.0029255,35.7023438 56.0029255,33.7485938 L56.0029255,17.9739704 L55.9092017,17.97837 L55.9092017,17.97837 L4.30124987,17.9798437 C4.20043062,17.9798437 4.10033175,17.9747843 4.00125,17.9648447 Z M7.02,4.01484375 C5.385,4.01484375 4.00125,5.66484375 4.00125,7.61484375 L4.00125,11.9948428 C4.10033175,11.9849032 4.20043062,11.9798437 4.30124987,11.9798437 L55.815,11.9798437 L56.0025,11.9863438 L56.0025,7.61859375 C56.0025,5.66484375 54.6225,4.01859375 52.98375,4.01859375 L7.02,4.01859375 L7.02,4.01484375 Z" id="形状" fill="#333333"></path>
                <path d="M50.5875,34.0185938 L40.3575,34.0185938 C39.2536209,34.0185938 38.35875,33.1237229 38.35875,32.0198438 C38.35875,30.9159646 39.2536209,30.0210938 40.3575,30.0210938 L50.5875,30.0210938 C51.6913791,30.0210938 52.58625,30.9159646 52.58625,32.0198438 C52.58625,33.1237229 51.6913791,34.0185938 50.5875,34.0185938 L50.5875,34.0185938 Z" id="路径" fill="#7371FF"></path>
            </g>
        </g>
    </g>
</svg>