<?xml version="1.0" encoding="UTF-8"?>
<svg width="50px" height="50px" viewBox="0 0 50 50" version="1.1" xmlns="http://www.w3.org/2000/svg" xmlns:xlink="http://www.w3.org/1999/xlink">
    <!-- Generator: Sketch 61 (89581) - https://sketch.com -->
    <title>yifahuo</title>
    <desc>Created with Sketch.</desc>
    <g id="页面-1" stroke="none" stroke-width="1" fill="none" fill-rule="evenodd">
        <g id="我的" transform="translate(-349.000000, -1465.000000)" fill-rule="nonzero">
            <g id="yifahuo" transform="translate(349.000000, 1465.000000)">
                <path d="M18.1100948,23.2501404 L1.63228581,23.2501404 C1.22368583,23.247044 0.830922183,23.4079912 0.541990065,23.6969234 C0.253057946,23.9858555 0.0921107166,24.3786191 0.0951632968,24.7872191 C0.101628704,25.63345 0.786054878,26.3178762 1.63228581,26.3242978 L18.1098139,26.3242978 C18.958719,26.3242978 19.6468926,25.6361242 19.6468926,24.7872191 C19.6468926,23.938314 18.958719,23.2501404 18.1098139,23.2501404 L18.1100948,23.2501404 Z M10.9612184,29.8984551 L1.63228581,29.8984551 C1.22368583,29.8953586 0.830922183,30.0563058 0.541990065,30.345238 C0.253057946,30.6341701 0.0921107166,31.0269337 0.0951632968,31.4355337 C0.101479877,32.2817812 0.786037213,32.9662134 1.63228581,32.9723315 L10.9609375,32.9723315 C11.3694884,32.975427 11.7622087,32.8145181 12.0511326,32.5256471 C12.3400564,32.2367761 12.501037,31.8440852 12.4980162,31.4355337 C12.5071653,31.0251387 12.3481633,30.6288383 12.0578981,30.3385731 C11.7676329,30.0483079 11.3713325,29.8893059 10.9609375,29.8984551 L10.9612184,29.8984551 Z M6.24324087,36.5110955 L1.59717346,36.5110955 C0.750879417,36.5173663 0.066365605,37.2018801 0.0600530431,38.0481742 C0.0570739611,38.4567256 0.218054573,38.8494165 0.50697839,39.1382876 C0.795902207,39.4271586 1.18862254,39.5880674 1.59717346,39.5849719 L6.24324087,39.5849719 C6.79728765,39.5924623 7.31248356,39.3011727 7.5916918,38.8225636 C7.87090003,38.3439545 7.87090003,37.7521129 7.5916918,37.2735038 C7.31248356,36.7948947 6.79728765,36.5036051 6.24324087,36.5110955 L6.24324087,36.5110955 Z M48.134533,11.8481742 L43.8811622,3.6627809 C42.8443645,1.66081461 40.2353757,0.0526685393 37.9474544,0.0526685393 L11.8547577,0.0526685393 C9.60279143,0.0526685393 6.99380267,1.62570225 5.92133076,3.62710674 L1.66767907,11.6327247 C0.738746489,13.3490169 0.0241397472,16.2445225 0.0241397472,18.2102528 L0.0241397472,19.4610955 C0.0241397472,20.3098455 0.712187538,20.9978933 1.5609375,20.9978933 C2.40968746,20.9978933 3.09773525,20.3098455 3.09773525,19.4610955 L3.09773525,18.2102528 C3.09773525,18.1029494 3.13340941,17.9245787 3.13340941,17.7813202 L46.5620611,17.7813202 C46.5904697,17.9825381 46.6023072,18.185749 46.5974544,18.3889045 L46.5974544,45.0894663 C46.6005499,45.4980172 46.439641,45.8907375 46.15077,46.1796614 C45.861899,46.4685852 45.4692081,46.6295658 45.0606566,46.6265449 L4.67048806,46.6265449 C3.82419402,46.6202741 3.13968021,45.9357603 3.13340941,45.0894663 L3.13340941,43.1948034 C3.13340941,42.3459758 2.44529874,41.6578652 1.59647121,41.6578652 C0.747643677,41.6578652 0.0595330056,42.3459758 0.0595330056,43.1948034 L0.0595330056,45.1251404 C0.0570658866,46.3582091 0.545789172,47.5414888 1.41767577,48.4134281 C2.28956237,49.2853674 3.47281251,49.7741622 4.70588132,49.7717784 L45.0963308,49.7717784 C47.6594562,49.7643658 49.7355271,47.6885458 49.7432409,45.1254213 L49.7432409,18.4234551 C49.7432409,16.4571629 49.0637465,13.5622191 48.134533,11.8467697 L48.134533,11.8481742 Z M3.81262289,14.6717697 C3.96250469,14.1285803 4.16603429,13.6016429 4.42020716,13.098736 L8.67329705,5.09311798 C9.20953301,4.09227528 10.7109375,3.1630618 11.8544768,3.1630618 L37.9831285,3.1630618 C39.1269487,3.1630618 40.6283532,4.09227528 41.1643083,5.09311798 L45.4173982,13.2776685 C45.6476107,13.7374607 45.8389159,14.2157236 45.9893083,14.7074438 L3.81262289,14.7074438 L3.81262289,14.6717697 Z" id="形状" fill="#333333"></path>
                <path d="M39.4134656,31.4355337 C39.4192921,31.3270931 39.4072398,31.2184326 39.3777914,31.1139045 C39.3777914,31.0779494 39.3421173,31.0066011 39.3421173,30.9706461 C39.3421173,30.934691 39.3064431,30.8633427 39.3064431,30.8276685 C39.2675549,30.7752669 39.2427923,30.7137471 39.234533,30.6490169 C39.2072523,30.6203596 39.1942625,30.5809778 39.1991397,30.5417135 C39.1381117,30.4498217 39.0660375,30.3657665 38.984533,30.2914326 L33.6227353,25.0015449 C33.2349339,24.603829 32.663176,24.445459 32.1260149,24.5869715 C31.5888538,24.7284841 31.1693373,25.1480005 31.0278248,25.6851616 C30.8863123,26.2223228 31.0446823,26.7940807 31.4423982,27.181882 L34.1232971,29.8625 L24.9732971,29.8625 C24.564648,29.8594026 24.171841,30.0203882 23.8829006,30.3093814 C23.5939602,30.5983747 23.4330463,30.9912111 23.4361724,31.3998596 C23.442493,32.2460605 24.1270939,32.9304111 24.9732971,32.9363764 L34.1232971,32.9363764 L31.4423982,35.6172753 C31.0492772,36.0060306 30.894397,36.5755144 31.0364754,37.1098257 C31.1785538,37.644137 31.5958396,38.0614765 32.1301325,38.2036238 C32.6644255,38.345771 33.2339293,38.1909642 33.6227353,37.7978933 L38.9488588,32.4717697 C39.028919,32.3963086 39.1006757,32.3124983 39.1629038,32.2217697 C39.1988588,32.1858146 39.1988588,32.1501404 39.2342521,32.1144663 C39.273562,32.0623018 39.2983714,32.000666 39.3061622,31.9358146 C39.3345094,31.8937335 39.3471388,31.8430167 39.3418364,31.7925562 C39.3418364,31.7571629 39.3775105,31.6855337 39.3775105,31.6495787 C39.418317,31.5860621 39.4312166,31.5085629 39.4131847,31.4352528 L39.4134656,31.4355337 Z" id="路径" fill="#7371FF"></path>
            </g>
        </g>
    </g>
</svg>