<?xml version="1.0" encoding="UTF-8"?>
<svg width="52px" height="50px" viewBox="0 0 52 50" version="1.1" xmlns="http://www.w3.org/2000/svg" xmlns:xlink="http://www.w3.org/1999/xlink">
    <!-- Generator: Sketch 61 (89581) - https://sketch.com -->
    <title>zhaomuyeicon_huabanfuben</title>
    <desc>Created with Sketch.</desc>
    <g id="页面-1" stroke="none" stroke-width="1" fill="none" fill-rule="evenodd">
        <g id="我的" transform="translate(-615.000000, -1465.000000)" fill-rule="nonzero">
            <g id="zhaomuyeicon_huabanfuben" transform="translate(615.000000, 1465.000000)">
                <path d="M25.8844971,0.0415196789 C11.6128645,0.0565572124 0.0491721646,11.6262348 0.0418004411,25.8978732 L0.0418004411,45.801565 C0.0418004411,48.017796 1.83841059,49.8144061 4.05464152,49.8144061 L12.0000669,49.8144061 C15.2970343,49.8144061 17.9718243,47.1456082 17.9792001,43.848649 L17.9792001,34.8197566 C17.9718243,31.5227974 15.2970343,28.8539912 12.0000669,28.8539995 L4.05464152,28.8539995 L4.05464152,25.8978732 C4.0546417,13.8120273 13.8521557,4.01451342 25.9380016,4.01451342 C38.0238475,4.01451342 47.8213615,13.8120273 47.8213617,25.8978732 L47.8213617,28.8941279 L39.7956795,28.8941279 C36.529132,28.9087763 33.8846992,31.553209 33.8700508,34.8197566 L33.8700508,43.7683922 C33.8700508,47.0631889 36.5410112,49.7341493 39.8358079,49.7341493 L47.8614901,49.7341493 C48.9257617,49.7341493 49.9464436,49.3113691 50.6989973,48.5588154 C51.451551,47.8062617 51.8743312,46.7855798 51.8743312,45.7213082 L51.8743312,25.8577448 C51.8601913,18.9851082 49.1118798,12.4005687 44.2358972,7.55720967 C39.3599145,2.71385065 32.7570737,0.00980354353 25.8844971,0.0415196789 Z M11.9866908,32.8668405 C13.0667306,32.8738708 13.9446357,33.7399123 13.966359,34.8197566 L13.966359,43.7683922 C13.966359,44.2969804 13.7563782,44.8039191 13.3826098,45.1776874 C13.0088415,45.5514557 12.5019028,45.7614366 11.9733146,45.7614366 L4.05464152,45.7614366 L4.05464152,32.8668405 L11.9866908,32.8668405 Z M47.7812333,45.801565 L39.8358079,45.801565 C38.7350799,45.801565 37.8427635,44.9092486 37.8427635,43.8085206 L37.8427635,34.8197566 C37.8427635,33.7190285 38.7350799,32.8267122 39.8358079,32.8267122 L47.7812333,32.8267122 L47.7812333,45.801565 Z" id="形状" fill="#333333"></path>
                <path d="M38.9128545,26.2189005 C39.0878077,22.3552662 37.3958198,18.6428457 34.3649679,16.2403023 L37.3612226,12.2274612 C41.6258704,15.5800146 44.0478284,20.7564535 43.8887774,26.1787721 L38.9128545,26.2189005 Z" id="路径" fill="#7371FF"></path>
            </g>
        </g>
    </g>
</svg>