<?xml version="1.0" encoding="UTF-8"?>
<svg width="30px" height="32px" viewBox="0 0 30 32" version="1.1" xmlns="http://www.w3.org/2000/svg" xmlns:xlink="http://www.w3.org/1999/xlink">
    <!-- Generator: Sketch 61 (89581) - https://sketch.com -->
    <title>形状</title>
    <desc>Created with Sketch.</desc>
    <g id="页面-1" stroke="none" stroke-width="1" fill="none" fill-rule="evenodd">
        <g id="我的" transform="translate(-533.000000, -134.000000)" fill="#FFFFFF" fill-rule="nonzero">
            <path d="M560.631501,144.399885 C559.245308,138.524961 554.173875,134 547.999934,134 C541.655658,134 536.438514,138.398364 535.368411,144.39984 C533.763255,144.710777 533,145.552964 533,146.799848 L533,152.399762 C533,153.798194 534.02846,154.799725 535.368411,154.799725 C536.123973,154.799725 537.29275,154.566107 537.736821,153.999737 C538.81002,156.930949 542.495216,160.535553 543.313245,160.636391 C543.721065,160.686385 543.960055,160.709052 543.686362,160.367608 C543.281592,159.86373 540.735862,157.347339 540.236265,153.818532 C540.015754,152.26537 541.142931,150.74043 542.453572,150.488849 C544.559872,150.084152 546.653794,149.622427 548.76005,149.224808 C550.098453,148.973227 551.012856,148.214676 551.572576,146.951397 C551.703653,146.656094 551.860902,146.060784 551.947285,145.199828 C552.024384,144.771701 552.426855,145.061539 552.443743,145.084206 C552.443743,145.084206 555.448973,146.123276 555.894636,151.599774 C556.16603,154.921528 553.20545,159.360568 552.87243,159.878558 C552.893296,159.846528 552.87632,160.326977 553.156158,160.169157 C555.645655,158.75276 557.555361,156.38644 558.438111,153.540342 C558.795048,154.088794 559.354768,154.484039 560.003965,154.621566 C558.962376,159.517672 554.735143,162.581663 549.497221,163.047285 C549.183432,162.242593 548.410937,161.671519 547.503475,161.671519 C546.317723,161.671519 545.357123,162.641826 545.357123,163.835939 C545.357123,165.031261 546.317723,166 547.503475,166 C548.458682,166 549.258983,165.365627 549.537318,164.49374 C555.599413,163.985964 560.459619,160.262201 561.474198,154.478663 C562.370829,154.091929 563,153.459976 563,152.399806 L563,146.799848 C563,144.742045 560.640741,144.43738 560.631501,144.399885 Z M557.473664,145.99986 C555.892381,141.574931 552.820043,138.799971 547.999934,138.799971 C543.199895,138.799971 539.332737,141.603825 537.736821,145.99986 C537.657423,145.899873 537.038331,145.287361 536.947351,145.199872 C537.850878,139.842894 542.618601,136.400008 547.999934,136.400008 C553.355139,136.400008 557.330209,139.880434 558.26309,145.199872 C557.930866,145.66079 557.473664,145.99986 557.473664,145.99986 Z" id="形状"></path>
        </g>
    </g>
</svg>