<?xml version="1.0" encoding="UTF-8"?>
<svg width="51px" height="50px" viewBox="0 0 51 50" version="1.1" xmlns="http://www.w3.org/2000/svg" xmlns:xlink="http://www.w3.org/1999/xlink">
    <!-- Generator: Sketch 61 (89581) - https://sketch.com -->
    <title>daifahuo</title>
    <desc>Created with Sketch.</desc>
    <g id="页面-1" stroke="none" stroke-width="1" fill="none" fill-rule="evenodd">
        <g id="我的" transform="translate(-220.000000, -1465.000000)" fill-rule="nonzero">
            <g id="daifahuo" transform="translate(220.000000, 1465.000000)">
                <path d="M50.0651042,10.4166667 L50.0651042,47.9166667 C50.0651042,49.0625 49.1276042,50 47.9817708,50 L2.1484375,50 C1.00260417,50 0.0651041667,49.0625 0.0651041667,47.9166667 L0.0651041667,10.4166667 L0.0130208333,10.4166667 L4.59635417,2.29166667 C5.32552083,0.885416667 6.73177083,-9.25185854e-16 8.34635417,-9.25185854e-16 L41.7317708,-9.25185854e-16 C43.2942708,-9.25185854e-16 44.7526042,0.885416667 45.4817708,2.29166667 L50.0651042,10.4166667 Z M26.1067708,4.16666667 L26.1067708,10.4166667 L45.9505208,10.4166667 L43.0338542,5.36458333 C42.7734375,4.73958333 42.2005208,4.27083333 41.5234375,4.16666667 M8.60677083,4.16666667 C7.9296875,4.27083333 7.35677083,4.73958333 7.09635417,5.36458333 L4.1796875,10.4166667 L24.0234375,10.4166667 L24.0234375,4.16666667 M45.8984375,12.5 L4.23177083,12.5 L4.23177083,45.8333333 L45.8984375,45.8333333 L45.8984375,12.5 Z" id="形状" fill="#333333"></path>
                <polygon id="路径" fill="#7371FF" points="41.7317708 41.6666667 25.0651042 41.6666667 25.0651042 37.5 41.7317708 37.5"></polygon>
                <polygon id="路径" fill="#7371FF" points="41.7317708 29.1666667 29.2317708 29.1666667 29.2317708 33.3333333 41.7317708 33.3333333"></polygon>
            </g>
        </g>
    </g>
</svg>