<?xml version="1.0" standalone="no"?><!DOCTYPE svg PUBLIC "-//W3C//DTD SVG 1.1//EN" "http://www.w3.org/Graphics/SVG/1.1/DTD/svg11.dtd"><svg t="1607761795514" class="icon" viewBox="0 0 1024 1024" version="1.1" xmlns="http://www.w3.org/2000/svg" p-id="68379" width="81" height="81" xmlns:xlink="http://www.w3.org/1999/xlink"><defs><style type="text/css"></style></defs><path d="M511.232 299.52c-127.744 0-229.376 101.632-229.376 229.376s101.632 229.376 229.376 229.376c127.744 0 229.376-101.632 229.376-229.376S638.976 299.52 511.232 299.52z m0 409.6c-98.304 0-180.224-81.92-180.224-180.224s81.92-180.224 180.224-180.224c98.304 0 180.224 81.92 180.224 180.224S609.536 709.12 511.232 709.12z m262.144-324.352c0 28.928 23.424 52.48 52.48 52.48 28.928 0 52.48-23.424 52.48-52.48 0-28.928-23.424-52.48-52.48-52.48s-52.48 23.424-52.48 52.48zM871.68 233.984h-98.304L750.464 165.12c-6.528-16.384-26.24-29.44-42.624-29.44H314.624c-19.712 0-36.096 13.056-42.624 29.44l-22.912 68.864h-98.304c-55.68 0-98.304 42.624-98.304 98.304V791.04c0 55.68 45.824 98.304 98.304 98.304H871.68c55.68 0 98.304-42.624 98.304-98.304V332.288c0-55.68-42.624-98.304-98.304-98.304zM920.832 791.04c0 26.24-22.912 49.152-49.152 49.152H150.784c-26.24 0-49.152-22.912-49.152-49.152V332.288c0-26.24 22.912-49.152 49.152-49.152h134.4l9.856-32.768 22.912-65.536h386.688l22.912 65.536 9.856 32.768h134.4c26.24 0 49.152 22.912 49.152 49.152V791.04z m0 0" p-id="68380" fill="#bfbfbf"></path></svg>