<?xml version="1.0" standalone="no"?><!DOCTYPE svg PUBLIC "-//W3C//DTD SVG 1.1//EN" "http://www.w3.org/Graphics/SVG/1.1/DTD/svg11.dtd"><svg t="1607592507690" class="icon" viewBox="0 0 1861 1024" version="1.1" xmlns="http://www.w3.org/2000/svg" p-id="2241" xmlns:xlink="http://www.w3.org/1999/xlink" width="147.2080078125" height="81"><defs><style type="text/css"></style></defs><path d="M269.963636 958.836364c-134.050909 0-242.036364-27.927273-242.036363-55.854546v65.163637c0 27.927273 107.985455 55.854545 242.036363 55.854545s242.036364-27.927273 242.036364-55.854545v-65.163637c0 27.927273-107.985455 55.854545-242.036364 55.854546" fill="#E4AF18" p-id="2242"></path><path d="M242.036364 856.436364c-134.050909 0-242.036364-27.927273-242.036364-55.854546v65.163637c0 27.927273 107.985455 55.854545 242.036364 55.854545s242.036364-27.927273 242.036363-55.854545v-65.163637c0 27.927273-107.985455 55.854545-242.036363 55.854546" fill="#F4BF1A" p-id="2243"></path><path d="M297.890909 754.036364c-134.050909 0-242.036364-27.927273-242.036364-55.854546v65.163637c0 27.927273 107.985455 55.854545 242.036364 55.854545s242.036364-27.927273 242.036364-55.854545v-65.163637c0 27.927273-107.985455 55.854545-242.036364 55.854546" fill="#E4AF18" p-id="2244"></path><path d="M484.072727 587.403636c0 27.927273-107.985455 54.923636-242.036363 54.923637s-242.036364-26.065455-242.036364-54.923637c0-27.927273 107.985455-47.476364 242.036364-47.476363s242.036364 19.549091 242.036363 47.476363" fill="#FFD949" p-id="2245"></path><path d="M242.036364 642.327273c-134.050909 0-242.036364-27.927273-242.036364-55.854546v65.163637c0 27.927273 107.985455 55.854545 242.036364 55.854545s242.036364-27.927273 242.036363-55.854545v-65.163637c0 27.927273-107.985455 55.854545-242.036363 55.854546" fill="#F4BF1A" p-id="2246"></path><path d="M37.236364 615.330909v65.163636c5.585455 1.861818 12.101818 3.723636 18.618181 5.585455v-65.163636c-6.516364-1.861818-13.032727-3.723636-18.618181-5.585455M428.218182 620.916364v65.163636c6.516364-1.861818 13.032727-3.723636 18.618182-5.585455v-65.163636c-5.585455 1.861818-12.101818 3.723636-18.618182 5.585455M83.781818 627.432727v65.163637c5.585455 0.930909 12.101818 2.792727 18.618182 3.723636v-65.163636c-6.516364-0.930909-13.032727-1.861818-18.618182-3.723637M381.672727 631.156364v65.163636c6.516364-0.930909 13.032727-1.861818 18.618182-3.723636v-65.163637c-5.585455 1.861818-12.101818 2.792727-18.618182 3.723637M130.327273 635.810909v65.163636c6.516364 0.930909 12.101818 1.861818 18.618182 1.861819v-65.163637c-6.516364-0.930909-12.101818-0.930909-18.618182-1.861818M335.127273 637.672727v65.163637c6.516364-0.930909 12.101818-0.930909 18.618182-1.861819v-65.163636c-6.516364 0.930909-12.101818 0.930909-18.618182 1.861818M176.872727 640.465455v65.163636c6.516364 0 12.101818 0.930909 18.618182 0.930909v-65.163636c-6.516364-0.930909-12.101818-0.930909-18.618182-0.930909M288.581818 641.396364v65.163636c6.516364 0 12.101818-0.930909 18.618182-0.930909v-65.163636c-6.516364 0-12.101818 0-18.618182 0.930909M242.036364 642.327273h-9.309091v65.163636h18.618182v-65.163636h-9.309091" fill="#DCA815" p-id="2247"></path><path d="M93.090909 727.04v65.163636c5.585455 1.861818 12.101818 3.723636 18.618182 5.585455v-65.163636c-6.516364-1.861818-13.032727-3.723636-18.618182-5.585455M484.072727 732.625455v65.163636c6.516364-1.861818 13.032727-3.723636 18.618182-5.585455v-65.163636c-5.585455 1.861818-12.101818 3.723636-18.618182 5.585455M139.636364 739.141818v65.163637c5.585455 0.930909 12.101818 2.792727 18.618181 3.723636v-65.163636c-6.516364-0.930909-13.032727-1.861818-18.618181-3.723637M437.527273 742.865455v65.163636c6.516364-0.930909 13.032727-1.861818 18.618182-3.723636v-65.163637c-5.585455 1.861818-12.101818 2.792727-18.618182 3.723637M186.181818 747.52v65.163636c6.516364 0.930909 12.101818 1.861818 18.618182 1.861819v-65.163637c-6.516364-0.930909-12.101818-0.930909-18.618182-1.861818M390.981818 749.381818v65.163637c6.516364-0.930909 12.101818-0.930909 18.618182-1.861819v-65.163636c-6.516364 0.930909-12.101818 0.930909-18.618182 1.861818M232.727273 752.174545v65.163637c6.516364 0 12.101818 0.930909 18.618182 0.930909v-65.163636c-6.516364-0.930909-12.101818-0.930909-18.618182-0.93091M344.436364 753.105455v65.163636c6.516364 0 12.101818-0.930909 18.618181-0.930909v-65.163637c-6.516364 0-12.101818 0-18.618181 0.93091M297.890909 754.036364h-9.309091v65.163636h18.618182v-65.163636h-9.309091" fill="#C49214" p-id="2248"></path><path d="M37.236364 829.44v65.163636c5.585455 1.861818 12.101818 3.723636 18.618181 5.585455v-65.163636c-6.516364-1.861818-13.032727-3.723636-18.618181-5.585455M428.218182 835.025455v65.163636c6.516364-1.861818 13.032727-3.723636 18.618182-5.585455v-65.163636c-5.585455 1.861818-12.101818 3.723636-18.618182 5.585455M83.781818 841.541818v65.163637c5.585455 0.930909 12.101818 2.792727 18.618182 3.723636v-65.163636c-6.516364-0.930909-13.032727-1.861818-18.618182-3.723637M381.672727 845.265455v65.163636c6.516364-0.930909 13.032727-1.861818 18.618182-3.723636v-65.163637c-5.585455 1.861818-12.101818 2.792727-18.618182 3.723637M130.327273 849.92v65.163636c6.516364 0.930909 12.101818 1.861818 18.618182 1.861819v-65.163637c-6.516364-0.930909-12.101818-0.930909-18.618182-1.861818M335.127273 851.781818v65.163637c6.516364-0.930909 12.101818-0.930909 18.618182-1.861819v-65.163636c-6.516364 0.930909-12.101818 0.930909-18.618182 1.861818M176.872727 854.574545v65.163637c6.516364 0 12.101818 0.930909 18.618182 0.930909v-65.163636c-6.516364-0.930909-12.101818-0.930909-18.618182-0.93091M288.581818 855.505455v65.163636c6.516364 0 12.101818-0.930909 18.618182-0.930909v-65.163637c-6.516364 0-12.101818 0-18.618182 0.93091M242.036364 856.436364h-9.309091v65.163636h18.618182v-65.163636h-9.309091" fill="#DCA815" p-id="2249"></path><path d="M65.163636 931.84v65.163636c5.585455 1.861818 12.101818 3.723636 18.618182 5.585455v-65.163636c-6.516364-1.861818-13.032727-3.723636-18.618182-5.585455M456.145455 937.425455v65.163636c6.516364-1.861818 13.032727-3.723636 18.618181-5.585455v-65.163636c-5.585455 1.861818-12.101818 3.723636-18.618181 5.585455M111.709091 943.941818v65.163637c5.585455 0.930909 12.101818 2.792727 18.618182 3.723636v-65.163636c-6.516364-0.930909-13.032727-1.861818-18.618182-3.723637M409.6 947.665455v65.163636c6.516364-0.930909 13.032727-1.861818 18.618182-3.723636v-65.163637c-5.585455 1.861818-12.101818 2.792727-18.618182 3.723637M158.254545 952.32v65.163636c6.516364 0.930909 12.101818 1.861818 18.618182 1.861819v-65.163637c-6.516364-0.930909-12.101818-0.930909-18.618182-1.861818M363.054545 954.181818v65.163637c6.516364-0.930909 12.101818-0.930909 18.618182-1.861819v-65.163636c-6.516364 0.930909-12.101818 0.930909-18.618182 1.861818M204.8 956.974545v65.163637c6.516364 0 12.101818 0.930909 18.618182 0.930909v-65.163636c-6.516364-0.930909-12.101818-0.930909-18.618182-0.93091M316.509091 957.905455v65.163636c6.516364 0 12.101818-0.930909 18.618182-0.930909v-65.163637c-6.516364 0-12.101818 0-18.618182 0.93091M269.963636 958.836364h-9.309091v65.163636h18.618182v-65.163636h-9.309091" fill="#C49214" p-id="2250"></path><path d="M476.625455 878.778182c-26.065455 23.272727-121.018182 42.821818-234.589091 42.821818-88.436364 0-165.701818-12.101818-208.523637-28.858182-3.723636 3.723636-5.585455 7.447273-5.585454 11.170909 0 27.927273 107.985455 54.923636 242.036363 54.923637s242.036364-26.065455 242.036364-54.923637c0-9.309091-13.032727-18.618182-35.374545-25.134545" fill="#FCC62D" p-id="2251"></path><path d="M297.890909 819.2c-122.88 0-224.349091-23.272727-240.174545-49.338182-36.305455 8.378182-57.716364 18.618182-57.716364 31.650909 0 27.927273 107.985455 54.923636 242.036364 54.923637s242.036364-26.065455 242.036363-54.923637c0-0.930909 0-2.792727-0.930909-3.723636-43.752727 13.032727-110.778182 21.410909-185.250909 21.410909" fill="#FFD949" p-id="2252"></path><path d="M474.763636 665.6c-28.858182 22.341818-121.949091 41.890909-232.727272 41.890909-71.68 0-135.912727-7.447273-179.665455-19.549091-3.723636 3.723636-6.516364 7.447273-6.516364 11.170909 0 27.927273 107.985455 54.923636 242.036364 54.923637s242.036364-26.065455 242.036364-54.923637c0-13.032727-25.134545-25.134545-65.163637-33.512727" fill="#FCC62D" p-id="2253"></path><path d="M1398.225455 0H463.592727c-29.789091 0-53.992727 24.203636-53.992727 53.992727 0 29.789091 24.203636 53.992727 53.992727 53.992728v-53.992728h934.632728v53.992728c29.789091 0 53.992727-24.203636 53.992727-53.992728 0-29.789091-24.203636-53.992727-53.992727-53.992727z m0 0" fill="#804D4D" p-id="2254"></path><path d="M499.898182 916.014545l107.985454 107.985455 107.985455-107.985455 107.985454 107.985455 107.985455-107.985455 107.985455 107.985455 107.985454-107.985455 107.985455 107.985455 107.985454-107.985455 36.305455 36.305455v-898.327273H463.592727v898.327273l36.305455-36.305455z m0 0" fill="#FCFBF5" p-id="2255"></path><path d="M1182.254545 736.349091h-269.032727c-10.24 0-17.687273-8.378182-17.687273-17.687273 0-10.24 8.378182-17.687273 17.687273-17.687273H1182.254545c10.24 0 17.687273 8.378182 17.687273 17.687273 0 10.24-7.447273 17.687273-17.687273 17.687273z m0 0M1272.552727 736.349091c-4.654545 0-9.309091-1.861818-13.032727-5.585455-2.792727-3.723636-5.585455-8.378182-5.585455-13.032727 0-4.654545 1.861818-9.309091 5.585455-13.032727 6.516364-6.516364 18.618182-6.516364 25.134545 0 2.792727 3.723636 5.585455 7.447273 5.585455 13.032727 0 4.654545-1.861818 9.309091-5.585455 13.032727-2.792727 3.723636-7.447273 5.585455-12.101818 5.585455z m0 0M1272.552727 485.003636h-269.032727c-10.24 0-17.687273-8.378182-17.687273-17.687272 0-10.24 8.378182-17.687273 17.687273-17.687273h269.032727c10.24 0 17.687273 8.378182 17.687273 17.687273 0 9.309091-8.378182 17.687273-17.687273 17.687272z m0 0M1272.552727 610.676364h-179.665454c-10.24 0-17.687273-8.378182-17.687273-17.687273 0-10.24 8.378182-17.687273 17.687273-17.687273h179.665454c10.24 0 17.687273 8.378182 17.687273 17.687273 0 10.24-8.378182 17.687273-17.687273 17.687273z m0 0M948.596364 610.676364H912.290909c-10.24 0-17.687273-8.378182-17.687273-17.687273 0-10.24 8.378182-17.687273 17.687273-17.687273h36.305455c10.24 0 17.687273 8.378182 17.687272 17.687273 0.930909 10.24-7.447273 17.687273-17.687272 17.687273z m0 0M1182.254545 359.330909h-269.032727c-10.24 0-17.687273-8.378182-17.687273-17.687273 0-10.24 8.378182-17.687273 17.687273-17.687272H1182.254545c10.24 0 17.687273 8.378182 17.687273 17.687272 0 9.309091-7.447273 17.687273-17.687273 17.687273z m0 0M1272.552727 359.330909c-4.654545 0-9.309091-1.861818-13.032727-5.585454-2.792727-3.723636-5.585455-8.378182-5.585455-13.032728 0-4.654545 1.861818-9.309091 5.585455-13.032727 6.516364-6.516364 18.618182-6.516364 25.134545 0 2.792727 3.723636 5.585455 8.378182 5.585455 13.032727 0 4.654545-1.861818 9.309091-5.585455 13.032728-2.792727 3.723636-7.447273 5.585455-12.101818 5.585454z m0 0M930.909091 485.003636c-4.654545 0-9.309091-1.861818-13.032727-5.585454-2.792727-3.723636-5.585455-7.447273-5.585455-13.032727 0-4.654545 1.861818-9.309091 5.585455-13.032728 6.516364-6.516364 18.618182-6.516364 25.134545 0 2.792727 3.723636 5.585455 7.447273 5.585455 13.032728 0 4.654545-1.861818 9.309091-5.585455 13.032727-2.792727 3.723636-7.447273 5.585455-12.101818 5.585454z m0 0M1020.276364 610.676364c-4.654545 0-9.309091-1.861818-13.032728-5.585455-2.792727-3.723636-5.585455-8.378182-5.585454-13.032727 0-4.654545 1.861818-9.309091 5.585454-13.032727 6.516364-6.516364 18.618182-6.516364 25.134546 0 2.792727 2.792727 5.585455 7.447273 5.585454 13.032727 0 4.654545-1.861818 9.309091-5.585454 13.032727-1.861818 3.723636-7.447273 5.585455-12.101818 5.585455z m0 0" fill="#CCCCCC" p-id="2256"></path><path d="M517.585455 197.352727c-4.654545 0-9.309091-1.861818-13.032728-5.585454-2.792727-3.723636-5.585455-8.378182-5.585454-13.032728 0-4.654545 1.861818-9.309091 5.585454-13.032727 6.516364-6.516364 18.618182-6.516364 25.134546 0 2.792727 3.723636 5.585455 8.378182 5.585454 13.032727 0 4.654545-1.861818 9.309091-5.585454 13.032728-2.792727 3.723636-7.447273 5.585455-12.101818 5.585454z m0 0M1257.658182 179.665455c0-10.24 8.378182-17.687273 17.687273-17.687273 10.24 0 17.687273 8.378182 17.687272 17.687273 0 10.24-8.378182 17.687273-17.687272 17.687272-10.24 0-17.687273-7.447273-17.687273-17.687272z m-68.887273 0c0-10.24 8.378182-17.687273 17.687273-17.687273 10.24 0 17.687273 8.378182 17.687273 17.687273 0 10.24-8.378182 17.687273-17.687273 17.687272-10.24 0-17.687273-7.447273-17.687273-17.687272z m-68.887273 0c0-10.24 8.378182-17.687273 17.687273-17.687273 10.24 0 17.687273 8.378182 17.687273 17.687273 0 10.24-8.378182 17.687273-17.687273 17.687272-10.24 0-17.687273-7.447273-17.687273-17.687272z m-68.887272 0c0-10.24 7.447273-17.687273 17.687272-17.687273 10.24 0 17.687273 8.378182 17.687273 17.687273 0 10.24-8.378182 17.687273-17.687273 17.687272-10.24 0-17.687273-7.447273-17.687272-17.687272z m-68.887273 0c0-10.24 8.378182-17.687273 17.687273-17.687273 10.24 0 17.687273 8.378182 17.687272 17.687273 0 10.24-7.447273 17.687273-17.687272 17.687272-10.24 0-17.687273-7.447273-17.687273-17.687272z m-68.887273 0c0-10.24 8.378182-17.687273 17.687273-17.687273 10.24 0 17.687273 8.378182 17.687273 17.687273 0 10.24-8.378182 17.687273-17.687273 17.687272-10.24 0-17.687273-7.447273-17.687273-17.687272z m-68.887273 0c0-10.24 7.447273-17.687273 17.687273-17.687273 10.24 0 17.687273 8.378182 17.687273 17.687273 0 10.24-8.378182 17.687273-17.687273 17.687272-10.24 0-17.687273-7.447273-17.687273-17.687272z m-68.887272 0c0-10.24 8.378182-17.687273 17.687272-17.687273 10.24 0 17.687273 8.378182 17.687273 17.687273 0 10.24-7.447273 17.687273-17.687273 17.687272-10.24 0-17.687273-7.447273-17.687272-17.687272z m-68.887273 0c0-10.24 8.378182-17.687273 17.687273-17.687273 10.24 0 17.687273 8.378182 17.687272 17.687273 0 10.24-8.378182 17.687273-17.687272 17.687272-10.24 0-17.687273-7.447273-17.687273-17.687272z m-68.887273 0c0-10.24 7.447273-17.687273 17.687273-17.687273 10.24 0 17.687273 8.378182 17.687273 17.687273 0 10.24-8.378182 17.687273-17.687273 17.687272-10.24 0-17.687273-7.447273-17.687273-17.687272z m-68.887272 0c0-10.24 8.378182-17.687273 17.687272-17.687273 10.24 0 17.687273 8.378182 17.687273 17.687273 0 10.24-7.447273 17.687273-17.687273 17.687272-9.309091 0-17.687273-7.447273-17.687272-17.687272z m0 0M1344.232727 197.352727c-4.654545 0-9.309091-1.861818-13.032727-5.585454-2.792727-2.792727-5.585455-7.447273-5.585455-12.101818s1.861818-9.309091 5.585455-13.032728c6.516364-6.516364 18.618182-6.516364 25.134545 0 2.792727 3.723636 5.585455 8.378182 5.585455 13.032728 0 4.654545-1.861818 9.309091-5.585455 13.032727-2.792727 2.792727-7.447273 4.654545-12.101818 4.654545z m0 0" fill="#999999" p-id="2257"></path><path d="M659.083636 586.472727v-32.581818H595.781818c-13.032727 0-20.48-4.654545-20.48-14.894545 0-9.309091 6.516364-14.894545 20.48-16.756364h43.752727l-74.472727-114.501818c-0.930909 0-2.792727-0.930909-3.723636-3.723637-2.792727-3.723636-3.723636-8.378182-3.723637-14.894545 0-8.378182 5.585455-13.963636 16.756364-16.756364 8.378182 0.930909 15.825455 5.585455 21.410909 13.032728l83.781818 125.672727 83.781819-125.672727c4.654545-7.447273 12.101818-11.170909 21.410909-13.032728 9.309091 2.792727 14.894545 7.447273 16.756363 16.756364 0 3.723636-1.861818 8.378182-5.585454 14.894545-0.930909 0.930909-1.861818 2.792727-1.861818 3.723637l-74.472728 114.501818h43.752728c12.101818 0.930909 18.618182 6.516364 20.48 16.756364-0.930909 9.309091-7.447273 14.894545-20.48 14.894545h-63.301819v32.581818h63.301819c12.101818 0.930909 18.618182 6.516364 20.48 16.756364-0.930909 9.309091-7.447273 14.894545-20.48 14.894545h-63.301819v72.610909c-0.930909 12.101818-7.447273 18.618182-20.48 18.618182-13.032727 0-20.48-6.516364-20.48-18.618182v-72.610909H595.781818c-13.032727 0-20.48-4.654545-20.48-14.894545 0-9.309091 6.516364-14.894545 20.48-16.756364h63.301818z" fill="#FA8564" p-id="2258"></path><path d="M1526.690909 688.872727m-335.127273 0a335.127273 335.127273 0 1 0 670.254546 0 335.127273 335.127273 0 1 0-670.254546 0Z" fill="#646B79" p-id="2259"></path><path d="M1526.690909 688.872727m-274.618182 0a274.618182 274.618182 0 1 0 549.236364 0 274.618182 274.618182 0 1 0-549.236364 0Z" fill="#FCFCFD" p-id="2260"></path><path d="M1526.690909 713.076364c-13.032727 0-24.203636-11.170909-24.203636-24.203637v-183.389091c0-13.032727 11.170909-24.203636 24.203636-24.203636 13.032727 0 24.203636 11.170909 24.203636 24.203636V688.872727c0 13.032727-11.170909 24.203636-24.203636 24.203637z" fill="#4F5565" p-id="2261"></path><path d="M1550.894545 687.010909v3.723636c0 12.101818-10.24 22.341818-22.341818 22.341819h-151.738182c-12.101818 0-22.341818-10.24-22.341818-22.341819v-3.723636c0-12.101818 10.24-22.341818 22.341818-22.341818h151.738182c12.101818 0 22.341818 10.24 22.341818 22.341818z" fill="#4F5565" p-id="2262"></path><path d="M1515.52 428.218182h21.410909v29.789091h-21.410909zM1515.52 919.738182h21.410909v29.789091h-21.410909zM1757.556364 677.701818h29.789091v21.410909h-29.789091zM1266.036364 677.701818h29.789091v21.410909H1266.036364z" fill="#646B79" p-id="2263"></path><path d="M1526.690909 688.872727m-53.992727 0a53.992727 53.992727 0 1 0 107.985454 0 53.992727 53.992727 0 1 0-107.985454 0Z" fill="#646B79" p-id="2264"></path><path d="M1526.690909 688.872727m-24.203636 0a24.203636 24.203636 0 1 0 48.407272 0 24.203636 24.203636 0 1 0-48.407272 0Z" fill="#F0582F" p-id="2265"></path></svg>