<?xml version="1.0" standalone="no"?><!DOCTYPE svg PUBLIC "-//W3C//DTD SVG 1.1//EN" "http://www.w3.org/Graphics/SVG/1.1/DTD/svg11.dtd"><svg t="1607592525802" class="icon" viewBox="0 0 1863 1024" version="1.1" xmlns="http://www.w3.org/2000/svg" p-id="2405" xmlns:xlink="http://www.w3.org/1999/xlink" width="147.3662109375" height="81"><defs><style type="text/css"></style></defs><path d="M1705.425455 554.821818h-215.04v-195.490909H1666.327273z" fill="#64C4FA" p-id="2406"></path><path d="M692.596364 887.156364h1130.123636c11.170909 0 19.549091-8.378182 19.549091-19.549091v-136.843637H673.047273v136.843637c0 11.170909 8.378182 19.549091 19.549091 19.549091z" fill="#676A7D" p-id="2407"></path><path d="M1490.385455 730.763636v-312.785454h-78.196364v312.785454h-739.141818v78.196364h1169.221818v-78.196364z" fill="#4F505E" p-id="2408"></path><path d="M673.047273 242.036364h739.141818c11.170909 0 19.549091 8.378182 19.549091 19.549091v469.178181c0 11.170909-8.378182 19.549091-19.549091 19.549091h-739.141818c-11.170909 0-19.549091-8.378182-19.549091-19.549091v-469.178181c0-11.170909 8.378182-19.549091 19.549091-19.549091zM1814.341818 565.992727L1722.181818 539.927273l-27.927273-155.461818c-6.516364-37.236364-39.098182-64.232727-77.265454-64.232728h-126.603636c-11.170909 0-19.549091 8.378182-19.549091 19.549091v351.883637h371.432727v-87.505455c0-17.687273-11.170909-33.512727-27.927273-38.167273z m-265.309091-30.72c-21.410909 0-39.098182-17.687273-39.098182-39.098182v-97.745454c0-11.170909 8.378182-19.549091 19.549091-19.549091h107.985455c9.309091 0 17.687273 6.516364 19.549091 15.825455l23.272727 126.603636c0.930909 7.447273-3.723636 13.032727-11.170909 13.032727h-120.087273z" fill="#FFD782" p-id="2409"></path><path d="M1646.778182 906.705455m-117.294546 0a117.294545 117.294545 0 1 0 234.589091 0 117.294545 117.294545 0 1 0-234.589091 0Z" fill="#3D3D4A" p-id="2410"></path><path d="M1646.778182 906.705455m-78.196364 0a78.196364 78.196364 0 1 0 156.392727 0 78.196364 78.196364 0 1 0-156.392727 0Z" fill="#C7CFE2" p-id="2411"></path><path d="M1646.778182 906.705455m-29.789091 0a29.789091 29.789091 0 1 0 59.578182 0 29.789091 29.789091 0 1 0-59.578182 0Z" fill="#AFB9D2" p-id="2412"></path><path d="M904.843636 906.705455m-117.294545 0a117.294545 117.294545 0 1 0 234.589091 0 117.294545 117.294545 0 1 0-234.589091 0Z" fill="#3D3D4A" p-id="2413"></path><path d="M904.843636 906.705455m-78.196363 0a78.196364 78.196364 0 1 0 156.392727 0 78.196364 78.196364 0 1 0-156.392727 0Z" fill="#C7CFE2" p-id="2414"></path><path d="M904.843636 906.705455m-29.789091 0a29.789091 29.789091 0 1 0 59.578182 0 29.789091 29.789091 0 1 0-59.578182 0Z" fill="#AFB9D2" p-id="2415"></path><path d="M1490.385455 867.607273h7.447272c7.447273 0 13.963636-3.723636 17.687273-11.170909l42.821818-84.712728c6.516364-13.032727 20.48-21.410909 35.374546-21.410909h107.985454c14.894545 0 27.927273 8.378182 35.374546 21.410909l42.821818 84.712728c3.723636 6.516364 10.24 11.170909 17.687273 11.170909h46.545454c11.170909 0 19.549091-8.378182 19.549091-19.549091v-136.843637c0-21.410909-17.687273-39.098182-39.098182-39.098181h-353.745454v175.941818c0 11.170909 8.378182 19.549091 19.549091 19.549091z" fill="#FFC36E" p-id="2416"></path><path d="M1412.189091 926.254545h-195.490909c-11.170909 0-19.549091-8.378182-19.549091-19.54909V828.509091c0-11.170909 8.378182-19.549091 19.549091-19.549091h195.490909c11.170909 0 19.549091 8.378182 19.549091 19.549091v78.196364c0 11.170909-8.378182 19.549091-19.549091 19.54909z" fill="#AFB9D2" p-id="2417"></path><path d="M1275.345455 848.058182c-11.170909 0-19.549091 8.378182-19.549091 19.549091v58.647272h39.098181v-58.647272c0-11.170909-8.378182-19.549091-19.54909-19.549091zM1353.541818 848.058182c-11.170909 0-19.549091 8.378182-19.549091 19.549091v58.647272h39.098182v-58.647272c0-11.170909-8.378182-19.549091-19.549091-19.549091z" fill="#959CB3" p-id="2418"></path><path d="M1373.090909 711.214545h-605.090909c-11.170909 0-19.549091-8.378182-19.549091-19.54909 0-11.170909 8.378182-19.549091 19.549091-19.549091h605.090909c11.170909 0 19.549091 8.378182 19.549091 19.549091 0 11.170909-8.378182 19.549091-19.549091 19.54909z" fill="#FFC36E" p-id="2419"></path><path d="M671.185455 1024h-600.436364c-39.098182 0-70.749091-31.650909-70.749091-70.749091v-811.752727c0-39.098182 31.650909-70.749091 70.749091-70.749091h600.436364c39.098182 0 70.749091 31.650909 70.74909 70.749091v811.752727c0 39.098182-31.650909 70.749091-70.74909 70.749091z" fill="#DBBD99" p-id="2420"></path><path d="M671.185455 970.938182h-600.436364c-9.309091 0-17.687273-7.447273-17.687273-17.687273v-811.752727c0-9.309091 7.447273-17.687273 17.687273-17.687273h600.436364c9.309091 0 17.687273 7.447273 17.687272 17.687273v811.752727c0 10.24-8.378182 17.687273-17.687272 17.687273z" fill="#EFF2FA" p-id="2421"></path><path d="M476.625455 70.749091h-53.061819v-17.687273c0-28.858182-23.272727-53.061818-53.061818-53.061818s-53.061818 23.272727-53.061818 53.061818v17.687273h-53.061818c-19.549091 0-35.374545 15.825455-35.374546 35.374545v35.374546H512v-35.374546c0-19.549091-15.825455-35.374545-35.374545-35.374545z m-106.123637 0c-9.309091 0-17.687273-7.447273-17.687273-17.687273s7.447273-17.687273 17.687273-17.687273 17.687273 7.447273 17.687273 17.687273-7.447273 17.687273-17.687273 17.687273z" fill="#DCE3F2" p-id="2422"></path><path d="M512 159.185455h-282.065455c-9.309091 0-17.687273-7.447273-17.687272-17.687273 0-9.309091 7.447273-17.687273 17.687272-17.687273H512c9.309091 0 17.687273 7.447273 17.687273 17.687273 0 9.309091-8.378182 17.687273-17.687273 17.687273z" fill="#BEC9E6" p-id="2423"></path><path d="M494.312727 335.127273h-141.498182c-9.309091 0-17.687273-7.447273-17.687272-17.687273 0-9.309091 7.447273-17.687273 17.687272-17.687273h141.498182c9.309091 0 17.687273 7.447273 17.687273 17.687273 0 10.24-7.447273 17.687273-17.687273 17.687273z" fill="#AFB9D2" p-id="2424"></path><path d="M582.749091 405.876364h-229.934546c-9.309091 0-17.687273-7.447273-17.687272-17.687273 0-9.309091 7.447273-17.687273 17.687272-17.687273h229.934546c9.309091 0 17.687273 7.447273 17.687273 17.687273 0 10.24-8.378182 17.687273-17.687273 17.687273z" fill="#C7CFE2" p-id="2425"></path><path d="M494.312727 759.621818h-141.498182c-9.309091 0-17.687273-7.447273-17.687272-17.687273 0-9.309091 7.447273-17.687273 17.687272-17.687272h141.498182c9.309091 0 17.687273 7.447273 17.687273 17.687272 0 9.309091-7.447273 17.687273-17.687273 17.687273z" fill="#AFB9D2" p-id="2426"></path><path d="M582.749091 829.44h-229.934546c-9.309091 0-17.687273-7.447273-17.687272-17.687273 0-9.309091 7.447273-17.687273 17.687272-17.687272h229.934546c9.309091 0 17.687273 7.447273 17.687273 17.687272 0 10.24-8.378182 17.687273-17.687273 17.687273z" fill="#C7CFE2" p-id="2427"></path><path d="M494.312727 547.374545h-141.498182c-9.309091 0-17.687273-7.447273-17.687272-17.687272 0-9.309091 7.447273-17.687273 17.687272-17.687273h141.498182c9.309091 0 17.687273 7.447273 17.687273 17.687273 0 9.309091-7.447273 17.687273-17.687273 17.687272z" fill="#AFB9D2" p-id="2428"></path><path d="M582.749091 618.123636h-229.934546c-9.309091 0-17.687273-7.447273-17.687272-17.687272 0-9.309091 7.447273-17.687273 17.687272-17.687273h229.934546c9.309091 0 17.687273 7.447273 17.687273 17.687273 0 9.309091-8.378182 17.687273-17.687273 17.687272z" fill="#C7CFE2" p-id="2429"></path><path d="M251.345455 311.854545v74.472728h-74.472728v-74.472728h74.472728m9.30909-27.927272h-93.090909c-10.24 0-18.618182 8.378182-18.618181 18.618182v93.090909c0 10.24 8.378182 18.618182 18.618181 18.618181h93.090909c10.24 0 18.618182-8.378182 18.618182-18.618181v-93.090909c0-10.24-8.378182-18.618182-18.618182-18.618182zM251.345455 521.309091v74.472727h-74.472728v-74.472727h74.472728m9.30909-27.927273h-93.090909c-10.24 0-18.618182 8.378182-18.618181 18.618182v93.090909c0 10.24 8.378182 18.618182 18.618181 18.618182h93.090909c10.24 0 18.618182-8.378182 18.618182-18.618182v-93.090909c0-10.24-8.378182-18.618182-18.618182-18.618182zM251.345455 735.418182v74.472727h-74.472728v-74.472727h74.472728m9.30909-27.927273h-93.090909c-10.24 0-18.618182 8.378182-18.618181 18.618182v93.090909c0 10.24 8.378182 18.618182 18.618181 18.618182h93.090909c10.24 0 18.618182-8.378182 18.618182-18.618182v-93.090909c0-10.24-8.378182-18.618182-18.618182-18.618182z" fill="#80BFFF" p-id="2430"></path></svg>