<?xml version="1.0" standalone="no"?><!DOCTYPE svg PUBLIC "-//W3C//DTD SVG 1.1//EN" "http://www.w3.org/Graphics/SVG/1.1/DTD/svg11.dtd"><svg t="1607592596295" class="icon" viewBox="0 0 1861 1024" version="1.1" xmlns="http://www.w3.org/2000/svg" p-id="3411" xmlns:xlink="http://www.w3.org/1999/xlink" width="147.2080078125" height="81"><defs><style type="text/css"></style></defs><path d="M485.003636 845.265455v-359.33091c0-9.309091-7.447273-16.756364-16.756363-16.756363h-451.490909c-9.309091 0-16.756364 7.447273-16.756364 16.756363v359.33091c0 9.309091 7.447273 16.756364 16.756364 16.756363h451.490909c8.378182-0.930909 16.756364-8.378182 16.756363-16.756363z" fill="#FFD685" p-id="3412"></path><path d="M0 485.003636v-2.792727 3.723636-0.930909zM485.003636 485.003636V482.210909v2.792727z" fill="#FFD05B" p-id="3413"></path><path d="M186.181818 469.178182h111.709091v54.923636h-111.709091z" fill="#7F9BD6" p-id="3414"></path><path d="M237.381818 469.178182h10.24v54.923636h-10.24z" fill="#6A82B3" p-id="3415"></path><path d="M143.36 716.8h-79.127273c-8.378182 0-14.894545 6.516364-14.894545 14.894545v79.127273c0 8.378182 6.516364 14.894545 14.894545 14.894546h79.127273c8.378182 0 14.894545-6.516364 14.894545-14.894546v-79.127273c-0.930909-7.447273-7.447273-14.894545-14.894545-14.894545z m6.516364 94.021818c0 3.723636-2.792727 6.516364-6.516364 6.516364h-79.127273c-3.723636 0-6.516364-2.792727-6.516363-6.516364v-79.127273c0-3.723636 2.792727-6.516364 6.516363-6.516363h79.127273c3.723636 0 6.516364 2.792727 6.516364 6.516363v79.127273z" fill="#F5C270" p-id="3416"></path><path d="M87.505455 746.589091l-0.93091-0.930909c-0.930909 0-0.930909-0.930909-1.861818-0.930909s-0.930909 0-1.861818 0.930909c-0.930909 0-0.930909 0.930909-0.930909 0.930909l-13.032727 13.032727c-1.861818 1.861818-1.861818 3.723636 0 5.585455 1.861818 1.861818 3.723636 1.861818 5.585454 0l6.516364-6.516364v34.443636c0 1.861818 1.861818 3.723636 3.723636 3.723637s3.723636-1.861818 3.723637-3.723637v-34.443636l6.516363 6.516364c0.930909 0.930909 1.861818 0.930909 2.792728 0.930909 0.930909 0 1.861818-0.930909 2.792727-0.930909 1.861818-1.861818 1.861818-3.723636 0-5.585455l-13.032727-13.032727zM125.672727 746.589091c-0.930909-0.930909-1.861818-0.930909-2.792727-0.930909s-1.861818 0.930909-2.792727 0.930909l-13.032728 13.032727c-1.861818 1.861818-1.861818 3.723636 0 5.585455 1.861818 1.861818 3.723636 1.861818 5.585455 0l6.516364-6.516364v34.443636c0 1.861818 1.861818 3.723636 3.723636 3.723637s3.723636-1.861818 3.723636-3.723637v-34.443636l6.516364 6.516364c0.930909 0.930909 1.861818 0.930909 2.792727 0.930909 0.930909 0 1.861818-0.930909 2.792728-0.930909 1.861818-1.861818 1.861818-3.723636 0-5.585455l-13.032728-13.032727zM282.065455 716.8h-79.127273c-8.378182 0-14.894545 6.516364-14.894546 14.894545v79.127273c0 8.378182 6.516364 14.894545 14.894546 14.894546h79.127273c8.378182 0 14.894545-6.516364 14.894545-14.894546v-79.127273c-0.930909-7.447273-7.447273-14.894545-14.894545-14.894545z m6.516363 94.021818c0 3.723636-2.792727 6.516364-6.516363 6.516364h-79.127273c-3.723636 0-6.516364-2.792727-6.516364-6.516364v-79.127273c0-3.723636 2.792727-6.516364 6.516364-6.516363h79.127273c3.723636 0 6.516364 2.792727 6.516363 6.516363v79.127273z" fill="#F5C270" p-id="3417"></path><path d="M259.723636 739.141818h-34.443636c-1.861818 0-3.723636 1.861818-3.723636 3.723637v18.618181c0 10.24 7.447273 19.549091 17.687272 20.48v13.032728h-5.585454c-1.861818 0-3.723636 1.861818-3.723637 3.723636s1.861818 3.723636 3.723637 3.723636h18.618182c1.861818 0 3.723636-1.861818 3.723636-3.723636s-1.861818-3.723636-3.723636-3.723636h-5.585455V781.963636c10.24-1.861818 17.687273-10.24 17.687273-20.48v-18.618181c-0.930909-1.861818-2.792727-3.723636-4.654546-3.723637z m-3.723636 22.341818c0 7.447273-5.585455 13.032727-13.032727 13.032728s-13.032727-5.585455-13.032728-13.032728v-14.894545h26.996364v14.894545z" fill="#F5C270" p-id="3418"></path><path d="M420.770909 716.8h-79.127273c-8.378182 0-14.894545 6.516364-14.894545 14.894545v79.127273c0 8.378182 6.516364 14.894545 14.894545 14.894546h79.127273c8.378182 0 14.894545-6.516364 14.894546-14.894546v-79.127273c-0.930909-7.447273-7.447273-14.894545-14.894546-14.894545z m5.585455 94.021818c0 3.723636-2.792727 6.516364-6.516364 6.516364h-79.127273c-3.723636 0-6.516364-2.792727-6.516363-6.516364v-79.127273c0-3.723636 2.792727-6.516364 6.516363-6.516363h79.127273c3.723636 0 6.516364 2.792727 6.516364 6.516363v79.127273z" fill="#F5C270" p-id="3419"></path><path d="M380.741818 733.556364c-19.549091 0-34.443636 15.825455-34.443636 34.443636 0 1.861818 1.861818 3.723636 3.723636 3.723636h26.996364v26.065455c0 0.930909-0.930909 1.861818-1.861818 1.861818s-1.861818-0.930909-1.861819-1.861818c0-1.861818-1.861818-3.723636-3.723636-3.723636s-3.723636 1.861818-3.723636 3.723636c0 5.585455 4.654545 10.24 10.24 10.24 5.585455 0 10.24-4.654545 10.24-10.24V772.654545h26.996363c1.861818 0 3.723636-1.861818 3.723637-3.723636-0.930909-19.549091-16.756364-35.374545-36.305455-35.374545z m-26.065454 30.72c1.861818-13.032727 13.032727-23.272727 26.996363-23.272728 13.032727 0 25.134545 10.24 26.996364 23.272728h-53.992727z" fill="#F5C270" p-id="3420"></path><path d="M288.581818 619.985455h-92.16c-14.894545 0-26.065455-12.101818-26.065454-26.065455 0-14.894545 12.101818-26.065455 26.065454-26.065455h92.16c14.894545 0 26.065455 12.101818 26.065455 26.065455 0 14.894545-12.101818 26.065455-26.065455 26.065455z" fill="#E3AA56" p-id="3421"></path><path d="M867.607273 438.458182v-266.24c0-6.516364-5.585455-12.101818-12.101818-12.101818H521.309091c-6.516364 0-12.101818 5.585455-12.101818 12.101818v266.24c0 6.516364 5.585455 12.101818 12.101818 12.101818h334.196364c6.516364 0 12.101818-5.585455 12.101818-12.101818z" fill="#FFD685" p-id="3422"></path><path d="M509.207273 172.218182v-1.861818 2.792727-0.930909zM867.607273 172.218182V170.356364v1.861818z" fill="#FFD05B" p-id="3423"></path><path d="M646.981818 160.116364h82.850909v40.96h-82.850909z" fill="#7F9BD6" p-id="3424"></path><path d="M684.218182 160.116364h7.447273v40.96h-7.447273z" fill="#6A82B3" p-id="3425"></path><path d="M722.385455 271.825455h-67.956364c-10.24 0-19.549091-8.378182-19.549091-19.549091 0-10.24 8.378182-19.549091 19.549091-19.549091h67.956364c10.24 0 19.549091 8.378182 19.54909 19.549091 0 11.170909-8.378182 19.549091-19.54909 19.549091z" fill="#E3AA56" p-id="3426"></path><path d="M1158.981818 888.087273V353.745455c0-13.032727-11.170909-24.203636-24.203636-24.203637h-670.254546c-13.032727 0-24.203636 11.170909-24.203636 24.203637v533.410909c0 13.032727 11.170909 24.203636 24.203636 24.203636h670.254546c13.032727 0.930909 24.203636-10.24 24.203636-23.272727z" fill="#FFE3A6" p-id="3427"></path><path d="M439.389091 353.745455v-3.723637 6.516364-2.792727zM1158.981818 353.745455V349.090909v4.654546z" fill="#FFD05B" p-id="3428"></path><path d="M716.8 329.541818h165.701818v81.92H716.8z" fill="#7F9BD6" p-id="3429"></path><path d="M791.272727 329.541818h15.825455v81.92H791.272727z" fill="#6A82B3" p-id="3430"></path><path d="M651.636364 698.181818h-117.294546c-12.101818 0-21.410909 9.309091-21.410909 21.410909v117.294546c0 12.101818 9.309091 21.410909 21.410909 21.410909H651.636364c12.101818 0 21.410909-9.309091 21.410909-21.410909v-117.294546c0.930909-11.170909-9.309091-21.410909-21.410909-21.410909z m10.24 138.705455c0 5.585455-4.654545 9.309091-9.309091 9.309091h-117.294546c-5.585455 0-9.309091-4.654545-9.309091-9.309091v-117.294546c0-5.585455 4.654545-9.309091 9.309091-9.309091H651.636364c5.585455 0 9.309091 4.654545 9.309091 9.309091v117.294546z" fill="#EDD18E" p-id="3431"></path><path d="M569.716364 741.934545c-0.930909-0.930909-0.930909-0.930909-1.861819-0.930909s-1.861818-0.930909-2.792727-0.930909-1.861818 0-2.792727 0.930909c-0.930909 0-1.861818 0.930909-1.861818 0.930909l-19.549091 19.549091c-2.792727 2.792727-2.792727 5.585455 0 7.447273 2.792727 2.792727 5.585455 2.792727 7.447273 0l10.24-10.24v51.2c0 3.723636 2.792727 5.585455 5.585454 5.585455s5.585455-2.792727 5.585455-5.585455v-51.2l10.24 10.24c0.930909 0.930909 2.792727 1.861818 4.654545 1.861818s2.792727-0.930909 4.654546-1.861818c2.792727-2.792727 2.792727-5.585455 0-7.447273l-19.549091-19.549091zM626.501818 741.934545c-0.930909-0.930909-2.792727-1.861818-4.654545-1.861818s-3.723636 0.930909-4.654546 1.861818l-19.549091 19.549091c-2.792727 2.792727-2.792727 5.585455 0 7.447273 2.792727 2.792727 5.585455 2.792727 7.447273 0l10.24-10.24v51.2c0 3.723636 2.792727 5.585455 5.585455 5.585455s5.585455-2.792727 5.585454-5.585455v-51.2l10.24 10.24c0.930909 0.930909 2.792727 1.861818 4.654546 1.861818s2.792727-0.930909 4.654545-1.861818c2.792727-2.792727 2.792727-5.585455 0-7.447273l-19.549091-19.549091zM857.367273 698.181818h-117.294546c-12.101818 0-21.410909 9.309091-21.410909 21.410909v117.294546c0 12.101818 9.309091 21.410909 21.410909 21.410909h117.294546c12.101818 0 21.410909-9.309091 21.410909-21.410909v-117.294546c0.930909-11.170909-9.309091-21.410909-21.410909-21.410909z m11.170909 138.705455c0 5.585455-4.654545 9.309091-9.309091 9.309091h-118.225455c-5.585455 0-9.309091-4.654545-9.309091-9.309091v-117.294546c0-5.585455 4.654545-9.309091 9.309091-9.309091h117.294546c5.585455 0 9.309091 4.654545 9.309091 9.309091l0.930909 117.294546z" fill="#EDD18E" p-id="3432"></path><path d="M824.785455 730.763636h-51.2c-3.723636 0-5.585455 2.792727-5.585455 5.585455v27.927273c0 15.825455 11.170909 28.858182 26.065455 30.72v18.618181h-7.447273c-3.723636 0-5.585455 2.792727-5.585455 5.585455 0 3.723636 2.792727 5.585455 5.585455 5.585455h27.927273c3.723636 0 5.585455-2.792727 5.585454-5.585455s-2.792727-5.585455-5.585454-5.585455h-7.447273v-18.618181c14.894545-2.792727 26.065455-15.825455 26.065454-30.72v-27.927273c-1.861818-2.792727-4.654545-5.585455-8.378181-5.585455z m-5.585455 33.512728c0 11.170909-8.378182 19.549091-19.549091 19.549091s-19.549091-8.378182-19.549091-19.549091v-22.341819h40.029091v22.341819z" fill="#EDD18E" p-id="3433"></path><path d="M1063.098182 698.181818h-117.294546c-12.101818 0-21.410909 9.309091-21.410909 21.410909v117.294546c0 12.101818 9.309091 21.410909 21.410909 21.410909h117.294546c12.101818 0 21.410909-9.309091 21.410909-21.410909v-117.294546c0-11.170909-10.24-21.410909-21.410909-21.410909z m10.24 138.705455c0 5.585455-4.654545 9.309091-9.309091 9.309091h-117.294546c-5.585455 0-9.309091-4.654545-9.30909-9.309091v-117.294546c0-5.585455 4.654545-9.309091 9.30909-9.309091h117.294546c5.585455 0 9.309091 4.654545 9.309091 9.309091v117.294546z" fill="#EDD18E" p-id="3434"></path><path d="M1005.381818 723.316364c-28.858182 0-51.2 23.272727-51.2 51.2 0 3.723636 2.792727 5.585455 5.585455 5.585454h40.029091v39.098182c0 1.861818-1.861818 3.723636-3.723637 3.723636s-3.723636-1.861818-3.723636-3.723636c0-3.723636-2.792727-5.585455-5.585455-5.585455s-5.585455 2.792727-5.585454 5.585455c0 8.378182 6.516364 15.825455 15.825454 15.825455s15.825455-6.516364 15.825455-15.825455v-39.098182h40.029091c3.723636 0 5.585455-2.792727 5.585454-5.585454-1.861818-27.927273-25.134545-51.2-53.061818-51.2z m-40.029091 45.614545c2.792727-19.549091 19.549091-34.443636 40.029091-34.443636 19.549091 0 37.236364 14.894545 40.029091 34.443636h-80.058182z" fill="#EDD18E" p-id="3435"></path><path d="M867.607273 554.821818h-136.843637c-21.410909 0-39.098182-17.687273-39.098181-39.098182 0-21.410909 17.687273-39.098182 39.098181-39.098181h136.843637c21.410909 0 39.098182 17.687273 39.098182 39.098181 0 21.410909-17.687273 39.098182-39.098182 39.098182z" fill="#E3AA56" p-id="3436"></path><path d="M1791.069091 1024h-600.436364c-39.098182 0-70.749091-31.650909-70.749091-70.749091v-811.752727c0-39.098182 31.650909-70.749091 70.749091-70.749091h600.436364c39.098182 0 70.749091 31.650909 70.749091 70.749091v811.752727c0 39.098182-31.650909 70.749091-70.749091 70.749091z" fill="#6A82B3" p-id="3437"></path><path d="M1791.069091 970.938182h-600.436364c-9.309091 0-17.687273-7.447273-17.687272-17.687273v-811.752727c0-9.309091 7.447273-17.687273 17.687272-17.687273h600.436364c9.309091 0 17.687273 7.447273 17.687273 17.687273v811.752727c0 10.24-7.447273 17.687273-17.687273 17.687273z" fill="#EFF2FA" p-id="3438"></path><path d="M1597.44 70.749091h-53.061818v-17.687273c0-28.858182-23.272727-53.061818-53.061818-53.061818s-53.061818 23.272727-53.061819 53.061818v17.687273h-53.061818c-19.549091 0-35.374545 15.825455-35.374545 35.374545v35.374546h282.065454v-35.374546c0-19.549091-15.825455-35.374545-34.443636-35.374545z m-106.123636 0c-9.309091 0-17.687273-7.447273-17.687273-17.687273s7.447273-17.687273 17.687273-17.687273 17.687273 7.447273 17.687272 17.687273-8.378182 17.687273-17.687272 17.687273z" fill="#DCE3F2" p-id="3439"></path><path d="M1631.883636 159.185455H1349.818182c-9.309091 0-17.687273-7.447273-17.687273-17.687273 0-9.309091 7.447273-17.687273 17.687273-17.687273h282.065454c9.309091 0 17.687273 7.447273 17.687273 17.687273 0 9.309091-7.447273 17.687273-17.687273 17.687273z" fill="#BEC9E6" p-id="3440"></path><path d="M1491.316364 465.454545m-167.563637 0a167.563636 167.563636 0 1 0 335.127273 0 167.563636 167.563636 0 1 0-335.127273 0Z" fill="#28CC95" p-id="3441"></path><path d="M1472.698182 531.549091c-4.654545 0-9.309091-1.861818-12.101818-5.585455l-53.061819-53.061818c-6.516364-6.516364-6.516364-17.687273 0-25.134545s17.687273-6.516364 25.134546 0l40.029091 40.029091 75.403636-75.403637c6.516364-6.516364 17.687273-6.516364 25.134546 0 6.516364 6.516364 6.516364 17.687273 0 25.134546l-88.436364 88.436363c-2.792727 4.654545-7.447273 5.585455-12.101818 5.585455z" fill="#FFFFFF" p-id="3442"></path><path d="M1660.741818 759.621818h-327.68c-9.309091 0-17.687273-7.447273-17.687273-17.687273 0-9.309091 7.447273-17.687273 17.687273-17.687272h327.68c9.309091 0 17.687273 7.447273 17.687273 17.687272 0 9.309091-7.447273 17.687273-17.687273 17.687273z" fill="#AFB9D2" p-id="3443"></path><path d="M1562.996364 829.44h-229.934546c-9.309091 0-17.687273-7.447273-17.687273-17.687273 0-9.309091 7.447273-17.687273 17.687273-17.687272h229.934546c9.309091 0 17.687273 7.447273 17.687272 17.687272 0 10.24-7.447273 17.687273-17.687272 17.687273z" fill="#C7CFE2" p-id="3444"></path></svg>