<?xml version="1.0" standalone="no"?><!DOCTYPE svg PUBLIC "-//W3C//DTD SVG 1.1//EN" "http://www.w3.org/Graphics/SVG/1.1/DTD/svg11.dtd"><svg t="1607655403130" class="icon" viewBox="0 0 1024 1024" version="1.1" xmlns="http://www.w3.org/2000/svg" p-id="47986" xmlns:xlink="http://www.w3.org/1999/xlink" width="81" height="81"><defs><style type="text/css"></style></defs><path d="M512 0c282.784 0 512 229.216 512 512s-229.216 512-512 512S0 794.784 0 512 229.216 0 512 0z m-127.936 608c-27.2 0-49.28 21.504-49.28 48.032 0 26.464 22.08 47.968 49.28 47.968 27.136 0 49.184-21.44 49.184-47.968 0-26.528-22.048-48-49.184-48z m275.584 0c-27.2 0-49.248 21.504-49.248 48.032 0 26.464 22.08 47.968 49.28 47.968 27.2 0 49.248-21.44 49.248-47.968 0-26.528-22.08-48-49.28-48z m-68.896-288H275.712a19.52 19.52 0 0 0-19.712 19.2v288c0 10.56 8.864 19.2 19.712 19.2h39.264A69.344 69.344 0 0 1 384 587.744c35.264 0 64.224 25.6 69.024 58.656h137.6c4.864-33.088 33.824-58.656 69.024-58.656 35.264 0 64.224 25.6 69.024 58.656h19.616a19.52 19.52 0 0 0 19.712-19.2V531.2c0-18.208-15.072-38.752-15.072-38.752L708.928 416c-8.96-10.56-15.104-19.2-29.568-19.2h-68.896v-57.6A19.52 19.52 0 0 0 590.72 320z m87.584 115.264c3.2 0 7.616 4.48 7.616 4.48l41.472 75.2c3.648 5.28 7.68 11.52 7.68 16.32h-104.96v-96h48.192z" p-id="47987" fill="#2975FF"></path></svg>