<?xml version="1.0" encoding="UTF-8"?>
<svg width="39px" height="36px" viewBox="0 0 39 36" version="1.1" xmlns="http://www.w3.org/2000/svg" xmlns:xlink="http://www.w3.org/1999/xlink">
    <!-- Generator: Sketch 61 (89581) - https://sketch.com -->
    <title>形状</title>
    <desc>Created with Sketch.</desc>
    <g id="页面-1" stroke="none" stroke-width="1" fill="none" fill-rule="evenodd">
        <g id="AI体能训练计划" transform="translate(-262.000000, -1040.000000)" fill="#CFE0FF" stroke="#74A5FF">
            <g id="xiuxian" transform="translate(262.000000, 1040.000000)">
                <path d="M23.7009671,10.5237224 L23.708311,10.5293656 C24.0891776,10.8276799 24.5142484,10.768165 24.8416082,10.3662702 C25.1392243,10.0027206 25.0809275,9.60324401 24.6586524,9.27166438 C23.5707286,8.33939722 23.0354158,7.38312132 22.9031604,6.08312267 C22.7664817,4.87326284 23.3861042,3.46787514 24.7138012,1.7776332 L24.8099784,1.68427699 C25.0379989,1.51589258 25.0163448,1.07462357 24.675689,0.807622981 C24.2948995,0.509369087 23.8713153,0.568745429 23.5510166,0.961809678 C21.9267579,3.04092267 21.2327703,4.68770669 21.3398553,6.3501808 C21.4524767,8.01169376 22.244845,9.4261151 23.7009671,10.5237224 Z M0.5,16.1989962 L0.5,21.9089973 C0.5,29.410782 6.75114266,35.5 14.5035,35.5 C20.4996626,35.5 25.8811622,31.695178 27.8038097,26.279227 L28.0511702,25.5824312 L28.6057193,26.0714986 C29.7654605,27.0942963 31.1176174,27.6189985 32.6625,27.6189985 C35.9228254,27.6189985 38.5,25.0938406 38.5,21.9089973 C38.5,18.7241541 35.9228255,16.1989962 32.6625,16.1989962 L0.5,16.1989962 Z M32.6625,25.872498 C31.2614974,25.872498 29.8909682,25.1816895 29.1943601,24.0887351 L29.116,23.9657908 L29.116,23.8199977 C29.116,23.9410094 29.0978855,23.9107033 29.0921174,23.9032736 C29.0520159,23.8516205 28.8548555,23.6120885 28.8128782,23.559585 C28.7268691,23.4520085 28.6557847,23.3576243 28.5924229,23.2647195 L28.5055,23.1372682 L28.5055,18.0654967 L32.541,18.0654967 C34.7648796,18.0654967 36.575,19.8395424 36.5738534,21.9951555 C36.7156716,24.0856614 34.8921571,25.872498 32.6625,25.872498 Z M14.5599671,10.5237224 L14.567311,10.5293656 C14.9481776,10.8276799 15.3732484,10.768165 15.7006082,10.3662702 C15.9981865,10.0027668 15.9400821,9.6029699 15.5191524,9.27166438 C14.4316676,8.33977336 13.8961229,7.38377555 13.7621604,6.08312267 C13.6254816,4.87326283 14.2451042,3.46787512 15.578718,1.77024581 C15.8730526,1.40979909 15.8312184,0.983039273 15.4927661,0.650835285 C15.2330847,0.395962808 14.7177176,0.465178332 14.4100166,0.841809655 C12.7868504,2.91952417 12.0930228,4.56703651 12.1989925,6.2337688 C12.3111175,7.99731502 13.0909085,9.41636365 14.5599671,10.5237224 Z M5.42028544,10.5235856 L5.42781101,10.5293656 C5.8086005,10.8276195 6.23218475,10.7682431 6.55960818,10.3662702 C6.85718651,10.0027668 6.79908207,9.6029699 6.40768373,9.29509875 C5.31970765,8.49669153 4.74100004,7.39848234 4.74416037,6.20312269 C4.60565187,4.97706584 5.24889397,3.54967677 6.55921801,2.00874588 C6.85703152,1.64403879 6.80878054,1.09868339 6.47531623,0.771374418 C6.21529024,0.516948935 5.61982295,0.593094853 5.36941167,0.987065224 C3.79928909,2.74499523 3.05899998,4.52967738 3.05785531,6.3501808 C3.17049757,8.01200181 3.9630966,9.42621328 5.42028544,10.5235856 Z" id="形状"></path>
            </g>
        </g>
    </g>
</svg>