<?xml version="1.0" encoding="UTF-8"?>
<svg width="30px" height="36px" viewBox="0 0 30 36" version="1.1" xmlns="http://www.w3.org/2000/svg" xmlns:xlink="http://www.w3.org/1999/xlink">
    <!-- Generator: Sketch 61 (89581) - https://sketch.com -->
    <title>路径</title>
    <desc>Created with Sketch.</desc>
    <g id="页面-1" stroke="none" stroke-width="1" fill="none" fill-rule="evenodd">
        <g id="AI体能训练计划" transform="translate(-84.000000, -1040.000000)" fill="#CFE0FF" stroke="#74A5FF">
            <g id="tuoyuanxing" transform="translate(84.000000, 1040.000000)">
                <path d="M24.0704833,8.18855282 C23.0118497,9.42787178 20.7892089,12.0039814 19.2734249,13.2982449 L18.8335537,13.6738323 L18.5255413,13.18426 C17.313558,11.2578655 16.3981751,4.42252568 16.3127702,0.562378513 C14.2659099,1.04691905 10.9831244,4.29929131 9.27643293,8.38736074 C8.47758823,10.3016308 7.57124999,15.7565258 7.57124999,17.634 L7.57124999,18.4670744 L6.83607687,18.075241 C4.87203714,17.0284449 3.52222117,15.2646194 2.72806114,13.3643501 C1.32743267,15.6137045 0.5,18.5281496 0.5,21.3072 C0.5,29.1430097 6.98999539,35.5 15,35.5 C23.0100046,35.5 29.5,29.1430097 29.5,21.3072 C29.5,19.2350595 29.0199026,17.8673027 27.8585403,16.0730784 C27.7135131,15.8490214 26.6824636,14.329851 26.367239,13.8309543 C26.1764212,13.5289526 26.0002888,13.2365777 25.8327845,12.9418272 C25.0659255,11.5923179 24.4571343,9.91186724 24.0704833,8.18855282 Z" id="路径"></path>
            </g>
        </g>
    </g>
</svg>