<?xml version="1.0" encoding="UTF-8"?>
<svg width="30px" height="33px" viewBox="0 0 30 33" version="1.1" xmlns="http://www.w3.org/2000/svg" xmlns:xlink="http://www.w3.org/1999/xlink">
    <!-- Generator: Sketch 61 (89581) - https://sketch.com -->
    <title>记录</title>
    <desc>Created with Sketch.</desc>
    <g id="页面-1" stroke="none" stroke-width="1" fill="none" fill-rule="evenodd">
        <g id="开始运动" transform="translate(-49.000000, -871.000000)" fill="#000000" fill-rule="nonzero">
            <g id="记录" transform="translate(49.000000, 871.000000)">
                <path d="M28.421078,33 L4.73684016,33 C3.86477382,33 3.1578811,32.2964371 3.1578811,31.4285609 L3.1578811,25.9284504 L0,25.9284504 L0,19.6428414 L3.1578811,19.6428414 L3.1578811,13.357085 L0,13.357085 L0,7.07136541 L3.1578811,7.07136541 L3.1578811,1.57140226 C3.1578811,0.70352607 3.86477382,0 4.73684016,0 L28.421078,0 C29.2931073,0 30,0.70352607 30,1.57140226 L30,31.4285241 C30,32.2965108 29.2931073,33 28.421078,33 L28.421078,33 Z M28.421078,3.14280451 C28.421078,2.27489148 27.7141852,1.57136541 26.8421189,1.57136541 L6.3157622,1.57136541 C5.44373288,1.57136541 4.73684016,2.27489148 4.73684016,3.14280451 L4.73684016,29.857085 C4.73684016,30.724998 5.44373288,31.4285241 6.3157622,31.4285241 L26.8421559,31.4285241 C27.7141852,31.4285241 28.421078,30.724998 28.421078,29.857085 L28.421078,3.14280451 Z M7.89475827,23.5714023 L25.2631598,23.5714023 L25.2631598,25.1428045 L7.89475827,25.1428045 L7.89475827,23.5714023 Z M7.89475827,15.7142436 L25.2631598,15.7142436 L25.2631598,17.2856827 L7.89475827,17.2856827 L7.89475827,15.7142436 Z M7.89475827,7.85708496 L18.9473606,7.85708496 L18.9473606,9.42848722 L7.89475827,9.42848722 L7.89475827,7.85708496 Z" id="形状"></path>
            </g>
        </g>
    </g>
</svg>