<?xml version="1.0" encoding="UTF-8"?>
<svg width="30px" height="36px" viewBox="0 0 30 36" version="1.1" xmlns="http://www.w3.org/2000/svg" xmlns:xlink="http://www.w3.org/1999/xlink">
    <!-- Generator: Sketch 61 (89581) - https://sketch.com -->
    <title>路径</title>
    <desc>Created with Sketch.</desc>
    <g id="页面-1" stroke="none" stroke-width="1" fill="none" fill-rule="evenodd">
        <g id="AI体能训练计划" transform="translate(-175.000000, -1040.000000)" fill="#CFE0FF" stroke="#74A5FF">
            <g id="jiroukong" transform="translate(175.000000, 1040.000000)">
                <path d="M0.798971602,29.6492375 C5.02722551,36.999885 22.6386916,37.8607411 29.4824814,29.6710494 C29.0408455,25.3498605 27.1547405,22.5707971 24.2397486,20.9966756 C22.2806704,19.9387561 20.2146368,19.5689223 18.3187783,19.5689223 C16.2103524,19.5689223 14.580827,20.0108227 12.7306832,21.309617 C12.2366896,21.5987045 11.7593742,21.3776184 11.4380342,20.8746318 C11.2189622,20.5317232 11.0340475,20.0180459 10.874562,19.3484226 C10.5843855,18.1300737 10.3853583,16.4037747 10.3181561,14.5882983 C10.155417,10.1918827 10.6737277,6.95001184 12.132859,6.76565319 C13.109257,6.64228704 13.6348975,6.93740601 14.1916718,7.68530461 C14.1585024,7.64074913 14.3986483,7.96787914 14.4620749,8.04918895 C15.0252057,8.77109558 15.6922101,9.06263752 17.2473521,8.9529686 C20.1576496,8.74773385 21.4749795,6.38058673 21.3042938,4.11946326 C21.3042938,2.94761652 20.4741157,1.6769155 19.0863137,1.16012532 L19.0649924,1.15162348 C16.686476,0.139313011 12.2189018,0.191210193 7.49571639,1.91208644 C3.8637736,3.48542194 -0.726834655,22.3027423 0.798971602,29.6492375 Z" id="路径"></path>
            </g>
        </g>
    </g>
</svg>