<?xml version="1.0" standalone="no"?><!DOCTYPE svg PUBLIC "-//W3C//DTD SVG 1.1//EN" "http://www.w3.org/Graphics/SVG/1.1/DTD/svg11.dtd"><svg t="1609650151809" class="icon" viewBox="0 0 1028 1024" version="1.1" xmlns="http://www.w3.org/2000/svg" p-id="37861" width="120.46875" height="120" xmlns:xlink="http://www.w3.org/1999/xlink"><defs><style type="text/css"></style></defs><path d="M514.456893 1023.998592a511.999296 511.999296 0 1 1 514.341692-511.999296 513.176894 513.176894 0 0 1-514.341692 511.999296z m222.886093-661.86149a69.452705 69.452705 0 0 0-70.041504-68.671906h-9.702386A57.331121 57.331121 0 0 0 603.62157 255.999648h-178.303755a57.331121 57.331121 0 0 0-54.028726 37.465548h-9.651186a69.452705 69.452705 0 0 0-70.041504 68.671906v337.177136A69.465504 69.465504 0 0 0 361.637903 767.998944h305.663579a69.465504 69.465504 0 0 0 70.041504-68.684706V362.137102z m-70.041504 368.396294h-305.663579a31.564757 31.564757 0 0 1-31.833556-31.219158V362.137102a31.551957 31.551957 0 0 1 31.833556-31.206357h9.651186a57.331121 57.331121 0 0 0 54.028726 37.452748h178.303755a57.331121 57.331121 0 0 0 53.977526-37.452748h9.651187a31.551957 31.551957 0 0 1 31.833556 31.206357v337.177136a31.564757 31.564757 0 0 1-31.782357 31.219158z m-267.455632-305.91958a24.972766 24.972766 0 1 0 25.471965 24.972766 25.228765 25.228765 0 0 0-25.471965-24.998366z m0 99.839863a24.972766 24.972766 0 1 0 25.471965 24.972766 25.228765 25.228765 0 0 0-25.471965-24.934366z m0 99.839863a24.985566 24.985566 0 1 0 25.471965 24.985565 25.228765 25.228765 0 0 0-25.471965-24.895966z m229.247685-193.561334h-152.83179a18.739174 18.739174 0 1 0 0 37.465548h152.83179a18.739174 18.739174 0 1 0 0-37.375948z m0 99.839862h-152.83179a18.739174 18.739174 0 1 0 0 37.465549h152.83179a18.739174 18.739174 0 1 0 0-37.311949z m0 99.903863h-152.83179a18.739174 18.739174 0 1 0 0 37.465549h152.83179a18.739174 18.739174 0 1 0 0-37.311949z m-25.471965-299.698788h-178.303755a18.739174 18.739174 0 1 1 0-37.465548h178.303755a18.815974 18.815974 0 1 1 0 37.619148z" fill="#34A853" p-id="37862"></path></svg>