<?xml version="1.0" standalone="no"?><!DOCTYPE svg PUBLIC "-//W3C//DTD SVG 1.1//EN" "http://www.w3.org/Graphics/SVG/1.1/DTD/svg11.dtd"><svg t="1609650161994" class="icon" viewBox="0 0 1024 1024" version="1.1" xmlns="http://www.w3.org/2000/svg" p-id="38050" width="120" height="120" xmlns:xlink="http://www.w3.org/1999/xlink"><defs><style type="text/css"></style></defs><path d="M512 512m-512 0a512 512 0 1 0 1024 0 512 512 0 1 0-1024 0Z" fill="#629FFF" p-id="38051"></path><path d="M780.53181 455.92381a58.953143 58.953143 0 0 0-4.656762-22.674286 48.323048 48.323048 0 0 0-24.380953-32.182857 203.702857 203.702857 0 0 0-58.343619-34.620953c45.275429-32.914286 92.891429-39.253333 80.993524-64.853333-11.605333-24.868571-93.086476 3.169524-124.342857 41.447619a93.379048 93.379048 0 0 0-5.753905 7.558095 536.673524 536.673524 0 0 0-131.949714-15.603809c-104.472381 0-195.047619 26.819048-239.420953 66.072381a48.249905 48.249905 0 0 0-24.380952 32.426666 58.051048 58.051048 0 0 0-4.656762 22.674286 52.272762 52.272762 0 0 0 0.316953 5.851429c-0.219429 3.657143-0.316952 7.558095-0.316953 11.702857a268.848762 268.848762 0 0 0 537.234286 0q0-6.217143-0.292572-11.702857c-0.146286-2.194286-0.048762-4.144762-0.048761-6.095238zM512 543.207619c-122.221714 0-221.354667-39.009524-221.354667-87.283809s99.035429-87.04 221.354667-87.04a511.317333 511.317333 0 0 1 112.615619 11.946666 297.033143 297.033143 0 0 1-36.571429 62.902857c-33.060571 24.624762-54.832762 3.900952-107.27619 32.182857s-53.345524 33.645714-53.345524 33.645715a1127.448381 1127.448381 0 0 0 137.289143 2.925714c53.784381-4.388571 52.49219-3.169524 50.566095-12.434286-5.729524-27.306667 17.554286-69.241905 45.909334-103.619047 1.072762-1.219048 2.145524-2.681905 3.096381-3.900953 42.496 16.091429 68.973714 38.521905 68.973714 63.390477 0 48.274286-99.157333 87.28381-221.257143 87.283809z" fill="#FFFFFF" p-id="38052"></path></svg>