<?xml version="1.0" encoding="UTF-8"?>
<svg width="38px" height="36px" viewBox="0 0 38 36" version="1.1" xmlns="http://www.w3.org/2000/svg" xmlns:xlink="http://www.w3.org/1999/xlink">
    <!-- Generator: Sketch 61 (89581) - https://sketch.com -->
    <title>评分</title>
    <desc>Created with Sketch.</desc>
    <g id="页面-1" stroke="none" stroke-width="1" fill="none" fill-rule="evenodd">
        <g id="数据分析-膳食结构" transform="translate(-96.000000, -383.000000)" fill-rule="nonzero">
            <g id="评分" transform="translate(96.000000, 383.000000)">
                <path d="M22.8397898,2.578125 L25.0556989,7.18039773 C25.6238807,8.54403409 26.987517,9.39630682 28.4647898,9.62357955 L33.4647898,10.3622159 C37.1579716,10.8735795 38.5784261,15.4190341 35.9647898,18.0894886 L32.3284261,21.5553977 C31.3056989,22.578125 30.7943352,24.0553977 30.9647898,25.4758523 L31.7602443,30.4758523 C32.3284261,34.1690341 28.5784261,36.953125 25.2261534,35.2485795 L20.7943352,32.9758523 C19.4306989,32.2940341 17.9534261,32.2940341 16.646608,32.9758523 L12.1011534,35.3622159 C8.74888068,37.0667614 4.99888068,34.3394886 5.5670625,30.5894886 L6.36251705,25.5894886 C6.64660795,24.1122159 6.13524432,22.6349432 4.99888068,21.6690341 L1.36251705,18.0894886 C-1.3079375,15.4190341 0.169335227,10.9872159 3.86251705,10.3622159 L8.86251705,9.62357955 C10.3397898,9.39630682 11.5897898,8.48721591 12.271608,7.18039773 L14.487517,2.578125 C16.4761534,-0.774147727 21.1352443,-0.774147727 22.8397898,2.578125" id="路径" fill="#FED44A"></path>
                <path d="M14.771608,2.578125 L12.5556989,7.18039773 C11.987517,8.54403409 10.6238807,9.39630682 9.14660795,9.62357955 L4.14660795,10.3622159 C1.87388068,10.7599432 0.339789773,12.578125 0.282971591,14.5099432 C0.964789773,10.8735795 8.46478977,13.7144886 11.8738807,13.9985795 C15.3397898,14.3963068 16.3056989,11.2713068 16.3056989,11.2713068 C16.3056989,11.2713068 17.0443352,7.578125 17.9534261,2.86221591 C18.6352443,-0.944602273 21.1352443,0.703125 22.0443352,1.38494318 C19.9420625,-0.774147727 16.2488807,-0.319602273 14.771608,2.578125" id="路径" fill="#FFDE73"></path>
                <path d="M21.0784261,28.3167614 C18.3511534,26.4417614 15.9079716,28.3167614 15.9079716,28.3167614 C15.9079716,28.3167614 13.237517,30.703125 10.112517,33.6576705 C6.93069886,36.6122159 5.73751705,32.4076705 5.73751705,32.4076705 C6.41933523,35.078125 9.54433523,36.7258523 12.2147898,35.2485795 L16.7602443,32.9758523 C18.1238807,32.2940341 19.6011534,32.2940341 20.9079716,32.9758523 L25.4534261,35.3622159 C27.5556989,36.4985795 29.8284261,35.8167614 31.0784261,34.1690341 C31.1352443,33.8849432 31.2488807,33.6576705 31.362517,33.4303977 C28.8056989,35.8167614 23.862517,30.1917614 21.0784261,28.3167614" id="路径" fill="#FEC54A"></path>
                <path d="M17.0443352,3.08948864 C17.612517,3.25994318 18.0102443,3.77130682 17.8397898,4.453125 L16.8170625,9.11221591 C16.646608,9.68039773 16.1352443,10.078125 15.4534261,9.90767045 C14.8852443,9.73721591 14.487517,9.22585227 14.6579716,8.54403409 L15.6806989,3.77130682 C15.8511534,3.203125 16.4761534,2.91903409 17.0443352,3.08948864" id="路径" fill="#FFF2CA"></path>
            </g>
        </g>
    </g>
</svg>