<?xml version="1.0" encoding="UTF-8"?>
<svg width="686px" height="397px" viewBox="0 0 686 397" version="1.1" xmlns="http://www.w3.org/2000/svg" xmlns:xlink="http://www.w3.org/1999/xlink">
    <!-- Generator: Sketch 61 (89581) - https://sketch.com -->
    <title>编组</title>
    <desc>Created with Sketch.</desc>
    <defs>
        <linearGradient x1="50%" y1="0%" x2="50%" y2="100%" id="linearGradient-1">
            <stop stop-color="#53ADFF" offset="0%"></stop>
            <stop stop-color="#2975FF" offset="100%"></stop>
        </linearGradient>
        <rect id="path-2" x="0" y="0" width="686" height="320" rx="16"></rect>
        <linearGradient x1="12.2375508%" y1="17.2991516%" x2="84.9409145%" y2="88.5660562%" id="linearGradient-4">
            <stop stop-color="#EEEEEE" stop-opacity="0.054059222" offset="0%"></stop>
            <stop stop-color="#FFFFFF" stop-opacity="0" offset="100%"></stop>
        </linearGradient>
        <linearGradient x1="83.2220503%" y1="14.9015358%" x2="18.482112%" y2="82.2381554%" id="linearGradient-5">
            <stop stop-color="#EEEEEE" stop-opacity="0.054059222" offset="0%"></stop>
            <stop stop-color="#FFFFFF" stop-opacity="0" offset="100%"></stop>
        </linearGradient>
        <linearGradient x1="103.977189%" y1="104.339144%" x2="20.3679366%" y2="12.0201513%" id="linearGradient-6">
            <stop stop-color="#EEEEEE" stop-opacity="0.1" offset="0%"></stop>
            <stop stop-color="#FFFFFF" stop-opacity="0.00123212342" offset="100%"></stop>
            <stop stop-color="#FFFFFF" stop-opacity="0" offset="100%"></stop>
        </linearGradient>
    </defs>
    <g id="页面-1" stroke="none" stroke-width="1" fill="none" fill-rule="evenodd">
        <g id="数据分析-膳食结构" transform="translate(-32.000000, -155.000000)">
            <g id="编组" transform="translate(32.000000, 155.000000)">
                <g id="undraw_hiking_d24r" transform="translate(0.000000, 77.000000)">
                    <mask id="mask-3" fill="white">
                        <use xlink:href="#path-2"></use>
                    </mask>
                    <use id="蒙版" fill="url(#linearGradient-1)" xlink:href="#path-2"></use>
                    <circle id="椭圆形备份-3" fill="url(#linearGradient-4)" mask="url(#mask-3)" transform="translate(343.000000, 194.000000) rotate(-180.000000) translate(-343.000000, -194.000000) " cx="343" cy="194" r="146"></circle>
                    <circle id="椭圆形" fill="url(#linearGradient-5)" mask="url(#mask-3)" cx="558" cy="236" r="155"></circle>
                    <circle id="椭圆形备份-2" fill="url(#linearGradient-6)" mask="url(#mask-3)" cx="139" cy="24" r="155"></circle>
                </g>
                <g id="undraw_noted_pc9f" transform="translate(310.000000, 0.000000)" fill-rule="nonzero">
                    <path d="M332.959325,62.5310187 C345.517411,81.0325629 342.738429,105 342.738429,105 C342.738429,105 319.598764,98.9705209 307.040678,80.4689813 C294.482593,61.9674418 297.26157,38 297.26157,38 C297.26157,38 320.401235,44.0294791 332.959325,62.5310187 Z" id="路径" fill="#2F2E41"></path>
                    <path d="M324.106145,65.0359337 C325.596,87.1273257 342.697607,104 342.697607,104 C342.697607,104 357.383703,85.0554723 355.893853,62.9640663 C354.404004,40.8726603 337.302387,24 337.302387,24 C337.302387,24 322.616305,42.9445418 324.106145,65.0359337 Z" id="路径" fill="#6C63FF"></path>
                    <path d="M177.390429,0.461812756 L350.491223,87.100923 C353.433859,88.5737513 355.203166,91.6589014 354.981318,94.9303266 L344.924217,243.234461 C344.832592,244.585509 344.066746,245.800867 342.884761,246.470971 C341.702776,247.141076 340.262066,247.176683 339.048136,246.565794 L162,156.613739 L171.089458,4.07709119 C171.176191,2.62158434 171.992318,1.30705643 173.261268,0.578976724 C174.530219,-0.149102983 176.081882,-0.193131075 177.390429,0.461812756 Z" id="路径" fill="#D0CDE1"></path>
                    <path d="M178.991718,4.45059556 L347.608029,88.985109 C350.47443,90.4221591 352.197901,93.4323645 351.981802,96.6243212 L342.185259,241.32592 C342.09601,242.644152 341.350005,243.82999 340.19864,244.483819 C339.047275,245.137648 337.643887,245.172392 336.461403,244.576343 L164,156.809358 L172.853983,7.97805762 C172.938466,6.55790594 173.73345,5.27530797 174.969526,4.5649133 C176.205603,3.85451864 177.71707,3.81156009 178.991718,4.45059556 Z" id="路径" fill="#3F3D56"></path>
                    <path d="M187.556336,15.4075907 L340.02854,91.8744686 C342.620498,93.1743736 344.178954,95.897299 343.983544,98.784629 L335.124959,229.676537 C335.044264,230.868966 334.369688,231.94164 333.328559,232.533076 C332.28743,233.124511 331.018405,233.155941 329.949135,232.616774 L174,153.22588 L182.00626,18.5984051 C182.082656,17.3137882 182.801524,16.1535976 183.919251,15.5110006 C185.036979,14.8684035 186.403729,14.829544 187.556336,15.4075907 Z" id="路径" fill="#FFFFFF"></path>
                    <path d="M30.6342565,230.083341 L202.993742,316.778336 C206.246631,318.411951 210.082697,318.406954 213.331309,316.764872 L340.838238,252.118634 C342.333305,250.625375 342.124493,248.412445 341.646359,246.751021 C341.414295,245.946682 341.098301,245.168905 340.703577,244.430488 L323.328181,235.302925 L177.240509,162.504456 L168.512366,157.876774 C163.822054,155.395993 158.211137,155.37336 153.500915,157.816221 L30.5803239,221.588049 C28.9857007,222.411614 27.9887139,224.059263 28,225.852206 C28.011479,227.645149 29.0293051,229.280038 30.6342565,230.083341 Z" id="路径" fill="#D0CDE1"></path>
                    <path d="M30.6365431,229.081792 L202.994763,316.764418 C206.247628,318.416644 210.083666,318.41159 213.332254,316.750801 L340.838246,251.368111 C342.333302,249.857841 342.124492,247.619702 341.646361,245.93935 L214.521482,312.686147 C211.375059,314.33817 207.636249,314.37053 204.462265,312.77321 L28.0638812,224 C27.7234359,226.08085 28.7671431,228.14249 30.6365431,229.081792 Z" id="路径" fill="#000000" opacity="0.1"></path>
                    <path d="M193.876596,256.204033 L137.931443,227.847507 C135.645685,226.688944 132.940549,226.719826 130.681673,227.93027 L98.2276054,245.321186 C97.4632229,245.730791 96.9899338,246.533333 97,247.402523 C97.0103912,248.271713 97.5024344,249.062826 98.2762431,249.454219 L155.318007,278.305879 C157.241497,279.278776 159.521879,279.226162 161.398735,278.165582 L193.982261,259.753146 C194.629642,259.387331 195.021285,258.691511 195,257.94655 C194.976926,257.201589 194.544586,256.53045 193.876596,256.204033 Z" id="路径" fill="#000000" opacity="0.1"></path>
                    <path d="M325.267918,250.573477 L265.097793,282.429878 C263.69278,283.173748 262.012633,283.190607 260.592876,282.475079 L90.5864074,196.795304 C89.6094189,196.302914 88.9953192,195.302788 89,194.211717 C89.0047346,193.120646 89.627442,192.125821 90.6086433,191.641822 L149.366278,162.658908 C151.161665,161.77331 153.270444,161.780792 155.059458,162.679107 L325.241466,248.132345 C325.7018,248.363502 325.994353,248.83121 326,249.34489 C326.005485,249.858571 325.723136,250.332466 325.267918,250.573477 L325.267918,250.573477 Z" id="路径" fill="#000000" opacity="0.1"></path>
                    <polygon id="矩形" fill="#6C63FF" transform="translate(257.239373, 105.786638) rotate(-63.434950) translate(-257.239373, -105.786638) " points="256.886328 74.8302455 257.561215 74.8305858 257.592417 136.743031 256.917531 136.742691"></polygon>
                    <polygon id="矩形" fill="#6C63FF" transform="translate(257.239397, 114.219652) rotate(-62.909080) translate(-257.239397, -114.219652) " points="256.88634 83.1110735 257.560672 83.1114182 257.592454 145.32823 256.918123 145.327885"></polygon>
                    <polygon id="矩形" fill="#6C63FF" transform="translate(255.550662, 123.664573) rotate(-62.934560) translate(-255.550662, -123.664573) " points="255.204105 105.845214 255.879026 105.845558 255.89722 141.483932 255.222299 141.483587"></polygon>
                    <path d="M67,148.611878 C67,148.611878 54.0992793,142.512314 48.0398459,148.955582 C41.9804126,155.398849 64.2634814,153.277923 67,148.611878 Z" id="路径" fill="#3F3D56"></path>
                    <path d="M42.6407926,121.027155 C47.2231136,113.384985 56.2888775,113.028828 56.2888775,113.028828 C56.2888775,113.028828 65.1229596,111.913802 70.7899628,123.552925 C76.0720663,134.40154 83.3620426,144.876104 71.9635922,147.415684 L69.9046996,141.090714 L68.6296551,147.886583 C67.0067354,148.001793 65.378644,148.029256 63.7526835,147.968851 C51.5458624,147.579858 39.9207127,148.082663 40.295028,143.75921 C40.7926144,138.011815 38.2316719,128.380454 42.6407926,121.027155 Z" id="路径" fill="#2F2E41"></path>
                    <path d="M35.8631343,260 C35.8631343,260 41.6166384,270.873426 45.3153156,270.873426 C49.0139927,270.873426 48.6030302,277.982971 47.7811003,279.655808 C46.9591705,281.328645 44.904353,285.092521 48.1920581,290.529235 C49.3404509,292.428275 49.1350198,294.582443 48.3814284,296.581808 C46.2699609,302.18377 38.0563919,300.486555 38.3184205,294.492598 C38.3213131,294.426515 38.3248174,294.36002 38.3289334,294.293111 C38.7398911,287.601772 35.4521813,277.146558 32.1644667,274.637307 C28.8767521,272.128056 26,265.436713 26,265.436713 L35.8631343,260 Z" id="路径" fill="#FFB8B8"></path>
                    <path d="M76.1368727,258 C76.1368727,258 70.3833719,268.873426 66.6846938,268.873426 C62.9860156,268.873426 63.3969783,275.982971 64.2189036,277.655808 C65.0408289,279.328645 67.0956564,283.092521 63.8079457,288.52923 C62.6595479,290.428275 62.864979,292.582443 63.6185754,294.581808 C65.7300434,300.18377 73.9436145,298.486555 73.6815811,292.492598 C73.6786948,292.426515 73.6751905,292.36002 73.6710682,292.293111 C73.2601103,285.601772 76.5478163,275.146558 79.8355317,272.637302 C83.1232472,270.128047 86,263.436713 86,263.436713 L76.1368727,258 Z" id="路径" fill="#FFB8B8"></path>
                    <path d="M71.5667388,204.557802 L74.0241334,209.944287 C74.0241334,209.944287 110.065938,221.960301 106.78941,236.048042 C103.512883,250.135784 87.5398131,272.09608 85.0824137,271.267393 C82.6250144,270.438706 69.5189084,267.952631 69.1093442,260.908758 C68.69978,253.864885 78.5293584,241.434532 78.5293584,241.434532 L65.0136834,229.004174 L45.3461879,228.589836 L28.5623146,241.434541 C28.5623146,241.434541 46.1736503,257.179661 38.3918977,263.394838 C30.610145,269.610014 19.1422957,273.753473 17.5040342,271.267403 C15.8657727,268.781332 -2.56469614,231.904598 0.302262613,228.589836 C3.16922137,225.275073 32.2484017,212.844706 32.2484017,212.844706 L40.0301544,201.657384 L70.3380272,200 L71.5667388,204.557802 Z" id="路径" fill="#2F2E41"></path>
                    <path d="M64.1859696,137.996616 C64.1859696,137.996616 62.1876004,151.084751 66.1843388,152.671194 C70.1810773,154.257638 58.1908666,161 58.1908666,161 L51.3964104,161 L47,151.877964 C47,151.877964 50.9967384,144.738979 48.5986972,137.996607 C46.200656,131.254236 64.1859696,137.996616 64.1859696,137.996616 Z" id="路径" fill="#FFB8B8"></path>
                    <path d="M64.1859696,137.996616 C64.1859696,137.996616 62.1876004,151.084751 66.1843388,152.671194 C70.1810773,154.257638 58.1908666,161 58.1908666,161 L51.3964104,161 L47,151.877964 C47,151.877964 50.9967384,144.738979 48.5986972,137.996607 C46.200656,131.254236 64.1859696,137.996616 64.1859696,137.996616 Z" id="路径" fill="#000000" opacity="0.1"></path>
                    <path d="M67.9459449,150 C67.9459449,150 63.4864721,154.829304 62.6756743,155.63419 C61.8648765,156.439075 58.2162156,160.865939 50.5135138,154.426882 C42.810812,147.987826 42,155.63419 42,155.63419 L42,203.927249 C42,203.927249 48.4864862,201.110156 53.7567569,203.927249 C59.0270275,206.744341 69.9729725,203.122377 69.9729725,203.122377 L72,153.219547 L67.9459449,150 Z" id="路径" fill="#D0CDE1"></path>
                    <path d="M64.2948039,149.73236 C64.2948039,149.73236 68.1479372,148.084551 71.4463595,149.73236 C74.7447818,151.380169 86.2892575,159.619194 85.4646507,163.326762 C84.640044,167.03433 73.920175,192.987286 81.3416264,205.345829 C88.7630778,217.704372 90,221 90,221 L71.8586796,211.52511 C71.8586796,211.52511 57.8403836,202.87413 59.0772914,197.518758 C60.3141991,192.163386 64.2948039,149.73236 64.2948039,149.73236 Z" id="路径" fill="#3F3D56"></path>
                    <path d="M48.1560048,150 C48.1560048,150 39.4200049,150.816866 39.0037679,151.633756 C38.587531,152.450646 25.8924017,155.92237 26.7248707,159.59833 C27.5573397,163.27429 39.0037679,196.153678 34.0089636,202.28027 C29.0141593,208.406861 20.6894789,216.984099 23.6031132,217.800975 C26.5167474,218.617851 31.5115614,216.575676 36.5063658,217.800975 C41.5011701,219.026274 53.1557216,208.815304 51.9070205,197.787434 C50.6583194,186.759564 51.8972005,152.859075 48.1560048,150 Z" id="路径" fill="#3F3D56"></path>
                    <path d="M67.715877,227.890273 L67.715877,231.670816 C67.715877,231.670816 69.6365479,240.366073 63.4904029,239.98802 C57.3442579,239.609967 61.1855996,229.40249 61.1855996,229.40249 L61.5697275,226 L67.715877,227.890273 Z" id="路径" fill="#FFB8B8"></path>
                    <path d="M49.9534885,228 C49.9534885,228 54.5581394,238.046612 49.9534885,238.920226 C45.3488375,239.793841 42,233.241712 42,231.494473 C42,229.747234 49.9534885,228 49.9534885,228 Z" id="路径" fill="#FFB8B8"></path>
                    <ellipse id="椭圆形" fill="#FFB8B8" cx="44.5" cy="131" rx="1" ry="2"></ellipse>
                    <ellipse id="椭圆形" fill="#FFB8B8" cx="68.5" cy="131" rx="1" ry="2"></ellipse>
                    <path d="M37.6070083,155 C37.6070083,155 27.6118785,155 28.011682,159.062501 C28.4114855,163.125002 41.6050621,233 41.6050621,233 C41.6050621,233 47.2023345,227.718749 52,228.937499 L37.6070083,155 Z" id="路径" fill="#3F3D56"></path>
                    <path d="M76,156 C76,156 86,158.039107 86,164.156427 C86,170.273747 71.5999967,229 69.6000006,229 C67.6000046,229 60,227.776556 60,225.73743 C60,223.698304 76,156 76,156 Z" id="路径" fill="#3F3D56"></path>
                    <path d="M74,168 L64,204 C64,204 68.6666643,172.500459 74,168 Z" id="路径" fill="#000000" opacity="0.2"></path>
                    <path d="M38,163 L48,210 C48,210 44.8039351,165.711162 38,163 Z" id="路径" fill="#000000" opacity="0.2"></path>
                    <circle id="椭圆形" fill="#FFB8B8" cx="56" cy="132" r="12"></circle>
                    <polygon id="路径" fill="#2F2E41" points="45.4211941 120.61269 54.2634242 116 66.4737841 117.886838 69 129 62.7114963 128.759539 60.9546236 124.67643 60.9546236 128.691983 58.0527481 128.580965 56.368446 122.080493 55.3159351 129 45 128.790719"></polygon>
                    <polyline id="路径" fill="#F2F2F2" points="177.874138 51.4532819 173 63.1711964 214.14 85 228 44"></polyline>
                    <polygon id="路径" fill="#6C63FF" points="212.61568 77 231 33.7759781 188.745945 13 171 55.1730503"></polygon>
                    <polygon id="矩形" fill="#FFFFFF" transform="translate(204.625528, 39.054705) rotate(-62.934560) translate(-204.625528, -39.054705) " points="204.27897 21.2353457 204.953891 21.2356905 204.972085 56.8740639 204.297164 56.873719"></polygon>
                    <polygon id="矩形" fill="#FFFFFF" transform="translate(202.245848, 44.758741) rotate(-62.934560) translate(-202.245848, -44.758741) " points="201.899291 26.9393822 202.574212 26.9397271 202.592406 62.5781004 201.917485 62.5777556"></polygon>
                </g>
            </g>
        </g>
    </g>
</svg>