<?xml version="1.0" encoding="UTF-8"?>
<svg width="325px" height="330px" viewBox="0 0 325 330" version="1.1" xmlns="http://www.w3.org/2000/svg" xmlns:xlink="http://www.w3.org/1999/xlink">
    <!-- Generator: Sketch 61 (89581) - https://sketch.com -->
    <title>编组 6</title>
    <desc>Created with Sketch.</desc>
    <defs>
        <linearGradient x1="50%" y1="0%" x2="50%" y2="100%" id="linearGradient-1">
            <stop stop-color="#F2D03D" offset="0%"></stop>
            <stop stop-color="#E1481C" offset="100%"></stop>
        </linearGradient>
        <path d="M0,0 L313,0 C319.627417,-1.21743675e-15 325,5.372583 325,12 L325,318 C325,324.627417 319.627417,330 313,330 L0,330 L0,330 L0,0 Z" id="path-2"></path>
        <linearGradient x1="50%" y1="0%" x2="50%" y2="85.6029673%" id="linearGradient-4">
            <stop stop-color="#ED9F39" offset="0%"></stop>
            <stop stop-color="#E24B20" offset="100%"></stop>
        </linearGradient>
    </defs>
    <g id="页面-1" stroke="none" stroke-width="1" fill="none" fill-rule="evenodd">
        <g id="体能检测" transform="translate(-390.000000, -286.000000)">
            <g id="形状结合" transform="translate(390.000000, 286.000000)">
                <g id="编组-6">
                    <mask id="mask-3" fill="white">
                        <use xlink:href="#path-2"></use>
                    </mask>
                    <use id="蒙版" fill="url(#linearGradient-1)" xlink:href="#path-2"></use>
                    <path d="M301.120334,186 C306.948405,186 312.529057,188.111307 316.900109,191.950048 C321.683525,196.145242 324.542578,201.958192 324.954942,208.319533 C325.339814,214.680874 323.250506,220.795439 319.016908,225.566445 C304.144333,242.429483 283.608633,252.90376 261.203553,255.097326 C258.344499,255.371522 255.457955,255.50862 252.571411,255.50862 C249.299994,255.50862 246.028578,255.344102 242.812143,254.987648 L242.812143,254.987648 L224.778115,288.686304 C228.901749,290.797611 233.052875,293.265373 237.121527,296.089589 C241.987416,299.434777 249.272504,305.02837 256.337664,312.513913 C263.540279,320.163974 268.598604,327.841455 271.402675,335.354418 L271.402675,335.354418 L280.337217,357.290077 C282.728925,363.185286 282.124125,367.572418 279.649944,373.440206 C277.175764,379.307995 272.557293,383.859644 266.64675,386.245147 C263.760206,387.396769 260.736207,388 257.657227,388 C252.956284,388 248.420286,386.629021 244.489088,384.051581 C240.447926,381.391883 237.341454,377.607982 235.527055,373.138591 L235.527055,373.138591 L226.949896,352.765848 L226.812441,352.464232 L226.702477,352.162617 L226.647496,352.025519 C226.400078,351.394869 225.053024,348.981947 221.671643,345.335143 C218.372736,341.798018 214.22161,338.233474 209.960521,335.299579 C205.479505,332.201167 201.740743,330.364056 199.074126,329.349532 C189.754712,338.589928 178.236027,345.52708 165.260324,349.530338 C157.260473,351.9981 148.985713,353.2594 140.710953,353.2594 C131.11663,353.2594 121.659762,351.586806 112.615257,348.296457 C106.182387,345.938374 101.06908,340.920592 98.5948995,334.504412 C96.1207188,328.088231 96.5330822,320.904303 99.777008,314.844577 C103.928133,307.002579 112.010457,302.149315 120.917507,302.149315 C123.721579,302.149315 126.498159,302.642867 129.137286,303.602552 C132.876047,304.973531 136.779755,305.65902 140.765935,305.65902 C144.257279,305.65902 147.776113,305.110628 151.184985,304.068685 C160.064544,301.299308 167.349632,295.321841 171.638212,287.205647 L171.638212,287.205647 L196.517473,240.455274 C195.280383,240.345595 194.070783,240.290756 192.833693,240.290756 C191.486639,240.290756 190.112094,240.345595 188.737549,240.482693 C178.483445,241.469798 169.054067,246.268223 162.208834,253.945704 C157.672836,259.045745 151.157494,261.952219 144.339751,261.952219 C138.493897,261.953268 132.850461,259.816862 128.477504,255.947333 C123.721579,251.724718 120.890017,245.911769 120.505144,239.550428 C120.147762,233.216506 122.264561,227.101941 126.498159,222.330935 C141.370735,205.632415 161.823962,195.240396 184.091588,193.07425 C187.005623,192.772635 189.947149,192.635537 192.861184,192.635537 C203.17027,192.635537 211.252594,193.567802 220.95688,197.104927 C226.372587,199.051717 230.331276,201.793674 238.633527,205.440478 C243.03207,207.030813 247.815486,207.88082 252.571411,207.88082 C253.890974,207.88082 255.238028,207.825981 256.557591,207.688883 C266.894168,206.674359 276.351037,201.848514 283.19627,194.088774 C287.732268,188.933894 294.24761,186 301.120334,186 Z M253,143 C269.019048,143 282,155.980952 282,172 C282,188.019048 269.019048,201 253,201 C236.980952,201 224,188.019048 224,172 C224,155.980952 236.980952,143 253,143 Z" id="形状结合" fill="url(#linearGradient-4)" mask="url(#mask-3)"></path>
                </g>
            </g>
        </g>
    </g>
</svg>