<?xml version="1.0" encoding="UTF-8"?>
<svg width="56px" height="64px" viewBox="0 0 56 64" version="1.1" xmlns="http://www.w3.org/2000/svg" xmlns:xlink="http://www.w3.org/1999/xlink">
    <!-- Generator: Sketch 61 (89581) - https://sketch.com -->
    <title>jihuacopy</title>
    <desc>Created with Sketch.</desc>
    <g id="页面-1" stroke="none" stroke-width="1" fill="none" fill-rule="evenodd">
        <g id="体能检测" transform="translate(-170.000000, -693.000000)" fill-rule="nonzero">
            <g id="jihuacopy" transform="translate(170.000000, 693.000000)">
                <path d="M38.005188,25.2054136 C47.8746616,25.2054136 55.8770677,33.8189474 55.8770677,44.4535338 C55.8770677,55.0881203 47.8746617,63.7016541 38.005188,63.7016541 C28.1357143,63.7016541 20.1333083,55.0881203 20.1333083,44.4535338 C20.1333083,33.8189473 28.1357143,25.2054136 38.005188,25.2054136 Z M40.411203,0.000397857332 C41.7398531,0.000397857332 42.8169983,1.07736503 42.8172181,2.40601507 L42.8163985,3.58439786 L51.4211278,3.58496243 C52.6530075,3.58496243 53.6539098,4.65804513 53.6539098,5.99097743 L53.6539098,25.2054136 C53.6539098,26.5335339 52.6530076,27.6114286 51.4211278,27.6114286 C50.1844361,27.6114286 49.1883459,26.5335338 49.1883459,25.2054136 L49.1883459,8.3969925 L42.8163985,8.39639786 L42.8172181,10.6827068 C42.8173602,11.5423879 42.3588074,12.3368269 41.6143254,12.7667085 C40.8698434,13.1965901 39.9525626,13.1965901 39.2080806,12.7667085 C38.4635986,12.3368269 38.0050458,11.5423879 38.0051879,10.6827068 L38.0043985,8.39639786 L16.0043985,8.39639786 L16.0045865,10.6827068 C16.0047286,11.5423879 15.5461758,12.3368269 14.8016938,12.7667085 C14.0572118,13.1965901 13.1399311,13.1965901 12.395449,12.7667085 C11.650967,12.3368269 11.1924142,11.5423879 11.1925563,10.6827068 L11.1923985,8.39639786 L4.47977441,8.3969925 L4.47977441,56.4932331 L20.248797,56.4932331 C21.4854887,56.4932331 22.486391,57.5711278 22.486391,58.8992481 C22.486391,60.2321804 21.4854887,61.3052632 20.248797,61.3052632 L2.24218046,61.3052632 C1.01030079,61.3052632 0.00939848684,60.2321805 0.00939848684,58.8992481 L0.00939848684,5.99097743 C0.00939848684,4.65804513 1.01030072,3.58496243 2.24218046,3.58496243 L11.1923985,3.58439786 L11.1925563,2.40601507 C11.1927761,1.07736503 12.2699214,0.000397857339 13.5985714,0.000397857339 C14.9272215,0.000397857339 16.0043667,1.07736503 16.0045865,2.40601507 L16.0043985,3.58439786 L38.0043985,3.58439786 L38.0051879,2.40601507 C38.0054077,1.07736503 39.0825529,0.000397857332 40.411203,0.000397857332 Z M38.005188,30.0174436 C30.5994737,30.0174436 24.5988722,36.48 24.5988722,44.4535338 C24.5988722,52.4270676 30.5994737,58.8896241 38.005188,58.8896241 C45.4060902,58.8896241 51.4115037,52.4270677 51.4115037,44.4535338 C51.4115037,36.4799999 45.4060902,30.0174436 38.005188,30.0174436 Z M15.4223309,27.524812 C16.6590226,27.524812 17.6599248,28.6027068 17.6599248,29.930827 C17.6599248,31.2637593 16.6590226,32.3368421 15.4223309,32.3368421 L11.1059399,32.3368421 C9.8740602,32.3368421 8.87315789,31.2637594 8.87315789,29.930827 C8.87315789,28.6027067 9.87406013,27.524812 11.1059399,27.524812 L15.4223309,27.524812 Z M24.5988722,17.9873684 C25.8355639,17.9873684 26.8316541,19.0652632 26.8316541,20.3933835 C26.8316541,21.7215038 25.8355639,22.7993985 24.5988722,22.7993985 L11.1059399,22.7993985 C9.8740602,22.7993985 8.87315789,21.7215038 8.87315789,20.3933835 C8.87315789,19.0652632 9.87406013,17.9873684 11.1059399,17.9873684 L24.5988722,17.9873684 Z" id="形状结合" fill="#333333"></path>
                <path d="M42.3504511,40.2911278 C42.8221295,39.9149464 43.4311212,39.75625 44.0264033,39.8543936 C44.6216854,39.9525372 45.1475027,40.2983284 45.4734586,40.8060151 C46.2066057,41.8847014 45.998109,43.3441784 44.9922557,44.1744361 L39.3236842,48.644812 C37.851203,49.8093233 35.772406,48.6736842 35.772406,46.7055639 L35.772406,35.3539849 C35.772406,34.0258646 36.7684962,32.9479699 38.005188,32.9479699 C39.2370676,32.9479699 40.2379699,34.0258647 40.2379699,35.3539849 L40.2379699,41.9609022 L42.3504511,40.2959399 L42.3504511,40.2911278 Z" id="路径" fill="#0068FF"></path>
            </g>
        </g>
    </g>
</svg>