<?xml version="1.0" encoding="UTF-8"?>
<svg width="48px" height="64px" viewBox="0 0 48 64" version="1.1" xmlns="http://www.w3.org/2000/svg" xmlns:xlink="http://www.w3.org/1999/xlink">
    <!-- Generator: Sketch 61 (89581) - https://sketch.com -->
    <title>shangcheng</title>
    <desc>Created with Sketch.</desc>
    <g id="页面-1" stroke="none" stroke-width="1" fill="none" fill-rule="evenodd">
        <g id="体能检测" transform="translate(-529.000000, -693.000000)" fill-rule="nonzero">
            <g id="shangcheng" transform="translate(529.000000, 693.000000)">
                <path d="M23.59375,0.0234375 C27.8359375,0.0234375 31.828125,1.6875 34.84375,4.703125 C37.859375,7.71875 39.5234375,11.7109375 39.5234375,15.953125 L47.1171875,15.953125 L47.1171875,63.7578125 L0.0703125,63.7578125 L0.0703125,15.953125 L7.6640625,15.953125 C7.6640625,11.7109375 9.328125,7.71875 12.34375,4.703125 C15.359375,1.6875 19.3515625,0.0234375 23.59375,0.0234375 Z M43.2109375,19.859375 L39.5233125,19.8584375 L39.5234375,27.78125 L35.6171875,27.78125 L35.6163125,19.8584375 L11.5703125,19.8584375 L11.5703125,27.78125 L7.6640625,27.78125 L7.6633125,19.8584375 L3.9765625,19.859375 L3.9765625,59.8515625 L43.2109375,59.8515625 L43.2109375,19.859375 Z M23.59375,3.9296875 C16.96875,3.9296875 11.5703125,9.3203125 11.5703125,15.953125 L35.6171875,15.953125 C35.6171875,9.328125 30.2265625,3.9296875 23.59375,3.9296875 Z" id="形状结合" fill="#333333"></path>
                <path d="M23.59375,53.0703125 L12.734375,42.2109375 L23.59375,31.3515625 L34.453125,42.2109375 L23.59375,53.0703125 Z M18.2578125,42.2109375 L23.59375,47.546875 L28.9296875,42.2109375 L23.59375,36.875 L18.2578125,42.2109375 Z" id="形状" fill="#0068FF"></path>
            </g>
        </g>
    </g>
</svg>