<?xml version="1.0" encoding="UTF-8"?>
<svg width="64px" height="64px" viewBox="0 0 64 64" version="1.1" xmlns="http://www.w3.org/2000/svg" xmlns:xlink="http://www.w3.org/1999/xlink">
    <!-- Generator: Sketch 61 (89581) - https://sketch.com -->
    <title>ketang</title>
    <desc>Created with Sketch.</desc>
    <g id="页面-1" stroke="none" stroke-width="1" fill="none" fill-rule="evenodd">
        <g id="体能检测" transform="translate(-521.000000, -1043.000000)" fill-rule="nonzero">
            <g id="ketang" transform="translate(521.000000, 1043.000000)">
                <path d="M62.9397197,21.4217407 C62.663852,21.0467651 62.3328033,20.7157165 61.9578277,20.4398488 L34.6324359,0.957790909 C33.0348993,-0.253961073 30.8372828,-0.2940392 29.1966255,0.858657553 L2.13322881,19.3281394 C1.06179966,20.0736728 0.331367483,21.2151854 0.103356083,22.5004057 C-0.132675602,23.7867785 0.138760829,25.0967545 0.912944853,26.1777798 C1.2197861,26.647483 1.65644479,27.0510972 2.12614786,27.3886225 L31.9605569,47.4064725 L53.5102526,32.9259266 L53.5102526,44.9092569 C53.1189191,45.8393563 52.3442642,46.5546209 51.3859672,46.8706804 L51.1121704,46.9698138 L33.9219805,59.4629725 C33.3210499,59.8951382 32.6015647,60.13167 31.8614236,60.1403836 C31.1509681,60.1403836 30.4735571,59.9326757 29.8645953,59.5290614 L9.39120414,45.5843076 C8.41987474,44.8904607 7.84254731,43.7709552 7.84047574,42.5772635 L7.84047574,41.6614604 C7.83059189,41.3501515 8.00173071,41.0612397 8.27949472,40.9203209 C8.51642114,40.772617 8.81675232,40.772617 9.05367874,40.9203209 L30.9102158,55.8044809 C31.7198045,56.3803983 32.8338743,56.1420062 33.4121519,55.3347778 C33.9880693,54.5275493 33.7496773,53.41584 32.9400885,52.8375622 L11.0505071,37.9628434 C9.6841598,37.0467195 7.91704693,36.9827268 6.48801404,37.7976213 C5.04078229,38.5896481 4.15388,40.1205779 4.18670475,41.770035 L4.18670475,42.5772635 C4.18670475,44.9423013 5.33381892,47.1680804 7.26455836,48.5181818 L27.8347225,62.4959801 C29.0479255,63.3032086 30.4334317,63.7493085 31.8519823,63.7493085 C33.3389821,63.7493085 34.7551724,63.2796053 36.0085008,62.4629356 L52.8021575,50.2412134 C54.7840771,49.4805184 56.3212469,47.8723355 56.9917205,45.8581043 L57.0908537,45.5843076 L57.0908537,30.636419 L61.8586945,27.4971971 L61.8917389,27.4617924 C62.84239,26.823146 63.4891816,25.8222401 63.6808593,24.6931403 C63.8859718,23.5473269 63.6186301,22.3672776 62.9397197,21.4217407 L62.9397197,21.4217407 Z M60.1356629,24.0511341 C60.0877605,24.2098247 59.9921653,24.349921 59.8618661,24.452388 L54.6927715,27.8654066 C54.5438408,27.9040033 54.4052348,27.974918 54.286797,28.0731145 L31.9581966,43.0564079 L4.18670475,24.4547483 C4.05834155,24.3592981 3.94462956,24.2455861 3.84917941,24.1172229 C3.64648341,23.8330207 3.57201531,23.4769433 3.64383182,23.135331 C3.71404178,22.7974934 3.90758327,22.4979248 4.18670475,22.2950581 L31.217057,3.79253182 C31.5976954,3.5302561 32.1040962,3.54360754 32.4703854,3.82557627 L59.8713074,23.3737231 L60.0034852,23.5059008 C60.1757883,23.7466531 60.1757883,23.9520007 60.1356629,24.0487737 L60.1356629,24.0511341 Z" id="形状" fill="#333333"></path>
                <path d="M43.3490872,20.22506 L30.584492,11.1236769 C29.9826111,10.6917389 29.1541398,11.0906325 29.1541398,11.8246911 L29.1541398,30.0699428 C29.1541398,30.8016412 29.9826111,31.2335792 30.584492,30.8016412 L43.3490872,21.7002582 C43.5836089,21.5276701 43.7220802,21.2538412 43.7220802,20.9626591 C43.7220802,20.6714769 43.5836089,20.397648 43.3490872,20.22506 Z" id="路径" fill="#0068FF"></path>
            </g>
        </g>
    </g>
</svg>