<?xml version="1.0" encoding="UTF-8"?>
<svg width="32px" height="32px" viewBox="0 0 32 32" version="1.1" xmlns="http://www.w3.org/2000/svg" xmlns:xlink="http://www.w3.org/1999/xlink">
    <!-- Generator: Sketch 61 (89581) - https://sketch.com -->
    <title>形状结合</title>
    <desc>Created with Sketch.</desc>
    <g id="页面-1" stroke="none" stroke-width="1" fill="none" fill-rule="evenodd">
        <g id="体能检测" transform="translate(-477.000000, -313.000000)" fill="#FFFFFF" fill-rule="nonzero">
            <path d="M503.159368,318.054565 C503.913837,318.123095 504.359828,318.88804 504.03091,319.536298 L502.562854,322.397896 C504.19444,323.749978 505.426492,325.405816 506.117779,327.250574 L507.909179,327.245017 C508.191606,327.238056 508.465233,327.343246 508.66982,327.537432 C508.874408,327.731618 508.993184,327.998879 509,328.280379 L509,332.101399 C509,332.48665 508.777004,332.838562 508.416494,333.018222 L506.095479,334.17027 C505.123589,336.718852 503.11291,338.906261 500.45926,340.410221 L500.45926,343.79413 C500.45926,344.459058 499.888762,344.999946 499.190042,344.999946 L495.936161,344.999946 C495.439632,345.00449 494.98534,344.722126 494.771008,344.275693 L493.957073,342.492056 C492.125568,342.705732 490.27235,342.64643 488.458368,342.316101 L488.458368,343.792278 C488.458368,344.457206 487.88787,344.998038 487.18915,344.998038 L483.948277,344.998038 C483.486573,345.00166 483.058568,344.75759 482.827723,344.359041 C481.103222,341.278887 479.228199,338.183916 477.843766,334.957441 C477.161208,333.362009 476.886029,331.622835 477.04284,329.895468 C477.306542,327.085125 478.644588,324.483517 480.779878,322.629417 C482.066671,321.514993 483.534707,320.627432 485.120864,320.004897 C485.328993,320.304948 485.566855,320.584625 485.830734,320.838372 C486.185669,321.175466 486.585203,321.464404 487.020045,321.695925 C486.568692,321.836917 486.125708,322.003261 485.69322,322.194158 C485.489386,322.279375 485.332731,322.44862 485.263903,322.657976 C485.195075,322.867332 485.220861,323.096161 485.334568,323.285084 C485.556786,323.637656 486.007142,323.77089 486.386365,323.596248 C489.277877,322.297879 492.5076,322.542365 493.923624,322.746104 C494.33246,322.812351 494.726011,322.562011 494.837907,322.164523 L494.837907,322.160819 C494.88806,321.945274 494.843747,321.718642 494.716059,321.537641 C494.588371,321.356639 494.389392,321.238398 494.168919,321.212509 C493.863933,321.168075 493.557827,321.131637 493.25092,321.103232 C493.887074,320.587194 494.392516,319.929241 494.726409,319.182534 C494.754283,319.117709 494.784016,319.049178 494.808174,318.984352 C495.235583,319.052883 495.662991,319.138082 496.084825,319.239952 C498.51548,317.895278 501.427433,317.891574 503.159368,318.054565 Z M499.222128,325.623085 C498.672034,325.861273 498.333217,326.301453 498.333333,326.777778 C498.333217,327.254103 498.672034,327.694283 499.222128,327.93247 C499.772222,328.170658 500.45,328.170658 501.000094,327.93247 C501.550188,327.694283 501.889005,327.254103 501.888889,326.777778 C501.889005,326.301453 501.550188,325.861273 501.000094,325.623085 C500.45,325.384898 499.772222,325.384898 499.222128,325.623085 Z M489.759177,313 C490.882214,312.999509 491.959424,313.443818 492.753705,314.235132 C493.547987,315.026445 493.994239,316.099905 493.994239,317.219237 C493.994239,319.551116 492.0709,321.48663 489.731302,321.48663 C487.393068,321.485608 485.498098,319.596061 485.498098,317.265542 C485.498098,314.935515 487.421437,313 489.759177,313 Z" id="形状结合"></path>
        </g>
    </g>
</svg>