<?xml version="1.0" encoding="UTF-8"?>
<svg width="39px" height="48px" viewBox="0 0 39 48" version="1.1" xmlns="http://www.w3.org/2000/svg" xmlns:xlink="http://www.w3.org/1999/xlink">
    <!-- Generator: Sketch 61 (89581) - https://sketch.com -->
    <title>形状</title>
    <desc>Created with Sketch.</desc>
    <g id="页面-1" stroke="none" stroke-width="1" fill="none" fill-rule="evenodd">
        <g id="附近设备" transform="translate(-92.000000, -216.000000)" fill="#FFFFFF" fill-rule="nonzero">
            <g id="编组-2" transform="translate(32.000000, 158.000000)">
                <path d="M77.4865274,105.280344 C75.6973144,103.457531 60,87.1722125 60,77.2001399 C60,66.5961954 68.5961954,58 79.2001399,58 C89.8040843,58 98.4002797,66.5961954 98.4002797,77.2001399 C98.4002797,87.1722125 82.7029654,103.457531 80.9137524,105.280344 C80.4623855,105.740643 79.8448155,106 79.2001399,106 C78.5554642,106 77.9378943,105.740643 77.4865274,105.280344 Z M79.2001399,62.800035 C71.2507456,62.8086328 64.8086328,69.2507456 64.800035,77.2001399 C64.800035,83.258984 74.0137021,94.4946659 79.2001399,100.114307 C84.3853776,94.4922658 93.6002448,83.251784 93.6002448,77.2001399 C93.5916469,69.2507456 87.1495341,62.8086328 79.2001399,62.800035 Z M74.4001049,77.2001399 C74.4001049,74.5491538 76.5491538,72.4001049 79.2001399,72.4001049 C81.851126,72.4001049 84.0001748,74.5491538 84.0001748,77.2001399 C84.0001748,79.851126 81.851126,82.0001748 79.2001399,82.0001748 C76.5491538,82.0001748 74.4001049,79.851126 74.4001049,77.2001399 Z" id="形状"></path>
            </g>
        </g>
    </g>
</svg>