<?xml version="1.0" encoding="UTF-8"?>
<svg width="146px" height="145px" viewBox="0 0 146 145" version="1.1" xmlns="http://www.w3.org/2000/svg" xmlns:xlink="http://www.w3.org/1999/xlink">
    <!-- Generator: Sketch 61 (89581) - https://sketch.com -->
    <title>编组</title>
    <desc>Created with Sketch.</desc>
    <defs>
        <linearGradient x1="50%" y1="100%" x2="50%" y2="0%" id="linearGradient-1">
            <stop stop-color="#E07F2D" offset="0%"></stop>
            <stop stop-color="#F2B000" offset="100%"></stop>
        </linearGradient>
        <circle id="path-2" cx="60" cy="60" r="60"></circle>
        <filter x="-12.5%" y="-12.5%" width="125.0%" height="125.0%" filterUnits="objectBoundingBox" id="filter-3">
            <feGaussianBlur stdDeviation="7" in="SourceAlpha" result="shadowBlurInner1"></feGaussianBlur>
            <feOffset dx="0" dy="16" in="shadowBlurInner1" result="shadowOffsetInner1"></feOffset>
            <feComposite in="shadowOffsetInner1" in2="SourceAlpha" operator="arithmetic" k2="-1" k3="1" result="shadowInnerInner1"></feComposite>
            <feColorMatrix values="0 0 0 0 0.6075351   0 0 0 0 0.0891268461   0 0 0 0 0.00452641433  0 0 0 0.333151224 0" type="matrix" in="shadowInnerInner1"></feColorMatrix>
        </filter>
        <linearGradient x1="50%" y1="0%" x2="50%" y2="100%" id="linearGradient-4">
            <stop stop-color="#FFCB73" stop-opacity="0.426464161" offset="0%"></stop>
            <stop stop-color="#D97008" stop-opacity="0.659418706" offset="100%"></stop>
        </linearGradient>
        <linearGradient x1="0%" y1="55.6412189%" x2="100%" y2="55.6412189%" id="linearGradient-5">
            <stop stop-color="#F0DBC5" offset="0%"></stop>
            <stop stop-color="#FFD47B" offset="100%"></stop>
        </linearGradient>
        <path d="M43.9614046,0 C57.6250896,-0.00364912187 69.6315636,9.01507729 73.3697344,22.0902233 C77.1079051,35.1653694 71.6696661,49.1206158 60.0494602,56.2718228 C58.9661935,55.9255681 57.8351593,55.7499976 56.6973574,55.7514757 L50.2818335,55.7514757 L49.300316,55.7278235 L47.6565291,55.6467305 L46.3761413,55.5588797 L43.1768699,55.2885695 L34.7541598,54.4877756 L31.8775326,54.2512542 L30.2812932,54.1498879 L28.8412815,54.092447 L27.4827799,54.0654159 L26.9801343,54.0620371 C26.2696105,54.0625486 25.5593348,54.08847 24.850683,54.1397512 C14.7254324,46.0668324 10.8267645,32.5136663 15.1261378,20.3337496 C19.4255111,8.15383294 30.9858596,0.00182866335 43.9614046,0 Z" id="path-6"></path>
        <filter x="-54.8%" y="-50.6%" width="209.6%" height="218.8%" filterUnits="objectBoundingBox" id="filter-7">
            <feMorphology radius="1" operator="dilate" in="SourceAlpha" result="shadowSpreadOuter1"></feMorphology>
            <feOffset dx="0" dy="5" in="shadowSpreadOuter1" result="shadowOffsetOuter1"></feOffset>
            <feGaussianBlur stdDeviation="10" in="shadowOffsetOuter1" result="shadowBlurOuter1"></feGaussianBlur>
            <feComposite in="shadowBlurOuter1" in2="SourceAlpha" operator="out" result="shadowBlurOuter1"></feComposite>
            <feColorMatrix values="0 0 0 0 1   0 0 0 0 0.541176471   0 0 0 0 0.176470588  0 0 0 0.3 0" type="matrix" in="shadowBlurOuter1"></feColorMatrix>
        </filter>
        <linearGradient x1="50%" y1="0%" x2="50%" y2="100%" id="linearGradient-8">
            <stop stop-color="#D0ACFD" offset="0%"></stop>
            <stop stop-color="#A870EE" offset="100%"></stop>
        </linearGradient>
        <linearGradient x1="50%" y1="0%" x2="50%" y2="100%" id="linearGradient-9">
            <stop stop-color="#FEA000" offset="0%"></stop>
            <stop stop-color="#FF8F36" offset="100%"></stop>
        </linearGradient>
        <linearGradient x1="50%" y1="0%" x2="50%" y2="100%" id="linearGradient-10">
            <stop stop-color="#EA9D36" offset="0%"></stop>
            <stop stop-color="#F29348" offset="100%"></stop>
        </linearGradient>
        <path d="M27.1700326,46.5975912 C29.5032591,46.5975912 32.3696976,46.8138393 35.3889675,47.0909072 L42.7248763,47.7937137 C45.7441461,48.0707816 48.6105846,48.2870298 50.9438111,48.2870298 L56.8872557,48.2870298 C59.2306711,48.2870298 61.1325733,50.179201 61.1325733,52.5106263 L61.1325733,52.7471478 C61.132383,55.0668571 59.4862032,57.063846 57.1997111,57.5181224 L56.3676289,57.6836874 L53.2600564,58.163488 L52.2309914,58.3020219 L51.4294754,58.3932516 L50.9438111,58.4236615 L40.7380676,59.8765787 C39.7747247,60.0141778 39.058851,60.8342995 39.0569219,61.8025388 C39.0569219,62.7553822 39.8040978,63.5392817 40.7550489,63.5933437 L44.0154528,63.7656665 L46.9158538,63.8737905 L48.6479434,63.9143371 L49.4562518,63.9210948 L50.9506036,63.9210948 L52.2887277,63.887306 L53.4638316,63.8298651 L53.9936473,63.7926975 L54.9310134,63.6913312 C55.2162987,63.6575424 55.4744141,63.613617 55.7087556,63.5663127 L56.0381922,63.4919774 C57.1759373,63.2081517 58.2219836,62.9783881 59.1967085,62.7824132 L61.0442707,62.4174944 L61.9069193,62.2519295 C62.7923794,62.1784144 63.669687,62.0280453 64.5288274,61.8025388 C67.2458307,61.1267633 70.0137777,59.9103675 72.6696484,58.5858476 L75.2847641,57.2410545 L77.7911996,55.9232924 C79.8221595,54.8555672 81.700288,53.9196182 83.3338862,53.3553457 C88.2380771,51.665907 89.8716753,58.4236615 86.6010826,60.1131002 C86.1215116,60.373069 85.6556164,60.6572658 85.2052222,60.9645772 L83.9689857,61.8126754 L82.542559,62.8364752 L76.5753406,67.1986057 L74.7583447,68.4994735 L72.9617263,69.7496581 C70.3058556,71.5641151 67.8605527,73.0643366 66.2269544,73.6286091 L63.6491976,74.4969806 L60.218981,75.6221467 L56.289515,76.8621947 L54.2517626,77.487287 L51.2324927,78.3826894 L49.3136092,78.9233098 L47.5135945,79.4064892 L45.8901851,79.8119545 C44.3618707,80.1701155 43.1595968,80.3863636 42.4837422,80.3863636 L41.7399626,80.3660904 L40.7550489,80.3086495 L39.5459824,80.2072831 L38.1433295,80.0721281 L36.5674676,79.8930476 L34.8455668,79.6734205 L32.0334684,79.2713341 L31.0485547,79.1192847 L29.0209911,78.7813969 L26.9424836,78.4097204 L24.836806,77.9907397 C23.7783605,77.7728305 22.7231467,77.5396634 21.6714972,77.2913121 L19.5997823,76.7777227 C18.2687906,76.433295 16.9482146,76.0501916 15.63975,75.6289045 L14.7057801,75.3180478 C10.1174409,73.7367332 6.33061759,72.9866225 3.35210277,73.0710944 C1.55244588,73.1222122 0.0517780646,71.7124185 0,69.9219808 L0,53.2201906 C0,51.4293856 1.46038925,49.9764684 3.26040391,49.9764684 L6.53439284,49.9764684 C8.26648242,49.9764684 10.5317839,49.5541088 13.0246344,49.0101095 L16.8997603,48.1383592 L19.5624235,47.5639501 C22.2250867,47.0199508 24.8605798,46.5975912 27.1700326,46.5975912 Z" id="path-11"></path>
        <filter x="-37.9%" y="-84.3%" width="175.9%" height="298.3%" filterUnits="objectBoundingBox" id="filter-12">
            <feMorphology radius="1" operator="dilate" in="SourceAlpha" result="shadowSpreadOuter1"></feMorphology>
            <feOffset dx="0" dy="5" in="shadowSpreadOuter1" result="shadowOffsetOuter1"></feOffset>
            <feGaussianBlur stdDeviation="10" in="shadowOffsetOuter1" result="shadowBlurOuter1"></feGaussianBlur>
            <feComposite in="shadowBlurOuter1" in2="SourceAlpha" operator="out" result="shadowBlurOuter1"></feComposite>
            <feColorMatrix values="0 0 0 0 1   0 0 0 0 0.541176471   0 0 0 0 0.176470588  0 0 0 0.3 0" type="matrix" in="shadowBlurOuter1"></feColorMatrix>
        </filter>
        <rect id="path-13" x="0" y="93" width="126" height="36" rx="18"></rect>
        <filter x="-14.3%" y="-33.3%" width="128.6%" height="200.0%" filterUnits="objectBoundingBox" id="filter-14">
            <feOffset dx="0" dy="6" in="SourceAlpha" result="shadowOffsetOuter1"></feOffset>
            <feGaussianBlur stdDeviation="5" in="shadowOffsetOuter1" result="shadowBlurOuter1"></feGaussianBlur>
            <feColorMatrix values="0 0 0 0 0   0 0 0 0 0   0 0 0 0 0  0 0 0 0.203562063 0" type="matrix" in="shadowBlurOuter1"></feColorMatrix>
        </filter>
    </defs>
    <g id="页面-1" stroke="none" stroke-width="1" fill="none" fill-rule="evenodd">
        <g id="步数银行" transform="translate(-587.000000, -584.000000)">
            <g id="编组" transform="translate(597.000000, 584.000000)">
                <g id="椭圆形">
                    <use fill="#FFFFFF" fill-rule="evenodd" xlink:href="#path-2"></use>
                    <use fill="black" fill-opacity="1" filter="url(#filter-3)" xlink:href="#path-2"></use>
                    <circle stroke="url(#linearGradient-1)" stroke-width="10" stroke-linejoin="square" cx="60" cy="60" r="55"></circle>
                </g>
                <g id="编组-8" transform="translate(60.500000, 70.500000) rotate(-360.000000) translate(-60.500000, -70.500000) translate(16.000000, 30.000000)" fill-rule="nonzero">
                    <g id="路径">
                        <use fill="black" fill-opacity="1" filter="url(#filter-7)" xlink:href="#path-6"></use>
                        <use stroke="url(#linearGradient-5)" stroke-width="2" fill="url(#linearGradient-4)" xlink:href="#path-6"></use>
                    </g>
                    <path d="M42.7701015,16.3916809 C51.114452,15.5964312 56.8901076,20.0182267 58.6173335,28.5224766 L58.6173335,28.5224766 C59.8782344,34.7497738 59.1071049,48.2949223 48.6551742,50.4034996 C48.2513733,50.4863921 47.6938675,50.5459711 47.047786,50.5459711 C45.3674532,50.5459711 43.0827216,50.1392799 41.2903665,48.6498057 C39.6751629,47.3053934 38.8467197,45.349649 38.8988231,42.9923943 C38.9339906,42.2969782 39.0360581,41.6065093 39.2036276,40.930444 C39.505827,39.5057295 39.7481076,38.3815003 38.6982252,36.9671475 C38.461155,36.6459391 37.7238927,36.1459939 37.012682,35.6641814 C34.2928875,33.8198238 29.7364501,30.7294887 31.5496465,24.020379 C31.5594963,23.983686 31.5707941,23.9473925 31.5835136,23.9115826 C31.6799048,23.6395917 34.066238,17.2180153 42.7701015,16.3916809 Z M41.3077406,28.2148748 C40.7893063,28.2351761 40.3206478,28.5421188 40.0783043,29.0200805 C39.8359607,29.4980422 39.8567499,30.0744092 40.1328406,30.5320696 C40.6532369,31.4050535 42.0843268,32.8853306 44.1372903,32.8853306 C46.1798459,32.8853306 47.6265477,31.4158981 48.1599539,30.5483364 C48.5909148,29.8451854 48.3941834,28.9112348 47.720219,28.4607662 L47.720219,28.4580551 C47.0447001,28.0095232 46.1481736,28.2157606 45.7166932,28.9189472 C45.7114892,28.9270806 45.0922176,29.8597094 44.1372903,29.8597094 C43.2083829,29.8597094 42.628141,28.9813032 42.5917133,28.9216583 C42.3156225,28.4639979 41.8261749,28.1945736 41.3077406,28.2148748 Z M39.2091371,23.1415289 C38.4072717,23.1415289 37.7572314,23.8188373 37.7572314,24.6543395 L37.7572314,26.1291943 C37.7572314,26.9646965 38.4072717,27.6420049 39.2091371,27.6420049 C40.0110026,27.6420049 40.6610429,26.9646965 40.6610429,26.1291943 L40.6610429,24.6543395 C40.6610429,23.8188373 40.0110026,23.1415289 39.2091371,23.1415289 Z M49.0966673,23.1415289 C48.2948019,23.1415289 47.6447616,23.8188373 47.6447616,24.6543395 L47.6447616,26.1291943 C47.677688,26.9390665 48.317402,27.5779769 49.0953663,27.5779769 C49.8733306,27.5779769 50.5130446,26.9390665 50.5459711,26.1291943 L50.5459711,24.6543395 C50.5459711,23.8198949 49.8975164,23.1430243 49.0966673,23.1415289 Z M27.0739692,14.166536 C29.9166805,14.1708155 32.2200809,16.4611502 32.2243848,19.2877368 C32.2200809,22.1143233 29.9166805,24.404658 27.0739692,24.4089375 C24.2312579,24.404658 21.9278576,22.1143233 21.9235537,19.2877368 C21.9278576,16.4611502 24.2312579,14.1708155 27.0739692,14.166536 Z M27.0739692,17.0574111 C25.8771579,17.1147824 24.9364531,18.096332 24.9364531,19.2877368 C24.9364531,20.4791415 25.8771579,21.4606911 27.0739692,21.5180624 C28.2707806,21.4606911 29.2114854,20.4791415 29.2114854,19.2877368 C29.2114854,18.096332 28.2707806,17.1147824 27.0739692,17.0574111 Z M32.8860972,11.2109012 C33.5594529,10.7759888 34.4598929,10.966189 34.8972863,11.6357252 L34.8972863,11.6357252 L36.684431,14.3737672 C37.1218244,15.0433034 36.9305392,15.9386358 36.2571836,16.3735482 C35.5838279,16.8084606 34.6833879,16.6182604 34.2459945,15.9487242 L34.2459945,15.9487242 L32.4588498,13.2106822 C32.0214564,12.541146 32.2127416,11.6458136 32.8860972,11.2109012 Z M53.7797456,10.9240052 L53.9246333,10.9279312 C54.4583179,10.9688606 54.9262043,11.298102 55.1425259,11.7849354 C55.3588475,12.2717689 55.2886018,12.8374211 54.9596787,13.2573092 L54.9596787,13.2573092 L53.3705268,15.4850445 C53.1490901,15.7997632 52.8102078,16.0132909 52.4294475,16.0780131 C52.0486871,16.1427353 51.6577123,16.0532697 51.3437067,15.8295663 C50.6890672,15.3674645 50.5351077,14.465184 50.9998246,13.814243 L50.9998246,13.814243 L52.5889766,11.5890981 C52.87782,11.1410069 53.3909486,10.8870017 53.9246333,10.9279312 Z M39.9246898,9.25906351 C40.6708128,9.08843546 41.4224042,9.5213936 41.6446693,10.2498666 L41.6446693,10.2498666 L42.2959611,13.0552588 C42.4758103,13.833523 41.9871,14.6094005 41.204396,14.7882296 C40.421692,14.9670587 39.6413884,14.4811205 39.4615392,13.7028563 L39.4615392,13.7028563 L39.4641444,13.7028563 L38.8128526,10.897464 C38.6927195,10.1456349 39.1785668,9.42969155 39.9246898,9.25906351 Z M45.8363833,10.239505 C46.0263041,9.46338672 46.8130227,8.98730646 47.5935685,9.17614999 C48.3741143,9.36499352 48.8529105,10.1472496 48.6629897,10.9233679 L48.6629897,10.9233679 L47.9778307,13.720989 C47.7852185,14.4944303 47.00126,14.968614 46.221948,14.7830488 C45.4403979,14.5939504 44.9636523,13.814243 45.1538295,13.0371261 L45.1538295,13.0371261 Z" id="形状结合" fill="#FFFFFF"></path>
                    <path d="M27.1700326,46.5975912 C28.725517,46.5975912 29.3425031,57.3255264 29.0209911,78.7813969 L26.9424836,78.4097204 L24.836806,77.9907397 C23.7783605,77.7728305 22.7231467,77.5396634 21.6714972,77.2913121 L19.5997823,76.7777227 C18.2687906,76.433295 16.9482146,76.0501916 15.63975,75.6289045 L14.7057801,75.3180478 C10.1174409,73.7367332 6.33061759,72.9866225 3.35210277,73.0710944 C1.55244588,73.1222122 0.0517780646,71.7124185 -1.13586826e-12,69.9219808 L-1.13586826e-12,53.2201906 C-1.13586826e-12,51.4293856 1.46038925,49.9764684 3.26040391,49.9764684 L6.53439284,49.9764684 C8.26648242,49.9764684 10.5317839,49.5541088 13.0246344,49.0101095 L16.8997603,48.1383592 L19.5624235,47.5639501 C22.2250867,47.0199508 24.8605798,46.5975912 27.1700326,46.5975912 Z" id="路径" fill="url(#linearGradient-8)"></path>
                    <g id="路径">
                        <use fill="black" fill-opacity="1" filter="url(#filter-12)" xlink:href="#path-11"></use>
                        <use stroke="url(#linearGradient-10)" stroke-width="2" fill="url(#linearGradient-9)" xlink:href="#path-11"></use>
                    </g>
                </g>
                <path d="M60,0 C93.137085,0 120,26.862915 120,60 C120,93.137085 93.137085,120 60,120 C26.862915,120 0,93.137085 0,60 C0,26.862915 26.862915,0 60,0 Z M60,10 C32.3857625,10 10,32.3857625 10,60 C10,87.6142375 32.3857625,110 60,110 C87.6142375,110 110,87.6142375 110,60 C110,32.3857625 87.6142375,10 60,10 Z" id="椭圆形备份-3" fill="url(#linearGradient-1)" fill-rule="nonzero"></path>
                <g id="矩形备份-7">
                    <use fill="black" fill-opacity="1" filter="url(#filter-14)" xlink:href="#path-13"></use>
                    <use fill="#FFFFFF" fill-rule="evenodd" xlink:href="#path-13"></use>
                </g>
                <text id="点我存入" font-family="AlibabaPuHuiTi-Bold, Alibaba PuHuiTi" font-size="24" font-weight="bold" fill="#E58E1F">
                    <tspan x="16" y="119">点我存入</tspan>
                </text>
            </g>
        </g>
    </g>
</svg>