<?xml version="1.0" encoding="UTF-8"?>
<svg width="67px" height="67px" viewBox="0 0 67 67" version="1.1" xmlns="http://www.w3.org/2000/svg" xmlns:xlink="http://www.w3.org/1999/xlink">
    <!-- Generator: Sketch 61 (89581) - https://sketch.com -->
    <title>排行榜</title>
    <desc>Created with Sketch.</desc>
    <g id="页面-1" stroke="none" stroke-width="1" fill="none" fill-rule="evenodd">
        <g id="步数银行" transform="translate(-168.000000, -1601.000000)" fill-rule="nonzero">
            <g id="排行榜" transform="translate(168.000000, 1601.000000)">
                <path d="M58.2094475,-4.23580901e-05 L58.2091755,8.68695764 L60.2767503,8.68759712 C63.6828938,8.68759712 66.4540146,11.4587179 66.4540146,14.8648615 L66.4540146,29.428965 C66.4540146,32.8351086 63.6828288,35.6062293 60.2766853,35.6062293 L55.5452752,35.6063879 C54.3712644,37.9190828 52.8442763,40.0219757 50.9913467,41.8748521 C48.7288424,44.1374215 46.0935564,45.9140027 43.1587056,47.1553727 C40.8174764,48.1456212 38.3648518,48.7598711 35.8416798,48.9898934 L35.8411755,62.0109576 L49.5774684,62.0110431 C50.8343791,62.0110431 51.8533026,63.0299667 51.8533026,64.2868774 C51.8533026,65.5437881 50.8343791,66.5627116 49.5774684,66.5627116 L17.5532297,66.5627116 C16.296319,66.5627116 15.2773955,65.5437881 15.2773955,64.2868774 C15.2773955,63.0299667 16.296319,62.0110431 17.5532297,62.0110431 L31.2891755,62.0109576 L31.2899504,48.9899758 C28.7664775,48.7600177 26.3135311,48.1457394 23.9721226,47.1553727 C21.0372718,45.9140027 18.4019208,44.1374215 16.1394165,41.8748521 C14.2865401,40.0219757 12.759518,37.9190828 11.5855289,35.6063879 L6.1774399,35.6062293 C2.77129633,35.6062293 0.000175548551,32.8351085 0.000175548551,29.428965 L0.000175548551,14.8648615 C0.000175548551,11.4587179 2.77129633,8.68759712 6.1774399,8.68759712 L8.92117555,8.68695764 L8.92138065,-4.23580901e-05 L58.2094475,-4.23580901e-05 Z M53.657714,4.55162608 L13.4729841,4.55162608 L13.4729841,24.4489195 C13.4729841,35.5278755 22.486393,44.5412845 33.5653491,44.5412845 C44.6443052,44.5412845 53.657714,35.5278756 53.657714,24.4489195 L53.657714,4.55162608 Z M58.2094475,24.4489195 C58.2094475,26.7054814 57.9093709,28.9168148 57.3148435,31.0549139 L60.2766853,31.0545609 C61.1730388,31.0545609 61.9022811,30.3253185 61.9022811,29.428965 L61.9023461,14.8648615 C61.9023461,13.9685079 61.1731038,13.2392656 60.2767503,13.2392656 L58.2091755,13.2389576 L58.2094475,24.4489195 Z M8.92138065,24.4489195 L8.92117555,13.2389576 L6.1774399,13.2392656 C5.28108632,13.2392656 4.55184399,13.9685079 4.55184399,14.8648615 L4.55184399,29.428965 C4.55184399,30.3253186 5.28108632,31.0545609 6.1774399,31.0545609 L9.81601356,31.0549139 C9.22148711,28.9168149 8.92138065,26.7054815 8.92138065,24.4489195 Z" id="形状" fill="#333333"></path>
                <polygon id="路径" fill="#0068FF" points="33.5764681 13.3567636 30.591614 19.3805067 23.9372698 20.3365522 28.7438317 25.0368 27.5968763 31.6609081 33.5522792 28.5420399 39.4977986 31.6798951 38.3719109 25.0521457 43.1934933 20.3673084 36.5422053 19.3899351 33.5764681 13.3567636"></polygon>
            </g>
        </g>
    </g>
</svg>