<?xml version="1.0" encoding="UTF-8"?>
<svg width="26px" height="33px" viewBox="0 0 26 33" version="1.1" xmlns="http://www.w3.org/2000/svg" xmlns:xlink="http://www.w3.org/1999/xlink">
    <!-- Generator: Sketch 61 (89581) - https://sketch.com -->
    <title>火</title>
    <desc>Created with Sketch.</desc>
    <g id="页面-1" stroke="none" stroke-width="1" fill="none" fill-rule="evenodd">
        <g id="步数银行" transform="translate(-57.000000, -1842.000000)" fill="#EF5959" fill-rule="nonzero">
            <g id="火" transform="translate(57.000000, 1842.000000)">
                <path d="M24.7381466,14.853482 C24.0262235,13.2513159 22.9915817,11.8131576 21.6988483,10.6288389 L20.6309267,9.65018858 C20.5094289,9.54128502 20.3223666,9.55128637 20.2134631,9.67278421 C20.1875337,9.70167699 20.167531,9.73538524 20.1545663,9.77205684 L19.6782058,11.1377963 C19.3800175,11.9968009 18.8332772,12.8746969 18.0590989,13.735924 C18.019551,13.7771773 17.9660832,13.802261 17.9090787,13.8063039 C17.8516635,13.812601 17.7942484,13.7933392 17.7520205,13.7548155 C17.7012009,13.7099257 17.6742182,13.6439072 17.6790477,13.5762729 C17.8153623,11.3700498 17.1556439,8.88008486 15.7076711,6.16934941 C14.5156587,3.91608297 12.853583,2.16066137 10.7788591,0.935681573 L9.26272899,0.0440800108 C9.12233971,-0.0363011853 8.9430563,0.0122238685 8.86230469,0.152613147 C8.83417815,0.201479159 8.82079844,0.257442373 8.82378098,0.313745959 L8.90379176,2.07398303 C8.95750269,3.27562635 8.81896552,4.34095501 8.48818023,5.22366649 C8.08701509,6.30566406 7.50693696,7.31209591 6.76572602,8.21332839 C6.25041308,8.84006729 5.66629912,9.40691007 5.02438039,9.90318561 C3.47829823,11.0917595 2.22108564,12.6146481 1.34684806,14.3578596 C-0.304855873,17.6909011 -0.418945312,21.579573 1.03458378,25.0033675 C2.3545149,28.0782545 4.81885033,30.5190771 7.90625,31.8094693 C9.49572333,32.4762258 11.2029903,32.8177532 12.9265558,32.8140788 C14.6679014,32.8140788 16.3529432,32.4784483 17.9490841,31.8142848 C19.4806432,31.1761333 20.8732859,30.2458595 22.0492659,29.0753974 C24.4736991,26.6865737 25.8375993,23.4244233 25.8349648,20.0208446 C25.8342201,18.2306034 25.4678745,16.4937029 24.7381466,14.853482 Z" id="路径"></path>
            </g>
        </g>
    </g>
</svg>