<?xml version="1.0" encoding="UTF-8"?>
<svg width="24px" height="23px" viewBox="0 0 24 23" version="1.1" xmlns="http://www.w3.org/2000/svg" xmlns:xlink="http://www.w3.org/1999/xlink">
    <!-- Generator: Sketch 61 (89581) - https://sketch.com -->
    <title>提示</title>
    <desc>Created with Sketch.</desc>
    <g id="页面-1" stroke="none" stroke-width="1" fill="none" fill-rule="evenodd">
        <g id="步数银行" transform="translate(-76.000000, -1066.000000)" fill-rule="nonzero">
            <g id="提示" transform="translate(76.000000, 1065.000000)">
                <rect id="矩形" fill="#000000" opacity="0" x="0" y="0" width="24" height="24"></rect>
                <path d="M0.96,20.05444 C0.42980664,20.05444 0,19.6246334 0,19.09444 L0,1.96 C0,1.42980664 0.42980664,1 0.96,1 L23.04,1 C23.5701934,1 24,1.42980664 24,1.96 L24,19.09444 C24,19.6246334 23.5701934,20.05444 23.04,20.05444 L15.81708,20.05444 L12.7128,23.48416 C12.33084,23.9062 11.6676,23.90512 11.28708,23.48176 L8.20668,20.05444 L0.96,20.05444 Z M1.92,2.92 L1.92,18.13444 L8.63448,18.13444 C8.90684878,18.1344297 9.16640147,18.250116 9.34848,18.45268 L12.0036,21.4066 L14.67936,18.45016 C14.8613585,18.2491192 15.1198959,18.1344316 15.39108,18.13444 L22.08,18.13444 L22.08,2.92 L1.92,2.92 Z" id="形状" fill="#304156"></path>
                <path d="M11,9.96 C11,9.42980664 11.4298066,9 11.96,9 C12.4901934,9 12.92,9.42980664 12.92,9.96 L12.92,14.93052 C12.92,15.4607134 12.4901934,15.89052 11.96,15.89052 C11.4298066,15.89052 11,15.4607134 11,14.93052 L11,9.96 Z" id="路径" fill="#304156"></path>
                <path d="M13.2376409,6.27656184 C13.2376409,6.98060184 12.6640409,7.55312184 11.9589209,7.55312184 C11.2516409,7.55312184 10.6823591,6.98060184 10.6823591,6.27656184 C10.6817863,5.93782124 10.8160961,5.61278924 11.0556222,5.37326312 C11.2951483,5.13373701 11.6201803,4.99942721 11.9589209,5 C12.6641609,5 13.2376409,5.57048184 13.2376409,6.27656184" id="路径" fill="#304156"></path>
            </g>
        </g>
    </g>
</svg>