<?xml version="1.0" encoding="UTF-8"?>
<svg width="43px" height="61px" viewBox="0 0 43 61" version="1.1" xmlns="http://www.w3.org/2000/svg" xmlns:xlink="http://www.w3.org/1999/xlink">
    <!-- Generator: Sketch 61 (89581) - https://sketch.com -->
    <title>火苗</title>
    <desc>Created with Sketch.</desc>
    <g id="页面-1" stroke="none" stroke-width="1" fill="none" fill-rule="evenodd">
        <g id="步数银行" transform="translate(-527.000000, -1605.000000)" fill-rule="nonzero">
            <g id="火苗" transform="translate(527.000000, 1605.000000)">
                <path d="M3.56485474,42.5540882 L40.9925357,55.0699518 C42.5920093,55.6048178 43.165358,56.6515143 42.712582,58.2100414 L42.6533235,58.3995214 C42.0970629,60.0629739 40.9872064,60.6165699 39.3237539,60.0603093 L21.388086,54.0627633 C21.2299738,54.1387116 21.0580142,54.2077529 20.8722071,54.269887 L3.56814258,60.0563879 C1.96866903,60.5912539 0.881026054,60.0999951 0.30521365,58.5826115 L0.238572948,58.3956001 C-0.317687648,56.7321476 0.2359083,55.6222911 1.89936079,55.0660305 L13.1431866,51.3059972 L1.89607295,47.5444457 C0.2965994,47.0095797 -0.276749387,45.9628832 0.176026591,44.4043561 L0.235285107,44.2148761 C0.791545703,42.5514236 1.90140225,41.9978276 3.56485474,42.5540882 Z M42.5803446,44.0338574 L42.6469853,44.2208689 C43.2032459,45.8843213 42.6496499,46.9941779 40.9861974,47.5504385 L32.9517219,50.2371772 C31.3522484,50.7720432 30.2646054,50.2807844 29.688793,48.7634008 L29.6221523,48.5763894 C29.0658917,46.9129369 29.6194876,45.8030803 31.2829401,45.2468197 L39.3174156,42.5600811 C40.9168892,42.0252151 42.0045322,42.5164739 42.5803446,44.0338574 Z M22.6224105,0.278135452 C23.214384,0.580699649 37.2375776,7.75015605 37.2375776,22.3653232 C37.2375776,36.9804903 23.214384,44.1499466 22.6224105,44.4525109 C22.2587173,44.6337754 21.8579797,44.7283314 21.4516185,44.7287853 C21.0408143,44.7303748 20.635341,44.6357644 20.2676716,44.4525109 C19.6756982,44.1499467 5.66565951,36.9804903 5.66565951,22.3653232 C5.66565951,7.75015605 19.6756982,0.580699649 20.2676716,0.278135452 C21.0087802,-0.0927155689 21.8813019,-0.0927155689 22.6224105,0.278135452 Z M21.4516185,5.67167148 C18.4785963,7.55283159 10.9276458,13.2226219 10.9276458,22.3653232 C10.9276458,31.5080244 18.4785963,37.1778147 21.4516185,39.0589748 C24.4114859,37.1778147 31.9755913,31.5080244 31.9755913,22.3653232 C31.9755913,13.2226219 24.4246408,7.55283159 21.4516185,5.67167148 Z" id="形状结合" fill="#333333"></path>
                <path d="M25.5428129,28.2850578 C25.4588097,31.228102 23.9214794,33.9381393 21.4384636,35.520289 C18.9604708,33.9350972 17.4283652,31.2255858 17.3472692,28.2850578 C17.4283652,25.3445298 18.9604708,22.6350184 21.4384636,21.0498266 C23.9214794,22.6319763 25.4588097,25.3420136 25.5428129,28.2850578 L25.5428129,28.2850578 Z" id="路径" fill="#0068FF"></path>
            </g>
        </g>
    </g>
</svg>