<?xml version="1.0" encoding="UTF-8"?>
<svg width="30px" height="30px" viewBox="0 0 30 30" version="1.1" xmlns="http://www.w3.org/2000/svg" xmlns:xlink="http://www.w3.org/1999/xlink">
    <!-- Generator: Sketch 61 (89581) - https://sketch.com -->
    <title>形状</title>
    <desc>Created with Sketch.</desc>
    <g id="页面-1" stroke="none" stroke-width="1" fill="none" fill-rule="evenodd">
        <g id="步数银行" transform="translate(-318.000000, -1845.000000)" fill="#3869FF" fill-rule="nonzero">
            <path d="M338.572375,1850.85334 C341.215648,1851.94083 343.322448,1854.03114 344.352599,1856.58832 C345.003757,1858.20463 345.166726,1859.48026 345.290762,1860.60522 L345.356075,1861.19488 C345.466087,1862.14589 345.610511,1863.01261 346.113739,1863.9751 L346.227184,1864.18288 C348.667629,1868.47043 348.060313,1871.15719 347.481046,1872.37715 C346.832341,1873.74343 345.61493,1874.6391 344.053004,1874.8993 C343.650435,1874.96634 343.270429,1875 342.912746,1875 C341.583,1875 340.558404,1874.53516 339.79949,1873.5934 C338.950838,1872.54019 338.54508,1870.98612 338.202348,1869.48469 C337.661376,1867.11547 336.343575,1865.88639 334.284289,1865.82921 L333.932835,1865.82451 C332.453655,1865.7867 328.465732,1865.2864 326.877338,1861.14984 C326.160223,1859.28229 326.105942,1857.15392 326.728381,1855.31052 C327.414736,1853.27777 328.878318,1851.68856 330.849568,1850.83561 C333.263507,1849.79109 336.006016,1849.79745 338.572375,1850.85334 Z M323.838252,1849.88118 C324.48363,1850.5276 324.839084,1851.38982 324.839016,1852.30609 C324.839016,1853.2223 324.483562,1854.0705 323.838183,1854.71699 C323.231026,1855.32516 322.434451,1855.66514 321.580478,1855.70304 L321.419204,1855.70659 L321.419204,1855.70659 C320.504611,1855.70659 319.645466,1855.36358 319.000121,1854.71716 C317.700763,1853.41571 317.667511,1851.32516 318.900303,1849.98311 L319.000258,1849.87874 C320.334394,1848.54259 322.504631,1848.54541 323.838252,1849.88118 Z M327.085035,1845.94018 C328.36043,1845.94018 329.398057,1846.97948 329.398057,1848.25694 C329.398057,1849.53439 328.360465,1850.57369 327.085035,1850.57369 C325.809605,1850.57369 324.772012,1849.53439 324.772012,1848.25694 C324.772012,1846.97948 325.809639,1845.94018 327.085035,1845.94018 Z M340.862663,1846.47738 C341.675961,1846.47738 342.337628,1847.14012 342.337628,1847.95473 C342.337628,1848.76934 341.675961,1849.43208 340.862663,1849.43208 C340.049364,1849.43208 339.387697,1848.76934 339.387697,1847.95473 C339.387697,1847.14012 340.049364,1846.47738 340.862663,1846.47738 Z M332.067356,1845 C333.058622,1845 333.865062,1845.80774 333.865062,1846.80061 C333.865062,1847.79348 333.058622,1848.60129 332.067356,1848.60129 C331.07609,1848.60129 330.269649,1847.79348 330.269649,1846.80061 C330.269649,1845.80774 331.07609,1845 332.067356,1845 Z M336.571807,1845.20151 C337.385105,1845.20151 338.046772,1845.86424 338.046772,1846.67885 C338.046772,1847.49347 337.38514,1848.1562 336.571807,1848.1562 C335.758508,1848.1562 335.096841,1847.49347 335.096841,1846.67885 C335.096841,1845.86424 335.758508,1845.20151 336.571807,1845.20151 Z" id="形状"></path>
        </g>
    </g>
</svg>