<?xml version="1.0" encoding="UTF-8"?>
<svg width="28px" height="30px" viewBox="0 0 28 30" version="1.1" xmlns="http://www.w3.org/2000/svg" xmlns:xlink="http://www.w3.org/1999/xlink">
    <!-- Generator: Sketch 61 (89581) - https://sketch.com -->
    <title>定位</title>
    <desc>Created with Sketch.</desc>
    <g id="页面-1" stroke="none" stroke-width="1" fill="none" fill-rule="evenodd">
        <g id="邀约后分享详情" transform="translate(-70.000000, -895.000000)" fill-rule="nonzero">
            <g id="定位" transform="translate(68.000000, 894.000000)">
                <rect id="矩形" fill="#000000" opacity="0" x="0" y="0" width="32" height="32"></rect>
                <path d="M2,16.0625 C2,23.7944865 8.2680135,30.0625 16,30.0625 C23.7319865,30.0625 30,23.7944865 30,16.0625 C30,8.3305135 23.7319865,2.0625 16,2.0625 C8.2680135,2.0625 2,8.3305135 2,16.0625 Z" id="路径" fill="#69B452"></path>
                <path d="M21.5521875,12.3071875 C21.5521875,16.0690625 17.0353125,21.9634375 16.1496875,23.08375 C16.1135399,23.1295922 16.0583794,23.156343 16,23.156343 C15.9416206,23.156343 15.8864601,23.1295922 15.8503125,23.08375 C14.9646875,21.9640625 10.4478125,16.06875 10.4478125,12.3071875 C10.4478125,9.24079902 12.9336115,6.755 16,6.755 C19.0663885,6.755 21.5521875,9.24079902 21.5521875,12.3071875 L21.5521875,12.3071875 Z" id="路径" fill="#D1F0C7"></path>
                <path d="M10.4478125,12.3071875 C10.4478125,15.373576 12.9336115,17.859375 16,17.859375 C19.0663885,17.859375 21.5521875,15.373576 21.5521875,12.3071875 C21.5521875,9.24079902 19.0663885,6.755 16,6.755 C12.9336115,6.755 10.4478125,9.24079902 10.4478125,12.3071875 Z" id="路径" fill="#FFFFFF"></path>
                <path d="M14.670625,12.3071875 C14.670625,13.041381 15.2658065,13.6365625 16,13.6365625 C16.7341935,13.6365625 17.329375,13.041381 17.329375,12.3071875 C17.329375,11.572994 16.7341935,10.9778125 16,10.9778125 C15.2658065,10.9778125 14.670625,11.572994 14.670625,12.3071875 L14.670625,12.3071875 Z" id="路径" fill="#69B452"></path>
                <polygon id="路径" fill="#FFFFFF" points="10.009375 1.1753125 21.990625 1.1753125 21.990625 2.13 10.009375 2.13"></polygon>
            </g>
        </g>
    </g>
</svg>