<?xml version="1.0" encoding="UTF-8"?>
<svg width="262px" height="198px" viewBox="0 0 262 198" version="1.1" xmlns="http://www.w3.org/2000/svg" xmlns:xlink="http://www.w3.org/1999/xlink">
    <!-- Generator: Sketch 61 (89581) - https://sketch.com -->
    <title>undraw_hiking_d24r</title>
    <desc>Created with Sketch.</desc>
    <defs>
        <linearGradient x1="50.0065807%" y1="99.9877166%" x2="50.0065807%" y2="0.00726250272%" id="linearGradient-1">
            <stop stop-color="#808080" stop-opacity="0.25" offset="0%"></stop>
            <stop stop-color="#808080" stop-opacity="0.12" offset="54%"></stop>
            <stop stop-color="#808080" stop-opacity="0.1" offset="100%"></stop>
        </linearGradient>
    </defs>
    <g id="页面-1" stroke="none" stroke-width="1" fill="none" fill-rule="evenodd">
        <g id="邀约后分享详情" transform="translate(-410.000000, -165.000000)">
            <g id="undraw_hiking_d24r" transform="translate(27.000000, 148.000000)">
                <g transform="translate(383.000000, 17.000000)">
                    <ellipse id="椭圆形" fill="#4588FF" fill-rule="nonzero" opacity="0.1" cx="131" cy="191.5" rx="131" ry="6.5"></ellipse>
                    <path d="M122.061777,191.775015 C122.178387,191.368636 122.428817,191.012699 122.773123,190.763978 C122.81451,190.735751 122.858484,190.71009 122.902458,190.684429 C123.262067,190.518062 123.649811,190.419723 124.045784,190.394462 C125.530556,190.204571 127.090342,189.919736 128.218148,188.954888 C128.541487,188.675185 128.818265,188.349292 129.118323,188.049061 C129.755453,187.445901 130.44152,186.895759 131.169584,186.404201 C131.313665,186.270952 131.505653,186.200686 131.702447,186.209178 C131.983103,185.98929 132.214748,185.714057 132.382751,185.400862 C132.543687,185.002382 132.619439,184.575086 132.605208,184.146046 C132.755238,179.783703 133.68904,175.298188 132.651769,171.059016 C132.540876,170.580757 132.571413,170.080916 132.739717,169.619443 C132.530194,169.524498 132.32067,169.426987 132.11632,169.321777 C130.360081,168.408247 128.798383,167.166586 127.517149,165.665107 C126.919342,165.026772 126.444981,164.284806 126.117739,163.476237 C125.727146,162.388218 125.784053,161.197555 125.923736,160.053081 C126.212155,158.035718 126.61896,156.036765 127.142076,154.066406 L128.329376,149.190846 C128.588047,148.118223 128.875172,147.017373 129.449422,146.080752 L129.395101,146.080752 C129.433902,145.539308 129.475289,144.997864 129.555477,144.461553 C129.72492,143.485263 129.958216,142.520944 130.253889,141.574708 C130.357357,141.215456 130.437545,140.71507 130.556534,140.232646 C130.341837,138.043776 129.483049,135.919058 129.338193,133.737886 C129.291633,133.799472 129.247658,133.861059 129.198511,133.922645 C128.841545,134.364011 128.35007,134.69247 127.987931,135.121006 C127.310212,135.937021 127.157597,137.040437 127.015328,138.079701 C126.971724,138.621836 126.836173,139.152778 126.614387,139.650145 C126.490084,139.855317 126.380315,140.068817 126.285875,140.2891 C126.135846,140.733032 126.247075,141.215456 126.337609,141.677351 C126.466945,142.334269 126.513506,143.098962 126.037551,143.57882 C125.777353,143.819181 125.44061,143.9617 125.085642,143.981695 C124.387066,144.030525 123.709302,143.733726 123.274944,143.188775 C122.786056,142.560084 122.716215,141.715843 122.736909,140.928055 C122.733974,140.334393 122.831916,139.744486 123.02662,139.183117 C123.296266,138.593837 123.628374,138.034702 124.01733,137.515163 C124.710569,136.452804 125.220151,135.290367 125.791814,134.16129 C126.244646,133.238984 126.771443,132.35426 127.36712,131.515657 C127.690459,131.069159 128.042252,130.640623 128.331963,130.176161 C128.427671,130.022196 128.901039,128.875157 129.343367,127.728117 C129.115736,127.681928 128.880346,127.589549 128.826025,127.37913 C128.80421,127.255617 128.81765,127.128513 128.864825,127.01218 C129.841012,123.699666 130.022608,120.206555 129.395101,116.811994 C129.224378,115.893336 128.994161,114.977244 128.996748,114.045756 C128.999334,113.114267 129.255419,112.134023 129.94607,111.479671 C130.370291,111.076796 130.923847,110.822754 131.363587,110.437841 C132.212028,109.693677 132.548301,108.551769 132.765584,107.458617 C132.832127,106.945688 132.992548,106.449128 133.238952,105.993383 C133.306764,105.891558 133.382897,105.795434 133.466583,105.705982 C132.856832,104.070711 132.546721,102.340462 132.550888,100.596908 C132.551271,99.2883926 132.725211,97.9856155 133.06823,96.7221205 C132.928547,97.0659758 132.809559,97.4175294 132.68281,97.7767812 C133.764055,92.1775852 137.998499,88 143.055518,88 L143.1952,88 C148.929937,88 153.606709,93.3708144 153.829166,100.096521 C156.144032,101.570228 157.371409,104.25455 156.964259,106.953099 C158.267487,108.246339 159,110.000027 159,111.828659 C158.971529,115.713681 155.774351,118.840564 151.858093,118.81354 C150.654898,118.813456 149.471012,118.513448 148.415182,117.941072 C148.354941,118.519517 148.250307,119.092561 148.10219,119.655216 C147.864212,120.548213 147.496899,121.410418 147.313243,122.316245 C147.129587,123.222073 147.152867,124.217714 147.649515,125.002936 C148.050906,125.610352 148.352156,126.277345 148.54193,126.97882 C148.711559,127.823129 148.764641,128.686402 148.69972,129.544905 C148.676439,130.330127 148.655746,131.112782 148.632465,131.898004 C148.544517,134.977305 148.459156,138.056606 149.087726,141.079454 C149.372264,142.449743 150.09137,143.750747 149.928407,145.141565 C149.847278,145.646178 149.699423,146.137973 149.488666,146.604233 C149.229995,147.276547 148.893723,148.000183 148.236699,148.326076 C147.915835,148.467907 147.568804,148.542177 147.217535,148.544193 C146.785583,148.564541 146.35266,148.545645 145.92418,148.487739 C145.665509,148.451814 145.316303,148.279886 145.406838,148.033542 C145.44923,147.950458 145.51361,147.880382 145.593081,147.830821 C146.274928,147.296463 146.67472,146.483425 146.679499,145.621423 C146.679499,144.405099 145.864685,143.232398 146.115596,142.028905 C146.273385,141.289873 146.832115,140.573935 146.596724,139.855431 C146.079382,138.2311 146.001781,136.488729 145.56204,134.841303 C145.414598,134.304991 145.267155,133.766113 145.117126,133.229802 C144.858455,132.270086 144.599784,131.307805 144.37474,130.337825 C143.855627,128.020646 143.605675,125.652121 143.629768,123.278527 C143.210585,124.043171 142.924611,124.872563 142.783913,125.731703 C142.706312,126.355262 142.747699,127.014746 142.452814,127.571586 C142.157929,128.128426 141.573333,128.536434 141.224127,129.072745 C141.367305,129.398048 141.530577,129.714277 141.713015,130.01963 C142.079596,130.486007 142.414041,130.976387 142.714072,131.487431 C142.972743,132.000647 143.153813,132.529261 143.373683,133.050176 C144.110896,134.800245 145.375797,136.386085 145.559453,138.272157 C145.709483,139.788713 145.13006,141.27191 144.542876,142.68069 C144.197982,143.522366 143.840153,144.36062 143.469392,145.195453 C143.446111,145.249341 143.420244,145.308361 143.39179,145.362248 C143.347816,145.790784 143.290909,146.216754 143.234001,146.64529 L142.284678,146.64529 C141.896672,147.158507 141.464691,147.671724 141.231887,148.269622 C141.078605,148.73345 140.991537,149.216284 140.973216,149.704063 C140.784386,152.013539 140.8206,154.382035 139.938532,156.529847 C139.679861,157.168802 139.42119,157.812889 139.395323,158.462109 C139.367464,159.003536 139.280738,159.540395 139.136652,160.063345 C139.005589,160.629132 138.936212,161.207256 138.929715,161.787754 C138.901247,162.784909 138.927152,163.782862 139.007316,164.777242 C141.076685,166.060284 142.799434,167.912997 144.661865,169.5168 C147.229308,171.722864 150.143379,173.497238 153.288544,174.769574 L153.273023,174.620741 C154.157678,174.579684 155.000946,174.87735 155.802826,175.285357 C156.084778,175.423926 156.358969,175.572759 156.630573,175.719026 C156.780188,175.788526 156.915994,175.884135 157.031513,176.001295 C157.393653,176.419567 157.129808,177.053389 156.85303,177.540945 C155.932162,179.140471 155.011293,180.738286 154.090424,182.334391 C153.878314,182.703907 153.663617,183.075989 153.48772,183.463468 C153.187662,184.122952 152.996245,184.823493 152.659973,185.465014 C152.261707,186.149621 151.78235,186.784529 151.232109,187.356218 C150.631992,188.040507 150.028427,188.717098 149.421412,189.38599 C149.231984,189.630429 148.996556,189.836093 148.728174,189.991586 C148.450332,190.144679 148.109323,190.129798 147.846105,189.953095 C147.747184,189.867741 147.66856,189.7617 147.615888,189.642599 C147.475928,189.354376 147.411854,189.035677 147.429645,188.716242 C147.454448,188.190342 147.690062,187.696078 148.084083,187.343387 C148.342754,187.130402 148.653159,186.955909 148.759214,186.650545 C148.805381,186.483468 148.815953,186.308682 148.790255,186.137328 C148.663506,184.625904 148.531584,183.099084 148.076323,181.651812 C147.734877,180.568925 147.204601,179.455244 147.458099,178.349262 C147.627094,178.298048 147.800161,178.261136 147.975441,178.23892 C147.798181,178.034011 147.609942,177.838707 147.411538,177.653853 C146.495843,176.801913 145.38097,176.183487 144.279032,175.575325 L139.416017,172.886068 C139.191835,174.12121 138.965067,175.353786 138.735712,176.583796 C138.655524,177.009766 138.577922,177.435736 138.500321,177.866838 C138.136457,179.842723 137.772593,181.816897 137.408729,183.789361 C137.309859,184.264717 137.239035,184.745392 137.196619,185.228934 C137.165579,185.706226 137.183686,186.183517 137.196619,186.658243 C137.188219,187.191051 137.220212,187.723732 137.292327,188.251781 C137.349236,188.548243 137.426148,188.840579 137.522545,189.126816 L137.558759,189.126816 C137.659094,189.201641 137.731814,189.307147 137.765695,189.427048 C138.074518,190.133139 138.278407,190.879955 138.370986,191.644145 C138.444667,192.249886 138.318517,192.863005 138.011433,193.391648 C137.949021,193.510401 137.853947,193.609165 137.737242,193.676483 C137.606264,193.729579 137.464118,193.74985 137.323368,193.735503 L130.931607,193.602067 C130.145105,193.564707 129.356829,193.593033 128.575114,193.686748 C127.954303,193.779127 127.34384,193.943356 126.717856,193.992112 C125.261538,194.079359 123.872475,193.427573 122.579119,192.79375 C122.368197,192.72087 122.18671,192.582239 122.061777,192.398573 C121.979408,192.198752 121.979408,191.974837 122.061777,191.775015 Z" id="路径" fill="url(#linearGradient-1)" fill-rule="nonzero"></path>
                    <path d="M156.01106,106.07381 C156.059092,105.737709 156.083395,105.398634 156.083789,105.059107 C156.084193,102.688132 154.890564,100.476924 152.909675,99.1790348 C152.691487,92.4143498 148.096553,87 142.460032,87 C136.683248,87 132,92.6797336 132,99.6837844 C132,106.687835 136.675455,112.364967 142.460032,112.364967 C143.004652,112.364736 143.548092,112.314221 144.083454,112.214062 C144.614346,115.181242 146.975964,117.478387 149.952508,117.922888 C152.929052,118.36739 155.85691,116.860148 157.228771,114.177116 C158.600632,111.494084 158.110643,108.233437 156.01106,106.07381 L156.01106,106.07381 Z" id="路径" fill="#3F3D56" fill-rule="nonzero"></path>
                    <path d="M141.87804,90.6227674 C147.569847,90.6227674 152.209851,95.9248283 152.430179,102.563886 C154.431277,103.837188 155.636721,106.006815 155.635427,108.332875 C155.636141,108.665879 155.611593,108.99848 155.561984,109.327969 C156.858252,110.614155 157.58352,112.344044 157.581658,114.14524 C157.580625,114.430967 157.562232,114.716385 157.526576,115 C158.523006,112.48335 157.918226,109.632537 155.979034,107.705201 C156.027537,107.375596 156.052079,107.043073 156.052476,106.710108 C156.052885,104.384953 154.847547,102.216477 152.847228,100.94367 C152.6269,94.3097154 147.986897,89 142.295089,89 C137.274758,89 133.072788,93.1258096 132,98.6549558 C133.508198,93.960157 137.361315,90.6227674 141.87804,90.6227674 Z" id="路径" fill="#000000" fill-rule="nonzero" opacity="0.1"></path>
                    <path d="M135.8248,102.838481 C135.875785,103.272719 135.82962,103.713481 135.689985,104.12563 C135.448874,104.711938 134.857762,105.235524 135.031466,105.846374 C135.142947,106.241791 135.549985,106.459952 135.907763,106.590849 C137.660359,107.215334 139.573695,106.844461 141.422217,106.928998 C142.038563,106.985751 142.657313,107.008507 143.275923,106.997173 C143.899632,106.98261 144.50303,106.761187 145,106.364507 C144.036858,105.870511 143.127574,105.267944 142.288144,104.567406 C142.086067,104.4098 141.903209,104.226621 141.743699,104.022004 C141.349624,103.476601 141.289994,102.748489 141.266661,102.064009 C141.243327,101.379529 141.248513,100.700504 141.266661,100.029659 C139.942708,100.013297 138.619619,100.006934 137.297395,100.01057 C136.872209,100.01057 135.575911,99.9014892 135.428133,100.38417 C135.352948,100.624147 135.638133,101.327716 135.687393,101.59769 C135.7548,102.009469 135.798874,102.423975 135.8248,102.838481 Z" id="路径" fill="#FBBEBE" fill-rule="nonzero"></path>
                    <path d="M135.8248,102.838481 C135.875785,103.272719 135.82962,103.713481 135.689985,104.12563 C135.448874,104.711938 134.857762,105.235524 135.031466,105.846374 C135.142947,106.241791 135.549985,106.459952 135.907763,106.590849 C137.660359,107.215334 139.573695,106.844461 141.422217,106.928998 C142.038563,106.985751 142.657313,107.008507 143.275923,106.997173 C143.899632,106.98261 144.50303,106.761187 145,106.364507 C144.036858,105.870511 143.127574,105.267944 142.288144,104.567406 C142.086067,104.4098 141.903209,104.226621 141.743699,104.022004 C141.349624,103.476601 141.289994,102.748489 141.266661,102.064009 C141.243327,101.379529 141.248513,100.700504 141.266661,100.029659 C139.942708,100.013297 138.619619,100.006934 137.297395,100.01057 C136.872209,100.01057 135.575911,99.9014892 135.428133,100.38417 C135.352948,100.624147 135.638133,101.327716 135.687393,101.59769 C135.7548,102.009469 135.798874,102.423975 135.8248,102.838481 Z" id="路径" fill="#000000" fill-rule="nonzero" opacity="0.1"></path>
                    <path d="M130.074115,127.676276 C129.884703,129.137868 130.059728,130.62411 130.583293,132 C133.379348,131.704308 136.18867,131.554926 139,131.552452 C138.515254,130.895887 138.205777,130.12441 138.101301,129.312141 C138.031276,128.55072 138.031276,127.78438 138.101301,127.02296 L132.642916,127.004955 C132.242786,126.98715 131.841977,127.017369 131.448895,127.094979 C130.898983,127.221012 130.608752,127.575964 130.074115,127.676276 Z" id="路径" fill="#FBBEBE" fill-rule="nonzero"></path>
                    <path d="M128.349817,130.976724 C128.072524,131.451322 127.737251,131.883967 127.429708,132.337588 C126.857314,133.189078 126.351522,134.086965 125.917201,135.022607 C125.372699,136.165838 124.886176,137.345777 124.225714,138.431322 C123.853249,138.959614 123.535537,139.527394 123.277877,140.125191 C123.093051,140.695356 123.000206,141.293405 123.003105,141.895101 C122.982938,142.694838 123.051001,143.552261 123.507274,144.189429 C123.921157,144.743443 124.573923,145.045541 125.246657,144.99441 C125.586214,144.974286 125.907849,144.829313 126.154161,144.585364 C126.607913,144.100278 126.562538,143.321517 126.441537,142.655507 C126.355828,142.188775 126.247432,141.698445 126.39112,141.247445 C126.480062,141.023953 126.584533,140.807495 126.703705,140.599789 C126.915967,140.09431 127.045475,139.55547 127.086873,139.00556 C127.222999,137.956724 127.366687,136.831848 128.014544,136.00589 C128.3599,135.560135 128.828777,135.234996 129.169091,134.786619 C129.348071,134.550631 129.489238,134.2858 129.67326,134.062922 C129.945511,133.743028 130.318596,133.499173 130.474889,133.10586 C130.548234,132.849501 130.595548,132.585852 130.616056,132.319234 C130.718919,131.894539 130.868643,131.48364 131.062246,131.094718 C131.677332,129.623726 131.843708,127.995409 132,126.398557 C131.337822,126.371439 130.683772,126.236967 130.06147,126 C130.260617,126.039331 128.53888,130.641097 128.349817,130.976724 Z" id="路径" fill="#FBBEBE" fill-rule="nonzero"></path>
                    <path d="M128.349817,130.976724 C128.072524,131.451322 127.737251,131.883967 127.429708,132.337588 C126.857314,133.189078 126.351522,134.086965 125.917201,135.022607 C125.372699,136.165838 124.886176,137.345777 124.225714,138.431322 C123.853249,138.959614 123.535537,139.527394 123.277877,140.125191 C123.093051,140.695356 123.000206,141.293405 123.003105,141.895101 C122.982938,142.694838 123.051001,143.552261 123.507274,144.189429 C123.921157,144.743443 124.573923,145.045541 125.246657,144.99441 C125.586214,144.974286 125.907849,144.829313 126.154161,144.585364 C126.607913,144.100278 126.562538,143.321517 126.441537,142.655507 C126.355828,142.188775 126.247432,141.698445 126.39112,141.247445 C126.480062,141.023953 126.584533,140.807495 126.703705,140.599789 C126.915967,140.09431 127.045475,139.55547 127.086873,139.00556 C127.222999,137.956724 127.366687,136.831848 128.014544,136.00589 C128.3599,135.560135 128.828777,135.234996 129.169091,134.786619 C129.348071,134.550631 129.489238,134.2858 129.67326,134.062922 C129.945511,133.743028 130.318596,133.499173 130.474889,133.10586 C130.548234,132.849501 130.595548,132.585852 130.616056,132.319234 C130.718919,131.894539 130.868643,131.48364 131.062246,131.094718 C131.677332,129.623726 131.843708,127.995409 132,126.398557 C131.337822,126.371439 130.683772,126.236967 130.06147,126 C130.260617,126.039331 128.53888,130.641097 128.349817,130.976724 Z" id="路径" fill="#000000" fill-rule="nonzero" opacity="0.1"></path>
                    <circle id="椭圆形" fill="#FBBEBE" fill-rule="nonzero" cx="139.5" cy="98.5" r="4.5"></circle>
                    <path d="M129.929397,145.568359 C129.067289,146.61794 128.729058,148.024378 128.418801,149.367842 L127.27441,154.306121 C126.770949,156.307813 126.379514,158.337733 126.102045,160.385819 C125.967261,161.54823 125.911313,162.747376 126.28769,163.862556 C126.601465,164.682197 127.058306,165.435493 127.635529,166.085043 C128.864414,167.605784 130.367063,168.86662 132.060508,169.797936 C132.958219,170.27812 133.906792,170.645473 134.827391,171.073177 C136.203204,171.710798 137.517982,172.476992 138.83276,173.243186 L143.771444,176.129534 C144.831913,176.748787 145.902554,177.375911 146.785007,178.241815 C147.605238,179.046477 148.236694,180.033651 148.631291,181.128163 C148.698844,181.415918 148.850689,181.675207 149.06616,181.870742 C149.3459,182.070162 149.727364,182.004563 150.05288,181.902229 C152.515022,181.057091 154.127088,178.619553 153.992128,175.945857 C150.361789,174.634545 147.010666,172.613038 144.12239,169.992109 C141.91753,167.990033 139.928833,165.602236 137.238242,164.384722 C136.063334,163.859932 134.649375,163.447971 134.100067,162.248825 C133.889762,161.692627 133.791967,161.097916 133.812698,160.501273 C133.764379,158.856054 133.71606,157.192468 134.021231,155.576114 C134.27554,154.211658 134.784159,152.907554 135.157993,151.571962 C135.920921,148.898155 136.17523,146.103645 136.429539,143.327503 C134.671483,143.112422 132.902651,143.004652 131.132279,143.004757 C130.976813,142.984806 130.819927,143.028098 130.694868,143.125459 C130.616202,143.228737 130.569263,143.353926 130.560084,143.48494 C130.420214,144.198656 130.387154,145.019953 129.929397,145.568359 Z" id="路径" fill="#FBBEBE" fill-rule="nonzero"></path>
                    <path d="M129.929397,145.568359 C129.067289,146.61794 128.729058,148.024378 128.418801,149.367842 L127.27441,154.306121 C126.770949,156.307813 126.379514,158.337733 126.102045,160.385819 C125.967261,161.54823 125.911313,162.747376 126.28769,163.862556 C126.601465,164.682197 127.058306,165.435493 127.635529,166.085043 C128.864414,167.605784 130.367063,168.86662 132.060508,169.797936 C132.958219,170.27812 133.906792,170.645473 134.827391,171.073177 C136.203204,171.710798 137.517982,172.476992 138.83276,173.243186 L143.771444,176.129534 C144.831913,176.748787 145.902554,177.375911 146.785007,178.241815 C147.605238,179.046477 148.236694,180.033651 148.631291,181.128163 C148.698844,181.415918 148.850689,181.675207 149.06616,181.870742 C149.3459,182.070162 149.727364,182.004563 150.05288,181.902229 C152.515022,181.057091 154.127088,178.619553 153.992128,175.945857 C150.361789,174.634545 147.010666,172.613038 144.12239,169.992109 C141.91753,167.990033 139.928833,165.602236 137.238242,164.384722 C136.063334,163.859932 134.649375,163.447971 134.100067,162.248825 C133.889762,161.692627 133.791967,161.097916 133.812698,160.501273 C133.764379,158.856054 133.71606,157.192468 134.021231,155.576114 C134.27554,154.211658 134.784159,152.907554 135.157993,151.571962 C135.920921,148.898155 136.17523,146.103645 136.429539,143.327503 C134.671483,143.112422 132.902651,143.004652 131.132279,143.004757 C130.976813,142.984806 130.819927,143.028098 130.694868,143.125459 C130.616202,143.228737 130.569263,143.353926 130.560084,143.48494 C130.420214,144.198656 130.387154,145.019953 129.929397,145.568359 Z" id="路径" fill="#000000" fill-rule="nonzero" opacity="0.1"></path>
                    <path d="M155.673402,176.824967 L153.139669,181.47301 C152.943275,181.831323 152.74688,182.192142 152.584431,182.567994 C152.310448,183.206944 152.135875,183.885984 151.825523,184.507394 C151.460682,185.170049 151.021189,185.785723 150.516226,186.341554 L148.862632,188.311022 C148.688665,188.547148 148.472126,188.746251 148.224956,188.897352 C147.970464,189.046728 147.655643,189.032117 147.415132,188.859767 C147.325337,188.77482 147.253517,188.671595 147.20419,188.556579 C147.075273,188.277159 147.016885,187.968566 147.034466,187.659544 C147.057101,187.1514 147.273252,186.673121 147.635773,186.329026 C147.863687,186.12356 148.157067,185.953173 148.254052,185.657503 C148.296369,185.494197 148.306266,185.323729 148.283147,185.156366 C148.164341,183.690541 148.040685,182.212187 147.626074,180.809004 C147.313298,179.759123 146.828373,178.679173 147.061137,177.60674 C147.502418,177.468927 148.077054,177.373711 148.341338,177.764598 C148.855359,178.516303 148.886879,178.240678 149.679731,178.125417 C150.472583,178.010155 151.216942,177.960041 151.796428,177.318586 C152.567458,176.471665 152.501993,175.158687 152.388036,174.003566 C153.200285,173.963475 153.97374,174.266663 154.708401,174.647527 C154.967836,174.782834 155.219997,174.925658 155.469733,175.068482 C155.607655,175.13556 155.732554,175.22812 155.838276,175.341602 C156.17045,175.747522 155.927987,176.361415 155.673402,176.824967 Z" id="路径" fill="#3F3D56" fill-rule="nonzero"></path>
                    <path d="M130.859082,142.035757 C130.562097,142.961961 130.329683,143.906126 130.163384,144.861985 C130.081692,145.388266 130.042164,145.919607 130,146.448417 C131.873643,146.87602 133.818436,146.896262 135.744784,146.916504 L143.774305,147 C143.950932,145.961539 144.02417,144.90929 143.993028,143.857498 C143.879714,142.129375 143.202462,140.441734 143.315776,138.713611 C141.112322,138.336934 138.884879,138.103625 136.648665,138.015277 C136.241774,137.975587 135.830725,138.013419 135.439098,138.126606 C135.075437,138.253116 134.772387,138.503605 134.421902,138.663007 C133.631336,139.022295 132.456027,138.845181 131.78668,139.422066 C131.177944,139.960997 131.075171,141.29694 130.859082,142.035757 Z" id="路径" fill="#3F3D56" fill-rule="nonzero"></path>
                    <path d="M130.859082,142.035757 C130.562097,142.961961 130.329683,143.906126 130.163384,144.861985 C130.081692,145.388266 130.042164,145.919607 130,146.448417 C131.873643,146.87602 133.818436,146.896262 135.744784,146.916504 L143.774305,147 C143.950932,145.961539 144.02417,144.90929 143.993028,143.857498 C143.879714,142.129375 143.202462,140.441734 143.315776,138.713611 C141.112322,138.336934 138.884879,138.103625 136.648665,138.015277 C136.241774,137.975587 135.830725,138.013419 135.439098,138.126606 C135.075437,138.253116 134.772387,138.503605 134.421902,138.663007 C133.631336,139.022295 132.456027,138.845181 131.78668,139.422066 C131.177944,139.960997 131.075171,141.29694 130.859082,142.035757 Z" id="路径" fill="#000000" fill-rule="nonzero" opacity="0.1"></path>
                    <path d="M131.395756,144.243454 C130.823625,147.020618 131.428094,149.892574 131.569883,152.728663 C131.669384,154.757735 131.530082,156.791931 131.472869,158.823564 C131.439941,159.407163 131.465784,159.992705 131.549983,160.570821 C131.656531,161.083188 131.807208,161.584754 132.000225,162.069567 L132.68927,163.934673 C133.328564,165.692178 133.980297,167.575218 133.328564,169.407019 C133.154741,169.878917 133.120126,170.393182 133.229063,170.885269 C134.204174,175.084321 133.326077,179.54213 133.186775,183.856469 C133.198816,184.281133 133.126879,184.703883 132.975336,185.09902 C132.627082,185.867607 131.768885,186.226282 131.318642,186.925697 C130.771386,187.773705 130.967901,188.975264 131.612171,189.743852 C132.25644,190.51244 133.258914,190.894172 134.243975,190.978716 C135.4753,191.083757 136.709114,190.776322 137.918052,190.573927 L138.052379,190.440705 C138.204118,189.577325 137.743925,188.777993 137.599649,187.894117 C137.531608,187.370222 137.500846,186.841904 137.50761,186.313388 C137.50761,185.841988 137.482735,185.368025 137.50761,184.896625 C137.548338,184.417683 137.613937,183.941331 137.704125,183.469613 L138.733961,177.597603 L138.955351,176.331995 L139.878224,171.059482 C140.052351,170.06288 139.629471,168.948428 139.515045,167.94414 C139.283705,165.861267 139.052365,163.768146 139.119528,161.675025 C139.127268,161.099935 139.193128,160.527239 139.316043,159.966198 C139.447553,159.446658 139.525102,158.914199 139.547383,158.377784 C139.562308,157.73217 139.813548,157.096804 140.059813,156.461438 C140.87821,154.33245 140.845872,151.978009 141.022486,149.695303 C141.041249,149.211784 141.124963,148.733273 141.271239,148.273416 C141.519992,147.576563 142.037397,147.018056 142.440377,146.400624 C142.843356,145.783191 143.149322,145.012042 142.922957,144.304941 C142.557291,143.175117 141.069749,142.81388 140.164289,142.483388 C138.616197,141.90178 136.928416,141.843448 135.345949,142.31686 C133.952555,142.777014 132.624323,143.424821 131.395756,144.243454 Z" id="路径" fill="#FBBEBE" fill-rule="nonzero"></path>
                    <path d="M137.61556,192.375225 C137.558371,192.496028 137.468804,192.597463 137.357432,192.667554 C137.228204,192.721269 137.088331,192.742232 136.949591,192.728677 L130.708066,192.590485 C129.939543,192.551798 129.169213,192.581139 128.405567,192.678184 C127.798968,192.771198 127.205274,192.943937 126.598674,192.991773 C125.178973,193.082129 123.828965,192.41243 122.553815,191.758677 C122.351299,191.679979 122.177929,191.537743 122.05821,191.352074 C121.980597,191.15065 121.980597,190.92632 122.05821,190.724896 C122.168759,190.307602 122.413556,189.941269 122.752573,189.6858 C122.793151,189.655843 122.835382,189.628336 122.879056,189.603416 C123.229094,189.432385 123.607508,189.33138 123.994167,189.305773 C125.444844,189.109115 126.970378,188.816786 128.070002,187.822868 C128.387498,187.538512 128.655951,187.203663 128.950217,186.892731 C129.570314,186.272068 130.240403,185.706646 130.953287,185.202539 C131.091512,185.065703 131.277933,184.99277 131.469542,185.000567 C131.577553,185.031231 131.676173,185.089773 131.756064,185.170649 C132.055674,185.388272 132.290698,185.687281 132.434939,186.034348 C132.565179,186.39714 132.423707,186.803844 132.099373,186.999033 C131.841246,187.102676 131.583118,187.049526 131.371453,187.193033 C131.820595,187.527882 132.514959,187.695307 133.020889,188.043444 C133.520904,188.438498 134.082016,188.743964 134.680649,188.947005 C135.28983,189.109115 136.015169,188.997499 136.412685,188.495224 C136.626931,188.229471 136.897965,187.812238 137.187068,187.990293 C137.286294,188.065851 137.358085,188.173444 137.390989,188.295909 C137.693125,189.023804 137.892193,189.792588 137.982101,190.578732 C138.050453,191.202548 137.921933,191.832448 137.61556,192.375225 Z" id="路径" fill="#3F3D56" fill-rule="nonzero"></path>
                    <path d="M136.447298,128.000863 C136.105888,127.993498 135.765035,128.033324 135.433442,128.119324 C135.117146,128.22807 134.813829,128.374974 134.529522,128.557114 L131.292512,130.44734 C131.05485,130.57242 130.833885,130.730011 130.635338,130.916033 C130.16872,131.387302 130.034353,132.116094 130.00748,132.798533 C129.897544,135.451029 131.033551,137.995365 131.17769,140.647861 C131.240592,141.831056 131.104961,143.016671 130.777033,144.150186 C130.696413,144.430887 130.615793,144.773394 130.811236,144.984563 C130.882298,145.052417 130.9653,145.104914 131.055538,145.139078 C132.079167,145.558841 133.19563,145.654125 134.290106,145.739108 C136.977435,145.955428 139.679423,146.171748 142.352094,145.793188 C142.485397,145.78483 142.615407,145.746176 142.733206,145.679878 C142.885767,145.552807 142.998899,145.380652 143.058129,145.185432 C143.395267,144.352771 143.721004,143.518394 144.03534,142.6823 C144.580135,141.276219 145.115158,139.798032 144.978348,138.286367 C144.807336,136.411593 143.639569,134.827821 142.957965,133.084384 C142.752751,132.569336 142.591511,132.023386 142.344765,131.526365 C142.068898,131.01719 141.760359,130.528474 141.421301,130.063629 C141.159897,129.669617 140.908265,128.776009 140.588229,128.518486 C140.197345,128.181129 139.093096,128.188855 138.597162,128.127049 C137.883824,128.036735 137.165738,127.994587 136.447298,128.000863 L136.447298,128.000863 Z" id="路径" fill="#3F3D56" fill-rule="nonzero"></path>
                    <path d="M155.672258,177.134323 L153.129653,181.664264 C152.932571,182.013473 152.735489,182.365123 152.57247,182.731426 C152.297528,183.35414 152.122344,184.015926 151.810905,184.621547 C151.444786,185.267365 151.003755,185.867395 150.497023,186.409103 L148.837639,188.328528 C148.663062,188.558654 148.445765,188.752699 148.19773,188.89996 C147.942346,189.045541 147.626423,189.0313 147.38507,188.86333 C147.29496,188.780542 147.222889,188.679939 147.173389,188.567846 C147.044021,188.295526 146.985429,187.994774 147.003071,187.693604 C147.607428,187.397506 148.153189,186.993721 148.613792,186.5019 C148.975396,186.064954 149.290189,185.591036 149.552975,185.087972 C149.780065,184.685853 150.007967,184.27885 150.23668,183.866963 C151.411063,181.792877 152.587069,179.718791 153.764696,177.644704 C154.250959,176.835108 154.57033,175.93577 154.703878,175 C154.964222,175.131869 155.217266,175.271064 155.467876,175.410259 C155.606281,175.475632 155.731618,175.565841 155.83771,175.676439 C156.171046,176.084256 155.927735,176.68255 155.672258,177.134323 Z" id="路径" fill="#000000" fill-rule="nonzero" opacity="0.1"></path>
                    <path d="M137.61438,193.245942 C137.557195,193.391742 137.467635,193.514167 137.356272,193.598761 C137.227053,193.663592 137.08719,193.688892 136.948461,193.672533 L130.707407,193.505745 C129.938943,193.459053 129.168671,193.494465 128.405083,193.611591 C127.798529,193.723852 127.204881,193.932336 126.598327,193.99007 C125.178732,194.099124 123.828827,193.290846 122.553773,192.501813 C122.351273,192.40683 122.177916,192.235162 122.058206,192.011072 C121.980598,191.767968 121.980598,191.497218 122.058206,191.254114 C122.168746,190.75047 122.413525,190.308333 122.752516,190 C122.842854,190.070564 122.92803,190.147543 123.010624,190.221314 C123.854067,191.001573 124.822157,191.548402 125.849813,191.82504 C126.859588,192.050182 127.885626,192.142639 128.910975,192.100881 C131.267502,192.100881 133.642096,192.120126 135.970231,191.594104 C136.439988,191.488258 137.392407,190.952613 137.983474,191.090534 C138.048786,191.839546 137.919443,192.594871 137.61438,193.245942 Z" id="路径" fill="#000000" fill-rule="nonzero" opacity="0.1"></path>
                    <path d="M144.784443,105.884241 C142.545067,106.271359 140.280501,106.489216 138.009389,106.536019 C137.449488,106.536019 136.771983,106.478891 136.52399,105.969933 C136.408942,105.731035 136.416612,105.435009 136.252988,105.224674 C135.94875,104.832569 135.337717,105.027323 134.897977,105.253238 C134.284388,105.570038 133.642675,105.912805 133.277078,106.504858 C133.035746,106.962477 132.880548,107.461792 132.819442,107.9772 C132.604685,109.075613 132.279994,110.223364 131.459318,110.97122 C131.034918,111.358132 130.500584,111.610014 130.091524,112.009909 C129.429358,112.664283 129.171139,113.645844 129.171139,114.583261 C129.171139,115.520677 129.391009,116.442514 129.557189,117.366947 C130.163632,120.777071 129.988668,124.283242 129.045865,127.613612 C129.001256,127.731864 128.98889,127.86015 129.010072,127.984944 C129.073987,128.223842 129.360329,128.309534 129.603209,128.348485 C133.353776,128.976891 137.38046,128.382242 140.831902,130 C141.120801,129.278111 141.831542,128.870426 142.184356,128.182294 C142.468142,127.623999 142.440019,126.959238 142.503935,126.333428 C142.711021,124.642962 143.782247,123.201781 144.375383,121.609991 C144.904605,120.215551 145.088682,118.680888 145.827546,117.387721 C146.083208,116.930697 146.418126,116.512625 146.676345,116.050409 C146.913139,115.593956 147.115687,115.120007 147.282265,114.632598 C147.632151,113.79932 147.867853,112.921234 147.98278,112.022893 C148.131064,110.205187 147.300162,108.46798 146.318418,106.951494 C145.937481,106.369828 145.472175,105.767389 144.784443,105.884241 Z" id="路径" fill="#FF6F61" fill-rule="nonzero"></path>
                    <path d="M134,112 C133.370271,112.10238 133.002929,112.570006 132.710555,112.993359 C132.513543,113.259024 132.347998,113.536759 132.215768,113.823464 C132.042269,114.307762 131.972703,114.809147 132.009607,115.309353 C131.995943,115.626945 132.041347,115.94442 132.144548,116.252905 C132.255108,116.563797 132.523568,116.831332 132.894226,117" id="路径" stroke="#000000" opacity="0.1"></path>
                    <ellipse id="椭圆形" fill="#3F3D56" fill-rule="nonzero" transform="translate(140.261339, 95.083429) rotate(-75.660000) translate(-140.261339, -95.083429) " cx="140.261339" cy="95.0834295" rx="2.55273364" ry="5.16459565"></ellipse>
                    <path d="M139.647179,96.6100588 C137.209993,95.919071 135.408815,94.384796 135.279069,93 C135.16804,93.1581912 135.086727,93.3394409 135.03993,93.5330477 C134.693941,95.0334784 136.63504,96.8779929 139.364791,97.6564118 C142.094543,98.4348307 144.60805,97.8453758 144.961672,96.3449451 C144.998643,96.1780627 145.008975,96.005293 144.9922,95.8344602 C144.239165,96.9287593 142.033486,97.2869448 139.647179,96.6100588 Z" id="路径" fill="#000000" fill-rule="nonzero" opacity="0.1"></path>
                    <path d="M143.0472,113.036176 C143.177059,111.711323 143.632966,110.438135 144.375044,109.327971 C144.667279,108.844375 145.083137,108.445532 145.580727,108.171621 C146.091264,107.904174 146.711912,107.952286 147.17414,108.295141 C147.455908,108.589196 147.653844,108.951932 147.747769,109.346368 C148.415109,111.043522 148.703212,112.863544 148.592278,114.681347 C148.592278,116.33703 148.568377,118.013738 148.146122,119.616859 C147.904454,120.526171 147.535314,121.401318 147.349415,122.32377 C147.163517,123.246222 147.187418,124.258028 147.689344,125.056961 C148.092182,125.676292 148.393351,126.354856 148.581655,127.067434 C148.75255,127.92368 148.807031,128.79869 148.743652,129.669221 L148.674604,132.063392 C148.586966,135.185537 148.499329,138.339219 149.131382,141.398291 C149.418197,142.796423 150.140544,144.115714 149.975891,145.532243 C149.895013,146.044104 149.746807,146.543294 149.535047,147.017101 C149.269478,147.700399 148.937517,148.438886 148.276251,148.770023 C147.955052,148.914346 147.606566,148.989588 147.253811,148.990781 C146.815726,149.013195 146.376482,148.994717 145.941901,148.935591 C145.676332,148.898798 145.333748,148.722718 145.424041,148.470423 C145.46583,148.38651 145.530143,148.315592 145.60994,148.265434 C146.297489,147.718731 146.69863,146.893885 146.701427,146.021063 C146.701427,144.780615 145.883475,143.5901 146.135766,142.375932 C146.292451,141.624305 146.855457,140.89633 146.619101,140.165727 C146.087963,138.5153 146.018916,136.749238 145.556826,135.067274 L145.11067,133.427359 C144.845101,132.449718 144.579532,131.474704 144.364422,130.486551 C143.761207,127.75388 143.520168,124.955106 143.647386,122.16083 C143.665976,121.72457 143.421652,121.227865 143.381817,120.794234 C143.339326,120.26862 143.381817,119.764031 143.381817,119.251558 C143.381817,117.133335 142.840056,115.143887 143.0472,113.036176 Z" id="路径" fill="#FBBEBE" fill-rule="nonzero"></path>
                    <path d="M65,22.9776273 C63.5010994,22.7003285 61.9514524,22.8652375 60.5491576,23.4512735 C58.8463644,24.187392 56.9029246,24.1826868 55.2039003,23.4383323 C53.1921476,22.5787076 50.8951101,22.6222225 48.9191092,23.5573909 C48.3615802,23.8461198 47.7403098,23.9980298 47.1090468,24 C44.5611586,24 42.4405724,21.4971597 42,18.194578 C42.5086346,17.8312108 42.9410928,17.3760903 43.2739441,16.8538747 C44.7681745,14.50635 47.0825063,13 49.6808216,13 C52.2791369,13 54.5642742,14.4882324 56.0505423,16.8124631 C56.9577044,18.2383944 58.5631151,19.0982456 60.2837526,19.0797527 L60.3501039,19.0797527 C62.3751442,19.0797527 64.1321255,20.6637496 65,22.9776273 Z" id="路径" fill="#4588FF" fill-rule="nonzero" opacity="0.1"></path>
                    <path d="M71.9456133,12.7229869 L67.9370234,15.2411997 L70.3700722,10.8592538 C69.6799438,10.3154844 68.8267826,10.014207 67.9447719,10.0028058 L67.8802006,10.0028058 C67.6017604,10.0076824 67.3234346,9.98800434 67.0485215,9.94400487 L65.6951058,10.7953398 L66.2788309,9.74714965 C65.3155074,9.41432412 64.483581,8.78778042 63.9026049,7.95755679 L61.4695561,9.49149353 L63.0063544,6.72785084 C61.5832017,5.03796386 59.6667237,4 57.5591146,4 C55.0305002,4 52.7782512,5.4904752 51.3241042,7.80927624 C50.4485837,9.22685705 48.8690442,10.0672168 47.1915372,10.0079189 L47.054646,10.0079189 C44.2625804,10.0079189 42,13.142263 42,17.005227 C42,20.868191 44.2574147,24 47.0598117,24 C47.6738221,23.9980251 48.2782198,23.8489024 48.8213183,23.5653631 C50.743597,22.63944 52.9796339,22.595511 54.9375174,23.4452047 C56.5909647,24.1804515 58.482271,24.1850991 60.1393861,23.4579875 C62.0822556,22.6247799 64.2947392,22.666751 66.2039281,23.5730328 C66.7412579,23.8513795 67.3383091,23.9978076 67.9447719,24 C70.7368375,24 72.9994179,20.868191 72.9994179,17.0026704 C73.016576,15.5111775 72.6541747,14.0394026 71.9456133,12.7229869 L71.9456133,12.7229869 Z" id="路径" fill="#4588FF" fill-rule="nonzero" opacity="0.1"></path>
                    <path d="M204,160.5 L204,162.5 C204,166.642136 207.357864,170 211.5,170 C215.642136,170 219,166.642136 219,162.5 L219,160.5 C219,156.357864 215.642136,153 211.5,153 C207.357864,153 204,156.357864 204,160.5 L204,160.5 Z" id="路径" fill="#3F3D56" fill-rule="nonzero"></path>
                    <path d="M219,127.504199 L219,125.503315 C219,121.359349 215.642136,118 211.5,118 C207.357866,118 204,121.359349 204,125.503315 L204,127.504199 C203.999448,128.239017 204.108137,128.969831 204.322502,129.672657 C205.400419,133.230304 208.919698,135.461956 212.595685,134.918864 C216.271673,134.375773 218.995965,131.221694 219,127.504199 L219,127.504199 Z" id="路径" fill="#3F3D56" fill-rule="nonzero"></path>
                    <path d="M204,143.5 L204,145.5 C204,149.642136 207.357864,153 211.5,153 C215.642136,153 219,149.642136 219,145.5 L219,143.5 C219,139.357864 215.642136,136 211.5,136 C207.357864,136 204,139.357864 204,143.5 L204,143.5 Z" id="路径" fill="#3F3D56" fill-rule="nonzero"></path>
                    <path d="M211.5,170 C207.362993,170.012356 204.012356,173.362993 204,177.5 L204,179.5 C204,183.642136 207.357864,187 211.5,187 C215.642136,187 219,183.642136 219,179.5 L219,177.5 C218.987644,173.362993 215.637007,170.012356 211.5,170 L211.5,170 Z" id="路径" fill="#3F3D56" fill-rule="nonzero"></path>
                    <path d="M219,125 L219,126.749196 C218.995876,130.345186 216.211724,133.396175 212.454966,133.921516 C208.698208,134.446857 205.101602,132.288146 204,128.846779 L219,125 Z" id="路径" fill="#000000" fill-rule="nonzero" opacity="0.1"></path>
                    <path d="M219,143 L219,144.749196 C218.995876,148.345186 216.211724,151.396175 212.454966,151.921516 C208.698208,152.446857 205.101602,150.288146 204,146.846779 L219,143 Z" id="路径" fill="#000000" fill-rule="nonzero" opacity="0.1"></path>
                    <path d="M219,160 L219,161.749196 C218.995876,165.345186 216.211724,168.396175 212.454966,168.921516 C208.698208,169.446857 205.101602,167.288146 204,163.846779 L219,160 Z" id="路径" fill="#000000" fill-rule="nonzero" opacity="0.1"></path>
                    <path d="M219,177 L219,178.749196 C218.995876,182.345186 216.211724,185.396175 212.454966,185.921516 C208.698208,186.446857 205.101602,184.288146 204,180.846779 L219,177 Z" id="路径" fill="#000000" fill-rule="nonzero" opacity="0.1"></path>
                    <path d="M235.763485,143.966244 L235.096834,144.418767 C233.855779,145.262604 232.096428,145.17929 230.966211,144.223162 C229.835994,143.267035 229.67782,141.728183 230.594849,140.61023 C230.773791,140.38956 230.98905,140.193372 231.233607,140.028065 L231.903047,139.575541 C232.799927,138.970804 233.996575,138.8316 235.042227,139.210368 C236.087879,139.589135 236.823675,140.428329 236.972447,141.411834 C237.121219,142.395339 236.660365,143.373737 235.763485,143.978474 L235.763485,143.966244 Z" id="路径" fill="#3F3D56" fill-rule="nonzero"></path>
                    <path d="M227.602298,144.542004 L227.019313,145.001327 C225.856846,145.965095 225.660337,147.696062 226.576229,148.904278 C227.49212,150.112494 229.18695,150.358069 230.397702,149.457996 L230.980687,148.998673 C232.143154,148.034905 232.339663,146.303938 231.423771,145.095722 C230.50788,143.887506 228.81305,143.641931 227.602298,144.542004 L227.602298,144.542004 Z" id="路径" fill="#3F3D56" fill-rule="nonzero"></path>
                    <path d="M220.902202,147.57574 L220.235734,148.025391 C218.849658,148.960022 218.590598,150.702385 219.657106,151.917068 C220.723614,153.131751 222.711826,153.358778 224.097901,152.424147 L224.764369,151.974497 C225.661002,151.369896 226.121464,150.392024 225.972301,149.409233 C225.823138,148.426443 225.087014,147.588045 224.041217,147.209855 C222.995421,146.831665 221.798835,146.97114 220.902202,147.57574 L220.902202,147.57574 Z" id="路径" fill="#3F3D56" fill-rule="nonzero"></path>
                    <path d="M215.898543,151.58777 L215.23161,152.039633 C213.848421,152.97311 213.591678,154.7113 214.65816,155.921987 C215.724641,157.132675 217.710492,157.357399 219.093681,156.423921 L219.763404,155.972059 C221.150447,155.037907 221.409688,153.296437 220.342436,152.082376 C219.275184,150.868316 217.285585,150.641406 215.898543,151.575557 L215.898543,151.58777 Z" id="路径" fill="#3F3D56" fill-rule="nonzero"></path>
                    <path d="M235,144.872689 L234.471433,145.337969 C233.38266,146.299109 231.839188,146.204213 230.847653,145.115172 C229.856118,144.026132 229.717353,142.273361 230.521859,141 L235,144.872689 Z" id="路径" fill="#000000" fill-rule="nonzero" opacity="0.1"></path>
                    <path d="M230,148.874758 L229.471015,149.340621 C228.381631,150.299174 226.839982,150.203044 225.848965,149.114766 C224.857948,148.026489 224.717217,146.275125 225.518321,145 L230,148.874758 Z" id="路径" fill="#000000" fill-rule="nonzero" opacity="0.1"></path>
                    <path d="M225,152.870996 L224.471597,153.336408 C223.383696,154.298758 221.840537,154.205007 220.848648,153.116305 C219.856759,152.027602 219.717118,150.274303 220.520806,149 L225,152.870996 Z" id="路径" fill="#000000" fill-rule="nonzero" opacity="0.1"></path>
                    <path d="M232.204689,48.226087 C237.060777,48.226087 240.997414,52.1309426 240.997414,56.9478261 C240.997414,61.7647096 237.060777,65.6695652 232.204689,65.6695652 C237.060777,65.6695652 240.997414,69.5744208 240.997414,74.3913043 C240.997414,79.2081879 237.060777,83.1130435 232.204689,83.1130435 C237.060777,83.1130435 240.997414,87.0178991 240.997414,91.8347826 C240.997414,96.6516661 237.060777,100.556522 232.204689,100.556522 C237.060777,100.556522 240.997414,104.461377 240.997414,109.278261 C240.997414,114.095144 237.060777,118 232.204689,118 L189.792724,118 C184.936637,118 181,114.095144 181,109.278261 C181,104.461377 184.936637,100.556522 189.792724,100.556522 C184.936637,100.556522 181,96.6516661 181,91.8347826 C181,87.0178991 184.936637,83.1130435 189.792724,83.1130435 C184.936637,83.1130435 181,79.2081879 181,74.3913043 C181,69.5744208 184.936637,65.6695652 189.792724,65.6695652 C184.936637,65.6695652 181,61.7647096 181,56.9478261 C181,52.1309426 184.936637,48.226087 189.792724,48.226087 C184.936637,48.226087 181,44.3212313 181,39.5043478 C181,34.6874643 184.936637,30.7826087 189.792724,30.7826087 C184.936637,30.7826087 181,26.8777531 181,22.0608696 C181,17.2439861 184.936637,13.3391304 189.792724,13.3391304 L191.732296,13.3391304 C192.846903,5.83586957 201.393949,0 211.777122,0 C222.160295,0 230.70734,5.83586957 231.821947,13.3391304 L232.207276,13.3391304 C237.063363,13.3391304 241,17.2439861 241,22.0608696 C241,26.8777531 237.063363,30.7826087 232.207276,30.7826087 C237.063363,30.7826087 241,34.6874643 241,39.5043478 C241,44.3212313 237.063363,48.226087 232.207276,48.226087 L232.204689,48.226087 Z" id="路径" fill="#4588FF" fill-rule="nonzero"></path>
                    <path d="M241,22.5 C240.986131,27.1887215 237.150224,30.9862701 232.414141,31 L191,31 L232.161616,14 L232.414141,14 C237.150224,14.0137299 240.986131,17.8112785 241,22.5 Z" id="路径" fill="#000000" fill-rule="nonzero" opacity="0.1"></path>
                    <path d="M184,40.5 C184.013869,45.1887215 187.849776,48.9862701 192.585859,49 L234,49 L192.838384,32 L192.585859,32 C187.849776,32.0137299 184.013869,35.8112785 184,40.5 L184,40.5 Z" id="路径" fill="#000000" fill-rule="nonzero" opacity="0.1"></path>
                    <path d="M184,75.5 C184.013869,80.1887215 187.849776,83.9862701 192.585859,84 L234,84 L192.838384,67 L192.585859,67 C187.849776,67.0137299 184.013869,70.8112785 184,75.5 L184,75.5 Z" id="路径" fill="#000000" fill-rule="nonzero" opacity="0.1"></path>
                    <path d="M184,110.5 C184.013869,115.188721 187.849776,118.98627 192.585859,119 L234,119 L192.838384,102 L192.585859,102 C187.849776,102.01373 184.013869,105.811279 184,110.5 L184,110.5 Z" id="路径" fill="#000000" fill-rule="nonzero" opacity="0.1"></path>
                    <path d="M241,57.5 C240.986131,62.1887215 237.150224,65.9862701 232.414141,66 L191,66 L232.161616,49 L232.414141,49 C237.150224,49.0137299 240.986131,52.8112785 241,57.5 Z" id="路径" fill="#000000" fill-rule="nonzero" opacity="0.1"></path>
                    <path d="M241,92.5 C240.986131,97.1887215 237.150224,100.98627 232.414141,101 L191,101 L232.161616,84 L232.414141,84 C237.150224,84.0137299 240.986131,87.8112785 241,92.5 Z" id="路径" fill="#000000" fill-rule="nonzero" opacity="0.1"></path>
                    <path d="M236.160932,154.647859 L222.584504,147.178518 C221.099808,146.292383 220.567332,144.364501 221.379523,142.815767 C222.191714,141.267034 224.057384,140.652706 225.601488,141.425559 C224.564132,140.889617 223.893001,139.820635 223.848614,138.633569 C223.804227,137.446504 224.393574,136.328295 225.387883,135.713006 C226.382191,135.097718 227.624877,135.082247 228.633557,135.672599 L229.252039,136.011764 C230.913894,133.735247 234.662497,133.31386 237.988722,135.143296 C241.314946,136.972732 243.034627,140.402925 242.086792,143.072565 L242.209985,143.14194 C243.260311,143.667648 243.945718,144.737761 243.996924,145.931855 C244.04813,147.125949 243.456953,148.253239 242.455654,148.870836 C241.454356,149.488434 240.202917,149.497664 239.193001,148.894899 C240.697554,149.775472 241.241477,151.720937 240.419276,153.280956 C239.597076,154.840975 237.708259,155.447274 236.160932,154.647859 L236.160932,154.647859 Z" id="路径" fill="#4588FF" fill-rule="nonzero"></path>
                    <path d="M244.60551,146.252897 C243.732631,147.86607 241.72273,148.470403 240.106958,147.605511 L226,140 L243.171302,141.700579 L243.257512,141.747672 C244.867329,142.622763 245.46953,144.635416 244.60551,146.252897 Z" id="路径" fill="#000000" fill-rule="nonzero" opacity="0.1"></path>
                    <path d="M221.375314,141.763882 C220.555913,143.396454 221.122442,145.429625 222.644122,146.317409 L236,154 L225.715974,140.44513 L225.634355,140.39756 C224.104464,139.525456 222.202641,140.13557 221.375314,141.763882 L221.375314,141.763882 Z" id="路径" fill="#000000" fill-rule="nonzero" opacity="0.1"></path>
                    <path d="M71.6767014,186.979237 L51.3232986,187 C48.9926017,187 47.1031986,185.057109 47.1031986,182.660432 C47.1031986,180.263754 48.9926017,178.320864 51.3232986,178.320863 C49.7914513,178.359395 48.3596541,177.541056 47.5827089,176.182942 C46.8057637,174.824827 46.8057637,173.140358 47.5827089,171.782244 C48.3596541,170.424129 49.7914513,169.60579 51.3232986,169.644322 L52.2546485,169.644322 C52.784685,165.912086 56.8836342,163.005198 61.8659776,163 C66.848321,162.994816 70.9523181,165.893918 71.4924506,169.626154 L71.6767014,169.626154 C73.2085487,169.587622 74.6403459,170.405961 75.4172911,171.764076 C76.1942363,173.12219 76.1942363,174.806659 75.4172911,176.164774 C74.6403459,177.522888 73.2085487,178.341227 71.6767014,178.302695 C74.0073985,178.302695 75.8968018,180.245586 75.8968018,182.642264 C75.8968018,185.038941 74.0073985,186.981832 71.6767014,186.981832 L71.6767014,186.979237 Z" id="路径" fill="#4588FF" fill-rule="nonzero"></path>
                    <path d="M76,173.485228 C75.995776,175.961827 74.0791961,177.969652 71.7109102,177.978514 L51,178 L71.5747894,169 L71.7006369,169 C74.0693547,169.00441 75.9901164,171.008208 76,173.485228 L76,173.485228 Z" id="路径" fill="#000000" fill-rule="nonzero" opacity="0.1"></path>
                    <path d="M46,182.505383 C46.0098734,184.986541 47.9284852,186.994103 50.2954709,187 L71,186.978469 L50.4135771,178 L50.2877683,178 C47.919212,178.008887 46.0028113,180.022549 46,182.505383 L46,182.505383 Z" id="路径" fill="#000000" fill-rule="nonzero" opacity="0.1"></path>
                    <path d="M145,46.2470588 C144.022316,46.0467243 143.011948,46.1665184 142.096934,46.5912605 C140.987648,47.1306958 139.719572,47.1306958 138.610287,46.5912605 C137.297901,45.9662336 135.799617,45.9976802 134.510386,46.6773109 C134.146979,46.8869826 133.742242,46.9977087 133.330861,47 C131.669139,47 130.286845,45.1794958 130,42.7754622 C130.331858,42.5120006 130.613949,42.1814997 130.830861,41.8020168 C131.805143,40.0944538 133.30366,39 135.007418,39 C136.711177,39 138.194857,40.0756303 139.169139,41.772437 C139.76168,42.8077118 140.807483,43.432396 141.928783,43.4208403 L141.973294,43.4208403 C143.283877,43.4127731 144.428783,44.5663866 145,46.2470588 Z" id="路径" fill="#4588FF" fill-rule="nonzero" opacity="0.1"></path>
                    <path d="M150.247994,38.1099744 L147.403403,39.8721228 L149.12954,36.8030691 C148.640903,36.4204254 148.034976,36.2088058 147.408641,36.202046 L147.364113,36.202046 C147.166783,36.2065042 146.969462,36.1928034 146.774764,36.1611253 L145.808232,36.7570332 L146.222086,36.0230179 C145.539061,35.7897854 144.948777,35.3521451 144.535238,34.7723785 L142.803862,35.8439898 L143.893502,33.9079284 C142.885061,32.7263427 141.536107,32 140.027373,32 C138.233133,32 136.622246,33.0409207 135.600708,34.6649616 C134.977337,35.6512355 133.861278,36.2365898 132.674918,36.1994885 L132.58848,36.1994885 C130.608268,36.1994885 129,38.3938619 129,41.0997442 C129,43.8056266 130.608268,46 132.58848,46 C133.024398,45.9990566 133.453418,45.8936729 133.8379,45.6930946 C135.203526,45.0467067 136.790593,45.0167982 138.180747,45.6112532 C138.765196,45.8660107 139.397809,45.9984352 140.037851,46 C140.669558,45.9992252 141.294112,45.8694201 141.871381,45.6189258 C143.250245,45.0358845 144.82037,45.0657439 146.174938,45.7007673 C146.556459,45.8959949 146.980524,45.9986331 147.411261,46 C149.394093,46 150.999741,43.8056266 150.999741,41.0997442 C151.00936,40.0574305 150.75088,39.0294314 150.247994,38.1099744 L150.247994,38.1099744 Z" id="路径" fill="#4588FF" fill-rule="nonzero" opacity="0.1"></path>
                    <path d="M90,61.2511823 C90.9781682,61.0508824 91.9890357,61.1706558 92.9045027,61.5953244 C94.0134304,62.1348919 95.2814731,62.1348919 96.3904008,61.5953244 C97.7006003,60.9711974 99.1963839,61.0006631 100.484908,61.6759827 C100.848601,61.8853173 101.253469,61.9960053 101.665017,61.998616 C103.327561,61.998616 104.713013,60.1784267 105,57.774809 C104.667353,57.5121586 104.384999,57.1815701 104.168728,56.801532 C103.193963,55.0942644 101.682335,54 99.9876299,54 C98.2929243,54 96.8010886,55.0754442 95.8263236,56.7719573 C95.2324296,57.8068471 94.185081,58.4304579 93.0628402,58.4173869 L93.0207818,58.4173869 C91.7046017,58.4173869 90.5566551,59.5708008 90,61.2511823 Z" id="路径" fill="#4588FF" fill-rule="nonzero" opacity="0.1"></path>
                    <path d="M83.746971,55.0997442 L86.5915347,56.8618926 L84.8627943,53.7928389 C85.3516273,53.4105442 85.9574206,53.1989691 86.5836768,53.1918159 L86.6308242,53.1918159 C86.8281521,53.196274 87.0254714,53.1825733 87.2201675,53.1508951 L88.1840712,53.7468031 L87.7702213,53.0127877 C88.4540305,52.7797145 89.0451938,52.3420977 89.4596721,51.7621483 L91.1857931,52.831202 L90.0961628,50.9079284 C91.107214,49.7263427 92.4666325,49 93.9648742,49 C95.7590971,49 97.3699688,50.0409207 98.3914972,51.6649616 C99.0144758,52.6516359 100.130782,53.2371252 101.317259,53.1994885 L101.411554,53.1994885 C103.394367,53.1994885 105,55.3938619 105,58.0997442 C105,60.8056266 103.394367,63 101.411554,63 C100.97572,62.9984349 100.546856,62.8930883 100.162146,62.6930946 C98.7965333,62.0467067 97.2094812,62.0167982 95.8193411,62.6112532 C95.2358246,62.8660233 94.6040684,62.9984566 93.9648742,63 C93.3331156,62.9997556 92.7084558,62.8699274 92.1313617,62.6189258 C90.751624,62.0357841 89.1806785,62.0656412 87.8252266,62.7007673 C87.4438193,62.8962794 87.0196865,62.9989351 86.5889154,63 C84.6087219,63 83.0004695,60.8056266 83.0004695,58.0997442 C82.98748,57.0544162 83.2442022,56.0227149 83.746971,55.0997442 L83.746971,55.0997442 Z" id="路径" fill="#4588FF" fill-rule="nonzero" opacity="0.1"></path>
                </g>
            </g>
        </g>
    </g>
</svg>