<?xml version="1.0" encoding="UTF-8"?>
<svg width="25px" height="24px" viewBox="0 0 25 24" version="1.1" xmlns="http://www.w3.org/2000/svg" xmlns:xlink="http://www.w3.org/1999/xlink">
    <!-- Generator: Sketch 61 (89581) - https://sketch.com -->
    <title>形状</title>
    <desc>Created with Sketch.</desc>
    <g id="页面-1" stroke="none" stroke-width="1" fill="none" fill-rule="evenodd">
        <g id="邀约后分享详情" transform="translate(-531.000000, -899.000000)" fill="#2975FF" fill-rule="nonzero">
            <path d="M532.718826,912.712485 C531.769014,912.712485 531,913.477851 531,914.421979 L531,921.290506 C531,922.23314 531.769545,923 532.718826,923 L553.285375,923 C554.235187,923 555.004202,922.234634 555.004202,921.290506 L555.004202,914.421979 C555.004202,913.479345 554.234657,912.712485 553.285375,912.712485 C552.340777,912.712485 551.57503,913.472652 551.57503,914.425443 L551.57503,918.716081 C551.57503,919.188145 551.1847,919.570828 550.724764,919.570828 L535.279437,919.570828 C534.809849,919.570828 534.429172,919.182444 534.429172,918.716081 L534.429172,914.425443 C534.429172,913.479402 533.654067,912.712485 532.718826,912.712485 Z M547.288565,908.494191 L547.288565,911.060192 C547.288565,912.008817 547.845492,912.254853 548.53924,911.603395 L554.862461,905.66563 C555.049666,905.467498 555.05271,905.133721 554.863983,904.932541 L548.573632,899.345281 C547.863909,898.714886 547.288565,898.970867 547.288565,899.924152 L547.288565,902.494134 C538.486873,902.344912 534.429172,907.116031 534.429172,911.920537 C534.429172,911.920537 535.73878,908.494191 547.288565,908.494191 Z" id="形状"></path>
        </g>
    </g>
</svg>